<?xml version="1.0" standalone="no"?>
<!DOCTYPE svg PUBLIC "-//W3C//DTD SVG 1.1//EN" "http://www.w3.org/Graphics/SVG/1.1/DTD/svg11.dtd" >
<svg xmlns="http://www.w3.org/2000/svg" xmlns:xlink="http://www.w3.org/1999/xlink" version="1.1">
<metadata>
Created by FontForge 20170731 at Fri Apr 29 07:38:01 2016
 By Aleksey,,,
Copyright (c) 2015, Impallari Type (www.impallari.com)
</metadata>
<defs>
<font id="LibreFranklin-ExtraBold" horiz-adv-x="600" >
  <font-face 
    font-family="Libre Franklin ExtraBold"
    font-weight="800"
    font-stretch="normal"
    units-per-em="1000"
    panose-1="0 0 9 0 0 0 0 0 0 0"
    ascent="800"
    descent="-200"
    x-height="530"
    cap-height="742"
    bbox="-439 -245 1406 964.5"
    underline-thickness="50"
    underline-position="-150"
    unicode-range="U+000D-FB02"
  />
<missing-glyph horiz-adv-x="629" 
d="M564 841.5q5 -5.5 5 -15.5v-962q0 -16 -8 -22.5t-25 -6.5h-448q-15 0 -21 6t-6 19v964q0 11 5 17t14 6h471q8 0 13 -5.5zM513 792q-4 5 -11 5h-353l368 -855v837q0 8 -4 13zM118 -110q5 -5 18 -5h344l-367 849v-828q0 -11 5 -16z" />
    <glyph glyph-name="fi" unicode="fi" horiz-adv-x="685" 
d="M385.5 524.5q5.5 -5.5 5.5 -14.5v-84q0 -17 -19 -17h-72q-11 0 -11 -12v-377q0 -20 -18 -20h-144q-16 0 -16 19v380q0 10 -8 10h-64q-10 0 -15 4t-5 13v84q0 20 22 20h57q7 0 10 3.5t3 12.5v57q0 65 40 102t111 37h108q13 0 19.5 -6t6.5 -17v-76q0 -8 -4 -13t-12 -5h-48
q-20 0 -34 -16t-14 -39v-28q0 -12 12 -12h73q11 0 16.5 -5.5zM638 611q0 -14 -7.5 -20.5t-23.5 -6.5h-125q-13 0 -18.5 6t-5.5 18v112q0 10 5 16t13 6h144q8 0 13 -5.5t5 -14.5v-111zM637 27q0 -15 -7 -21t-23 -6h-124q-14 0 -19 5.5t-5 17.5v486q0 21 18 21h143
q17 0 17 -19v-484z" />
    <glyph glyph-name="fl" unicode="fl" horiz-adv-x="686" 
d="M385.5 524.5q5.5 -5.5 5.5 -14.5v-84q0 -17 -19 -17h-72q-11 0 -11 -12v-377q0 -20 -18 -20h-144q-16 0 -16 19v380q0 10 -8 10h-64q-10 0 -15 4t-5 13v84q0 20 22 20h57q7 0 10 3.5t3 12.5v57q0 65 40 102t111 37h108q13 0 19.5 -6t6.5 -17v-76q0 -8 -4 -13t-12 -5h-48
q-20 0 -34 -16t-14 -39v-28q0 -12 12 -12h73q11 0 16.5 -5.5zM638 27q0 -15 -7 -21t-23 -6h-125q-14 0 -19.5 5.5t-5.5 17.5l4 698q0 21 18 21h141q8 0 12.5 -5t4.5 -14v-696z" />
    <glyph glyph-name=".notdef" horiz-adv-x="629" 
d="M564 841.5q5 -5.5 5 -15.5v-962q0 -16 -8 -22.5t-25 -6.5h-448q-15 0 -21 6t-6 19v964q0 11 5 17t14 6h471q8 0 13 -5.5zM513 792q-4 5 -11 5h-353l368 -855v837q0 8 -4 13zM118 -110q5 -5 18 -5h344l-367 849v-828q0 -11 5 -16z" />
    <glyph glyph-name="uni0000" horiz-adv-x="0" 
 />
    <glyph glyph-name="uni0000" horiz-adv-x="0" 
 />
    <glyph glyph-name="nonmarkingreturn" unicode="&#xd;" horiz-adv-x="211" 
 />
    <glyph glyph-name="space" unicode=" " horiz-adv-x="203" 
 />
    <glyph glyph-name="exclam" unicode="!" horiz-adv-x="271" 
d="M192 275q-1 -14 -7.5 -19.5t-21.5 -5.5h-62q-13 0 -17.5 5t-5.5 17l-45 449v4q0 8 4.5 12.5t12.5 4.5h169q8 0 12.5 -5t3.5 -14zM228 27q0 -15 -6.5 -21t-23.5 -6h-135q-13 0 -19 5.5t-6 17.5v138q0 9 5 14.5t13 5.5h156q16 0 16 -19v-135z" />
    <glyph glyph-name="quotedbl" unicode="&#x22;" horiz-adv-x="490" 
d="M415 456q-2 -15 -8 -20.5t-22 -5.5h-39q-13 0 -17.5 5t-6.5 18l-37 269v4q0 8 5 12t12 4h134q8 0 12.5 -4.5t3.5 -13.5zM175 456q-2 -15 -8 -20.5t-22 -5.5h-39q-13 0 -17.5 5t-6.5 18l-37 269v4q0 8 5 12t12 4h134q8 0 12.5 -4.5t3.5 -13.5z" />
    <glyph glyph-name="numbersign" unicode="#" horiz-adv-x="603" 
d="M588.5 519q4.5 -5 4.5 -13v-45q0 -13 -7.5 -19t-22.5 -6h-95l-18 -122h93q8 0 12.5 -5t4.5 -13v-45q0 -13 -7.5 -19t-22.5 -6h-93l-29 -198q-2 -18 -7 -24t-21 -4l-37 5q-15 3 -20.5 6.5t-4.5 14.5l29 200h-131l-29 -198q-2 -18 -7.5 -24t-21.5 -4l-36 5q-16 3 -21 6.5
t-4 14.5l29 200h-92q-13 0 -18.5 5t-5.5 17v45q0 21 18 21h111l18 122h-90q-13 0 -18.5 5t-5.5 17v45q0 21 18 21h109l29 196q2 12 6 17.5t11 4.5l56 -6q19 -2 16 -18l-28 -194h131l29 196q5 23 17 22l56 -6q19 -2 16 -18l-28 -194h95q8 0 12.5 -5zM378 436h-131l-18 -122
h131z" />
    <glyph glyph-name="dollar" unicode="$" horiz-adv-x="671" 
d="M576.5 71q-61.5 -62 -165.5 -73q-13 -1 -16 -4.5t-3 -14.5v-29q0 -14 -6.5 -20t-21.5 -6h-61q-13 0 -18.5 5.5t-5.5 17.5v34q0 10 -3.5 13.5t-12.5 3.5q-69 4 -122 25t-102 60q-17 12 -17 24q0 6 6 12l68 76q9 10 17 10t16 -8q58 -59 135 -73l7 -1q10 0 10 11l1 146
q0 8 -3 12t-11 6q-226 41 -226 223q0 80 56.5 137.5t161.5 77.5q8 2 14.5 7.5t6.5 12.5v34q0 7 4.5 11t9.5 4h77q10 0 15 -4.5t5 -16.5v-36q0 -4 3 -6.5t12 -4.5q100 -23 168 -71q10 -5 10 -14q0 -6 -5 -13l-61 -78q-7 -9 -14 -9t-17 9q-34 32 -84 48l-4 1q-9 0 -9 -9v-141
q0 -5 3 -8t10 -4l61 -16q77 -21 125 -77t48 -130q0 -92 -61.5 -154zM281 602q0 16 -13 13q-39 -9 -59.5 -28.5t-20.5 -44.5q0 -28 17.5 -46t55.5 -28h5q15 0 15 20v114zM405 123q40 6 62.5 26t22.5 47q0 63 -87 81h-4q-8 0 -8 -11v-136q0 -10 14 -7z" />
    <glyph glyph-name="percent" unicode="%" horiz-adv-x="954" 
d="M326 724q44 -29 69.5 -78t25.5 -105t-25 -104t-69 -76t-98 -28t-98.5 28t-70 76t-25.5 104t26 105t70.5 78t97.5 29t97 -29zM283 7q-5 -6 -11 -8.5t-16 -2.5l-47 1q-9 0 -13.5 4.5t-4.5 11.5t5 15l472 710q5 8 11 10t15 2h60q12 0 12 -8q0 -4 -3 -10zM276.5 451.5
q14.5 29.5 14.5 88.5q0 62 -15 93.5t-48 31.5q-63 0 -63 -125q0 -59 15 -88.5t48 -29.5q34 0 48.5 29.5zM824 381q44 -29 69.5 -78t25.5 -105t-25 -104t-69 -76t-98 -28t-98.5 28t-70 76t-25.5 104t26 105t70.5 78t97.5 29t97 -29zM774.5 108.5q14.5 29.5 14.5 88.5
q0 62 -15 93.5t-48 31.5q-63 0 -63 -125q0 -58 15 -88t48 -30q34 0 48.5 29.5z" />
    <glyph glyph-name="ampersand" unicode="&#x26;" horiz-adv-x="859" 
d="M511 733q54 -20 84 -57t30 -84q0 -48 -40.5 -100.5t-103.5 -82.5q-8 -4 -8 -8t5 -9l89 -94q6 -6 11 -6t12 9q45 53 65 106q6 12 17 12q3 0 9 -2l89 -28q10 -3 14.5 -12t1.5 -18q-16 -36 -38.5 -70.5t-60.5 -83.5q-2 -2 -4.5 -6t-2.5 -6q0 -3 9 -9q43 -29 112 -34
q12 -1 17 -5.5t5 -14.5v-103q0 -13 -6 -20t-17 -7q-145 0 -242 68q-10 5 -14 5q-5 0 -14 -6q-51 -37 -108.5 -54.5t-130.5 -17.5q-120 0 -186 52t-66 147q0 59 41 109t131 100q10 6 10 11t-8 14q-29 32 -45.5 69.5t-16.5 72.5q0 52 30.5 94t84.5 65.5t122 23.5q69 0 123 -20
zM345.5 629.5q-19.5 -18.5 -19.5 -43.5q0 -22 23 -49l35 -42q4 -4 11 -4q4 0 10 2q66 35 66 89q0 30 -20.5 48t-53.5 18q-32 0 -51.5 -18.5zM305 314q-5 0 -12 -5q-29 -17 -45.5 -42t-16.5 -51q0 -36 29 -63.5t70 -27.5q24 0 52 9.5t45 24.5q9 7 9 13q0 5 -6 12l-110 121
q-9 9 -15 9z" />
    <glyph glyph-name="quotesingle" unicode="'" horiz-adv-x="251" 
d="M175 456q-2 -15 -8 -20.5t-22 -5.5h-39q-13 0 -17.5 5t-6.5 18l-37 269v4q0 8 5 12t12 4h134q8 0 12.5 -4.5t3.5 -13.5z" />
    <glyph glyph-name="parenleft" unicode="(" horiz-adv-x="323" 
d="M306 728q-52 -103 -81 -216t-29 -228q0 -109 26.5 -212.5t81.5 -220.5q2 -4 2 -7q0 -9 -12 -9h-95q-7 0 -11 2.5t-9 9.5q-69 119 -103.5 219t-34.5 219q0 120 36.5 233t101.5 211q10 13 26 13h91q16 0 10 -14z" />
    <glyph glyph-name="parenright" unicode=")" horiz-adv-x="323" 
d="M118 742q16 0 26 -13q65 -98 101.5 -211t36.5 -233q0 -119 -34.5 -219t-103.5 -219q-5 -7 -9 -9.5t-11 -2.5h-95q-8 0 -10.5 5t0.5 11q55 117 81.5 220.5t26.5 212.5q0 115 -29 228t-81 216q-1 2 -1 6q0 8 11 8h91z" />
    <glyph glyph-name="asterisk" unicode="*" horiz-adv-x="494" 
d="M254 442q-2 3 -5.5 3t-5.5 -3l-74 -126q-4 -6 -12 -6t-13 4l-62 44q-8 5 -8 11t5 11l92 108q2 4 2 5q0 6 -8 8l-130 35q-10 3 -10 14q0 2 2 10l25 67q5 15 19 9l123 -56q2 -1 5 -1q9 0 7 8l-12 141q0 5 3.5 9.5t10.5 4.5h82q7 0 11 -4.5t3 -9.5l-13 -142v-2q0 -9 9 -5
l126 56l8 2q11 0 14 -14l21 -65l2 -8q0 -12 -13 -14l-127 -36q-5 -1 -5.5 -5t3.5 -8l88 -104q4 -4 4 -10q0 -10 -12 -17l-54 -37q-9 -6 -16 -6q-9 0 -12 6z" />
    <glyph glyph-name="plus" unicode="+" horiz-adv-x="592" 
d="M544.5 432q4.5 -5 4.5 -13v-84q0 -13 -7 -19t-22 -6h-159v-172q0 -8 -5 -12.5t-13 -4.5h-84q-13 0 -19 7t-6 23v159h-166q-13 0 -18.5 5t-5.5 17v84q0 21 17 21h173v166q0 13 5 18t17 5h84q21 0 21 -17v-172h172q7 0 11.5 -5z" />
    <glyph glyph-name="comma" unicode="," horiz-adv-x="266" 
d="M41.5 -153.5q-4.5 7.5 -0.5 15.5l49 109q5 12 5 17q0 12 -14 12h-20q-13 0 -18.5 5.5t-5.5 17.5v139q0 10 4.5 15t12.5 5h156q16 0 16 -18v-134q0 -8 -4 -15l-106 -155q-6 -10 -18 -15.5t-23 -5.5h-20q-9 0 -13.5 7.5z" />
    <glyph glyph-name="hyphen" unicode="-" horiz-adv-x="380" 
d="M335 226q0 -14 -7 -20t-23 -6h-236q-14 0 -19 5.5t-5 17.5v83q0 20 17 20l257 1q7 0 11.5 -5.5t4.5 -13.5v-82z" />
    <glyph glyph-name="period" unicode="." horiz-adv-x="266" 
d="M226 27q0 -15 -7 -21t-24 -6h-134q-14 0 -19.5 5.5t-5.5 17.5v141q0 20 17 20h156q17 0 17 -18v-139z" />
    <glyph glyph-name="slash" unicode="/" horiz-adv-x="373" 
d="M3 9l249 717q6 16 24 16h76q10 0 14 -3t4 -11q0 -7 -3 -16l-242 -697q-4 -13 -11.5 -18t-20.5 -5h-75q-20 0 -15 17z" />
    <glyph glyph-name="zero" unicode="0" horiz-adv-x="716" 
d="M523 704q73 -49 114 -136.5t41 -198.5t-40.5 -196.5t-113 -133t-165.5 -47.5q-94 0 -167 47.5t-113.5 133t-40.5 196.5t41.5 198.5t114.5 136.5t165 49q91 0 164 -49zM446 186q27 54 27 182q0 131 -27.5 188.5t-87.5 57.5t-87.5 -57.5t-27.5 -188.5q0 -127 27 -181.5
t88 -54.5t88 54z" />
    <glyph glyph-name="one" unicode="1" horiz-adv-x="523" 
d="M493 130v-110q0 -9 -6 -14.5t-17 -5.5h-411q-21 0 -21 19v111q0 9 5 13t15 4h96q4 0 7.5 2.5t3.5 6.5v375q0 8 -3.5 11t-11.5 1l-89 -24l-7 -1q-17 0 -17 22v76q0 11 3 16.5t13 9.5l174 87q17 8 25.5 10.5t20.5 2.5h78q16 0 16 -19v-565q0 -11 10 -11h95q21 0 21 -17z
" />
    <glyph glyph-name="two" unicode="2" horiz-adv-x="659" 
d="M262 325q68 57 100.5 89.5t44 55.5t11.5 50q0 39 -27 63t-71 24q-41 0 -73 -24.5t-64 -83.5q-5 -8 -14 -8q-6 0 -16 5l-105 53q-13 6 -13 19q0 8 5 16q54 86 125 127t166 41q85 0 149 -28.5t99 -81t35 -121.5q0 -60 -31 -109t-106 -104l-180 -131q-6 -4 -6 -8t12 -4h297
q21 0 21 -17v-128q0 -9 -5.5 -14.5t-16.5 -5.5h-541q-14 0 -19.5 5t-5.5 18v88q0 9 9.5 21t43.5 40z" />
    <glyph glyph-name="three" unicode="3" horiz-adv-x="677" 
d="M57 633q0 5 5 13q38 47 111.5 76.5t156.5 29.5q89 0 154.5 -24.5t100.5 -69t35 -102.5q0 -48 -30.5 -90t-84.5 -59q-12 -4 -12 -10q0 -7 11 -10q64 -21 101.5 -66.5t37.5 -102.5q0 -112 -81.5 -170t-243.5 -58q-89 0 -167.5 36t-119.5 94q-5 8 -5 14q0 12 12 19l90 63
q9 6 15 6q7 0 10 -5q48 -48 85 -67.5t91 -19.5q53 0 84 23t31 61q0 42 -34 67.5t-88 27.5l-85 1q-19 0 -19 16v108q0 13 19 16l68 3q53 3 85.5 27.5t32.5 62.5q0 30 -28 51t-68 21q-44 0 -80.5 -16.5t-76.5 -55.5q-7 -7 -12 -7t-11 6l-85 80q-5 7 -5 11z" />
    <glyph glyph-name="four" unicode="4" horiz-adv-x="703" 
d="M374.5 738q8.5 4 26.5 4h146q8 0 13 -5t5 -14v-409q0 -11 10 -11h78q20 0 20 -18v-98q0 -20 -22 -20h-75q-11 0 -11 -13v-128q0 -14 -7 -20t-23 -6h-152q-13 0 -18.5 5.5t-5.5 17.5l1 134q0 10 -13 10h-293q-11 0 -17 5.5t-6 14.5v94q0 10 6.5 21t23.5 34l294 384
q11 14 19.5 18zM353 303q4 0 6.5 2t2.5 5v219q0 15 -3 15t-11 -11l-157 -217q-4 -6 -4 -8q0 -5 11 -5h155z" />
    <glyph glyph-name="five" unicode="5" horiz-adv-x="683" 
d="M568 742q19 0 23.5 -5t3.5 -21l-6 -114q-1 -12 -6 -16.5t-19 -4.5h-307q-19 0 -19 -17l-10 -95v-4q0 -7 4.5 -9.5t10.5 -0.5q47 14 74 20t61 6q79 0 140.5 -28t96.5 -82t35 -129q0 -78 -38 -135t-108 -87t-162 -30q-101 0 -183 34.5t-122 91.5q-9 14 -9 22q0 9 11 16
l96 66q8 5 13 5q8 0 17 -9q38 -44 71 -65t84 -21q62 0 96.5 30t34.5 76q0 45 -32 74t-90 29q-27 0 -52 -7.5t-62 -25.5q-8 -4 -12 -4q-3 0 -15 6l-106 57q-7 4 -10 9t-3 13t1 13l29 315q2 16 9.5 21.5t30.5 5.5h429z" />
    <glyph glyph-name="six" unicode="6" horiz-adv-x="693" 
d="M493.5 726.5q54.5 -23.5 88 -58t42.5 -66.5q1 -3 1 -10q0 -11 -11 -15l-127 -38q-2 -1 -5 -1q-6 0 -10 4.5t-6 8.5q-20 31 -40 46t-54 15q-62 0 -98 -45.5t-36 -121.5q0 -13 2 -18.5t8 -5.5q2 0 14 4q40 17 69 25t69 8q76 0 135.5 -28.5t92.5 -78.5t33 -114
q0 -70 -39.5 -126t-108 -87.5t-152.5 -31.5q-98 0 -171 44.5t-112.5 126.5t-39.5 191q0 122 42 211.5t117.5 137t174.5 47.5q67 0 121.5 -23.5zM299.5 318.5q-30.5 -9.5 -47.5 -20.5q-8 -5 -10 -11t-2 -20q0 -63 31.5 -104t83.5 -41q45 0 76 30.5t31 76.5t-30.5 72.5
t-75.5 26.5q-26 0 -56.5 -9.5z" />
    <glyph glyph-name="seven" unicode="7" horiz-adv-x="626" 
d="M564 742q16 0 24.5 -7.5t7.5 -17.5l-3 -61q-1 -9 -10.5 -29.5t-18.5 -33.5q-56 -85 -102 -190.5t-74 -204.5t-33 -168q-1 -16 -6.5 -23t-16.5 -7h-186q-20 0 -20 17q0 2 2 10q35 122 90 242.5t165 294.5q4 8 4 10q0 7 -13 7h-320q-26 0 -24 23l12 122q1 16 27 16h495z
" />
    <glyph glyph-name="eight" unicode="8" horiz-adv-x="688" 
d="M483.5 725q65.5 -27 102.5 -74.5t37 -105.5q0 -41 -24.5 -74.5t-70.5 -57.5q-9 -5 -9 -10q0 -4 8 -10q72 -41 100.5 -82t28.5 -96q0 -70 -41 -121t-114 -77.5t-169 -26.5q-134 0 -216 50.5t-82 141.5q0 51 26 89t90 72q9 5 9 8q0 2 -7 8q-47 35 -72.5 69.5t-25.5 90.5
q0 64 34.5 117t99 84.5t150.5 31.5q80 0 145.5 -27zM271 600q-28 -21 -28 -56q0 -24 15 -42t43 -26l71 -23q8 -2 11 -2q26 0 48.5 28.5t22.5 58.5q0 35 -30 59t-83 24q-42 0 -70 -21zM426 141.5q29 20.5 29 56.5q0 27 -16 45t-57 32l-82 26q-7 3 -16 3q-19 0 -37.5 -12
t-30.5 -33t-12 -45q0 -93 141 -93q52 0 81 20.5z" />
    <glyph glyph-name="nine" unicode="9" horiz-adv-x="693" 
d="M199.5 15.5q-54.5 23.5 -88.5 58t-43 66.5q-1 3 -1 9q0 12 12 16l126 38q2 1 5 1q8 0 11.5 -5.5t4.5 -6.5q20 -31 40.5 -46.5t54.5 -15.5q62 0 98 45.5t36 121.5q0 13 -2 18.5t-8 5.5q-2 0 -14 -4q-40 -17 -69 -25t-69 -8q-76 0 -135.5 28.5t-92.5 78.5t-33 114
q0 70 39.5 126t108 87.5t152.5 31.5q98 0 171 -44.5t112.5 -126.5t39.5 -191q0 -122 -42 -211.5t-117.5 -137t-174.5 -47.5q-67 0 -121.5 23.5zM394.5 423.5q30.5 9.5 46.5 21.5q8 5 10 11t2 20q0 63 -31 103.5t-83 40.5q-45 0 -76 -30.5t-31 -76.5t30.5 -72.5t74.5 -26.5
q27 0 57.5 9.5z" />
    <glyph glyph-name="colon" unicode=":" horiz-adv-x="266" 
d="M226 367q0 -14 -7.5 -20t-23.5 -6h-134q-14 0 -19.5 6t-5.5 18v136q0 10 4.5 15.5t12.5 5.5h156q17 0 17 -19v-136zM226 30q0 -14 -7.5 -20.5t-23.5 -6.5h-134q-14 0 -19.5 6t-5.5 18v137q0 10 4.5 15t12.5 5h156q17 0 17 -19v-135z" />
    <glyph glyph-name="semicolon" unicode=";" horiz-adv-x="270" 
d="M41.5 340.5q-5.5 5.5 -5.5 17.5v141q0 20 17 20h156q17 0 17 -18v-140q0 -14 -7 -20t-24 -6h-134q-14 0 -19.5 5.5zM41.5 -157q-4.5 7 -0.5 16l49 112q4 9 4 17q0 12 -13 12h-20q-13 0 -18.5 5.5t-5.5 17.5v139q0 10 4.5 15t12.5 5h156q16 0 16 -18v-134q0 -8 -4 -15
l-106 -159q-6 -9 -18 -14.5t-23 -5.5h-20q-9 0 -13.5 7z" />
    <glyph glyph-name="less" unicode="&#x3c;" horiz-adv-x="589" 
d="M531 125q0 -26 -21 -26q-7 0 -14 3l-432 167q-26 9 -26 30v101q0 24 26 32l433 168q4 2 11 2q10 0 16.5 -7t6.5 -18v-86q0 -15 -9.5 -24.5t-30.5 -17.5l-262 -100l262 -97q22 -8 31 -16.5t9 -24.5v-86z" />
    <glyph glyph-name="equal" unicode="=" horiz-adv-x="592" 
d="M549 432q0 -13 -7 -19t-22 -6l-452 -1q-13 0 -18.5 5.5t-5.5 17.5v83q0 21 17 21h472q7 0 11.5 -5t4.5 -13v-83zM549 194q0 -26 -29 -26h-452q-13 0 -18.5 5.5t-5.5 17.5v83q0 21 17 21h472q7 0 11.5 -5t4.5 -13v-83z" />
    <glyph glyph-name="greater" unicode="&#x3e;" horiz-adv-x="589" 
d="M66.5 235q9.5 9 31.5 17l262 97l-262 100q-22 9 -31.5 18t-9.5 24v86q0 11 6.5 18t16.5 7q7 0 11 -2l434 -168q25 -8 25 -32v-101q0 -21 -25 -30l-433 -167q-7 -3 -14 -3q-9 0 -15 6.5t-6 19.5v86q0 15 9.5 24z" />
    <glyph glyph-name="question" unicode="?" horiz-adv-x="542" 
d="M0 584q0 4 2 10q32 77 99 117.5t163 40.5q74 0 131.5 -23.5t89 -63t31.5 -86.5q0 -36 -13.5 -64.5t-33.5 -48.5t-53 -48q-47 -37 -70.5 -67.5t-23.5 -76.5q0 -8 -6.5 -14.5t-16.5 -6.5h-94q-11 0 -17 6.5t-6 19.5q0 46 14.5 82t34.5 61t51 55q31 31 45 50t14 42
q0 29 -22.5 47t-56.5 18q-35 0 -66 -21.5t-47 -58.5q-3 -7 -6 -9.5t-8 -2.5q-6 0 -9 1l-115 26q-11 3 -11 15zM346 27q0 -15 -7 -21t-24 -6h-135q-13 0 -18.5 5.5t-5.5 17.5v138q0 20 17 20h156q8 0 12.5 -5t4.5 -14v-135z" />
    <glyph glyph-name="at" unicode="@" horiz-adv-x="834" 
d="M568 -93.5q-63 -19.5 -139 -19.5q-120 0 -209 50t-136.5 135.5t-47.5 189.5q0 108 51 199.5t145 145.5t218 54q96 0 179 -34.5t134 -107.5t51 -181q0 -75 -25 -133.5t-70 -91t-104 -32.5q-40 0 -64 13.5t-35 31.5q-5 5 -6 5q-2 0 -7 -6q-24 -27 -57.5 -42.5t-74.5 -15.5
q-44 0 -79.5 21.5t-55.5 61.5t-20 92q0 61 25.5 114.5t72 86t108.5 32.5q38 0 61 -12t44 -34q2 -2 5 -2q4 0 5 6l2 9q1 7 10 7h79q9 0 8 -8l-35 -209q-2 -8 -2 -22q0 -33 29 -33q21 0 40.5 17t32 52t12.5 86q0 125 -74 180.5t-189 55.5q-106 0 -175.5 -40.5t-102 -109
t-32.5 -154.5q0 -139 82 -215.5t224 -76.5q58 0 94 12.5t77 39.5q7 4 12 4q6 0 9 -5l36 -49q3 -3 3 -7q0 -6 -10 -13q-36 -28 -99 -47.5zM353.5 194q17.5 -25 49.5 -25q40 0 68 34t29 78q2 38 -17 65t-52 27q-39 0 -67 -34t-28 -83q0 -37 17.5 -62z" />
    <glyph glyph-name="A" unicode="A" horiz-adv-x="785" 
d="M32.5 5q-4.5 5 -4.5 14q0 7 3 14l246 688q4 12 10 16.5t18 4.5h174q24 0 34 -25l243 -686q1 -3 1 -10q0 -9 -3.5 -15t-10.5 -6h-173q-16 0 -21 16l-44 130q-3 6 -5.5 8.5t-9.5 2.5h-227q-11 0 -14 -11l-47 -132q-5 -14 -22 -14h-135q-8 0 -12.5 5zM445 309q10 0 10 10
q0 6 -1 9l-72 201q-1 6 -6 6q-4 0 -6 -6l-73 -201q-2 -4 -2 -10q0 -9 12 -9h138z" />
    <glyph glyph-name="B" unicode="B" horiz-adv-x="731" 
d="M66.5 6q-5.5 6 -5.5 14v698q0 11 6 17.5t16 6.5h286q151 0 230 -49.5t79 -145.5q0 -54 -29.5 -92t-101.5 -70q-2 -1 -2 -3.5t2 -3.5q80 -28 114.5 -69.5t34.5 -107.5q0 -102 -77.5 -151.5t-235.5 -49.5h-302q-9 0 -14.5 6zM384 444q41 0 67.5 21.5t26.5 58.5
q0 38 -28.5 60.5t-73.5 22.5h-92q-12 0 -16.5 -4t-4.5 -14v-124q0 -11 3 -16t12 -5h106zM378 135q52 0 80 24.5t28 62.5q0 39 -28 61.5t-74 22.5h-100q-12 0 -16.5 -4.5t-4.5 -15.5v-131q0 -11 3 -15.5t12 -4.5h100z" />
    <glyph glyph-name="C" unicode="C" horiz-adv-x="731" 
d="M529 723q66 -29 108 -80.5t54 -115.5l2 -17q0 -8 -3 -10.5t-11 -3.5l-156 -11q-9 0 -11.5 3.5t-5.5 14.5q-23 110 -117 110q-141 0 -141 -237q0 -126 35 -182.5t106 -56.5q56 0 95.5 28.5t65.5 93.5q3 8 15 8q6 0 10 -1l113 -22q6 -2 9.5 -6t3.5 -14q0 -6 -1 -10
q-8 -40 -44.5 -92t-105 -92t-167.5 -40q-104 0 -182.5 49.5t-121 137.5t-42.5 202q0 113 42.5 197.5t120.5 130t184 45.5q79 0 145 -29z" />
    <glyph glyph-name="D" unicode="D" horiz-adv-x="762" 
d="M192 742q109 0 138 -1q197 -7 295.5 -103.5t98.5 -264.5q0 -112 -44.5 -196t-133.5 -130.5t-218 -46.5h-241q-14 0 -20 6t-6 21v692q0 13 5 18t19 5h107zM263 587v-432q0 -8 2.5 -11t10.5 -3h13q112 0 167.5 54.5t55.5 179.5q0 112 -44.5 164t-134.5 59l-61 3
q-9 0 -9 -14z" />
    <glyph glyph-name="E" unicode="E" horiz-adv-x="663" 
d="M78 742h523q16 0 16 -19v-104q0 -11 -6 -17.5t-18 -6.5h-309q-21 0 -21 -18v-113q0 -9 4.5 -14t11.5 -5h195q19 0 19 -18v-111q0 -15 -16 -15h-199q-15 0 -15 -14v-127q0 -7 2.5 -10t8.5 -3h333q10 0 15 -4t5 -13v-110q0 -20 -21 -20h-521q-13 0 -18.5 5.5t-5.5 17.5v698
q0 21 17 21z" />
    <glyph glyph-name="F" unicode="F" horiz-adv-x="641" 
d="M65.5 736.5q4.5 5.5 12.5 5.5h516q16 0 16 -19l-1 -104q0 -24 -22 -24h-303q-11 0 -16 -4t-5 -14v-122q0 -19 16 -19h199q19 0 19 -18v-109q0 -15 -17 -15h-202q-15 0 -15 -14v-254q0 -14 -7 -20t-23 -6h-148q-14 0 -19 5.5t-5 17.5v698q0 10 4.5 15.5z" />
    <glyph glyph-name="G" unicode="G" horiz-adv-x="757" 
d="M199.5 37.5q-77.5 47.5 -120 133t-42.5 197.5q0 115 44.5 202t124.5 134.5t184 47.5q83 0 149 -30.5t107 -80t53 -104.5l2 -16q0 -9 -3.5 -12t-11.5 -4l-152 -23q-10 0 -13 3.5t-6 14.5q-8 49 -41 81t-88 32q-68 0 -103 -56t-35 -183q0 -133 37 -188.5t108 -55.5
q50 0 81 24.5t44 66.5l2 19q2 6 2 8q0 8 -11 8h-107q-10 0 -14 4t-4 16v86q0 15 19 15l274 -2q16 0 24.5 -7.5t8.5 -19.5v-332q0 -7 -4.5 -11.5t-11.5 -4.5h-35q-19 0 -29 18l-35 64q-2 4 -4.5 3.5t-5.5 -4.5q-38 -41 -84 -66t-124 -25q-102 0 -179.5 47.5z" />
    <glyph glyph-name="H" unicode="H" horiz-adv-x="757" 
d="M277 306q-6 0 -10 -3.5t-4 -9.5v-267q0 -14 -7 -20t-23 -6h-148q-14 0 -19 5.5t-5 17.5v698q0 10 4.5 15.5t12.5 5.5h168q8 0 12.5 -5t4.5 -14v-244q0 -19 16 -19h199q16 0 16 19v244q0 9 4.5 14t12.5 5h168q8 0 12.5 -5.5t4.5 -15.5v-698q0 -12 -5 -17.5t-19 -5.5h-148
q-16 0 -23 6t-7 20v267q0 6 -3.5 9.5t-10.5 3.5h-203z" />
    <glyph glyph-name="I" unicode="I" horiz-adv-x="323" 
d="M246 742q17 0 17 -19v-696q0 -15 -7 -21t-23 -6h-148q-14 0 -19 5.5t-5 17.5v698q0 10 4.5 15.5t12.5 5.5h168z" />
    <glyph glyph-name="J" unicode="J" horiz-adv-x="458" 
d="M347.5 39.5q-54.5 -49.5 -168.5 -49.5q-52 0 -122 14q-16 3 -22 11.5t-5 26.5l9 103q2 23 22 20q6 -1 23 -5t37 -4q40 0 59.5 22t19.5 74v469q0 21 18 21h167q17 0 17 -19v-520q0 -114 -54.5 -163.5z" />
    <glyph glyph-name="K" unicode="K" horiz-adv-x="759" 
d="M732 13q0 -13 -16 -13h-174q-24 0 -32 18l-141 295q-4 6 -8 6t-13 -10l-79 -99q-6 -7 -6 -21v-163q0 -14 -7 -20t-23 -6h-148q-14 0 -19 5.5t-5 17.5v698q0 10 4.5 15.5t12.5 5.5h168q17 0 17 -19v-275q0 -11 4 -11t10 7l211 279q8 11 15.5 15t23.5 4h136q10 0 16.5 -4
t6.5 -11q0 -6 -5 -11l-177 -212q-6 -9 -6 -15t4 -14l226 -447q4 -7 4 -15z" />
    <glyph glyph-name="L" unicode="L" horiz-adv-x="635" 
d="M65.5 736.5q4.5 5.5 12.5 5.5h168q17 0 17 -19v-563q0 -7 2.5 -10t8.5 -3h310q21 0 21 -17v-110q0 -9 -6 -14.5t-17 -5.5h-497q-14 0 -19 5.5t-5 17.5v698q0 10 4.5 15.5z" />
    <glyph glyph-name="M" unicode="M" horiz-adv-x="964" 
d="M67 7q-6 7 -6 19v695q0 11 4.5 16t14.5 5h245q12 0 17 -3.5t9 -13.5l126 -366q3 -8 7 -8t7 8l117 357q8 26 25 26h253q17 0 17 -19v-697q0 -14 -6.5 -20t-22.5 -6h-149q-14 0 -19 5.5t-5 17.5v472q0 7 -4 7t-7 -8l-158 -477q-6 -17 -23 -17h-94q-18 0 -24 17l-158 470
q-3 9 -6 9q-4 0 -4 -10v-466q0 -12 -4 -16t-17 -4h-118q-11 0 -17 7z" />
    <glyph glyph-name="N" unicode="N" horiz-adv-x="760" 
d="M685 742q15 0 15 -16v-709q0 -8 -6 -12.5t-15 -4.5h-121q-8 0 -13.5 2.5t-12.5 11.5l-296 408q-4 6 -7 5.5t-3 -6.5v-401v-3q0 -9 -5 -13t-17 -4h-121q-22 0 -22 19v702q0 11 4.5 16t15.5 5h143q12 0 17.5 -3t13.5 -13l266 -375q6 -8 11 -8t5 12v368q0 19 20 19h128z" />
    <glyph glyph-name="O" unicode="O" horiz-adv-x="777" 
d="M202.5 36q-79.5 46 -122.5 131.5t-43 201.5t43.5 202.5t123 133.5t185.5 47q105 0 184.5 -47t123 -133.5t43.5 -202.5q0 -115 -43 -200.5t-122.5 -132t-185.5 -46.5q-107 0 -186.5 46zM495.5 185q32.5 55 32.5 181q0 130 -33.5 188.5t-105.5 58.5q-73 0 -106.5 -58.5
t-33.5 -188.5q0 -126 33 -181t108 -55q73 0 105.5 55z" />
    <glyph glyph-name="P" unicode="P" horiz-adv-x="723" 
d="M656 381.5q-34 -52.5 -96 -80t-143 -27.5h-143q-11 0 -11 -10v-238q0 -14 -7 -20t-23 -6h-149q-13 0 -18 5.5t-5 17.5v698q0 21 17 21h316q84 0 151 -26.5t106 -79.5t39 -130q0 -72 -34 -124.5zM455.5 575q-28.5 24 -73.5 24h-98q-12 0 -16.5 -4.5t-4.5 -15.5v-141
q0 -11 3 -15.5t12 -4.5h110q44 0 70 25t26 66q0 42 -28.5 66z" />
    <glyph glyph-name="Q" unicode="Q" horiz-adv-x="779" 
d="M80.5 571.5q43.5 86.5 123 133.5t185.5 47t185.5 -47t122.5 -133.5t43 -202.5q0 -95 -28.5 -168.5t-82.5 -122.5q-3 -3 -3 -9q0 -14 31.5 -32t65.5 -22q16 -2 16 -16v-98q0 -17 -9 -22.5t-32 -5.5q-68 0 -122.5 29.5t-98.5 88.5q-4 6 -15 4q-30 -5 -73 -5
q-107 0 -186.5 46t-122.5 131.5t-43 201.5t43.5 202.5zM281.5 185q32.5 -55 107.5 -55t107.5 55t32.5 182q0 129 -33.5 187.5t-106.5 58.5q-74 0 -107 -58t-33 -188q0 -127 32.5 -182z" />
    <glyph glyph-name="R" unicode="R" horiz-adv-x="731" 
d="M689 20q0 -9 -5 -14.5t-14 -5.5h-171q-19 0 -25 19l-100 269q-3 8 -9.5 11.5t-20.5 3.5h-69q-6 0 -9 -3.5t-3 -7.5v-265q0 -15 -7 -21t-23 -6h-149q-13 0 -18 5.5t-5 17.5v698q0 21 17 21h324q140 0 217 -54.5t77 -153.5q0 -71 -37.5 -124t-96.5 -74q-5 -2 -5 -10
q0 -5 1 -8l129 -288q2 -8 2 -10zM462 459q25 22 25 62q0 42 -27.5 65t-70.5 23h-105q-12 0 -16.5 -4t-4.5 -14v-134q0 -11 3 -15.5t12 -4.5h111q48 0 73 22z" />
    <glyph glyph-name="S" unicode="S" horiz-adv-x="690" 
d="M439.5 597.5q-30.5 15.5 -83.5 15.5q-56 0 -84.5 -18.5t-28.5 -46.5q0 -19 16 -36t56 -27l162 -44q90 -24 135 -80t45 -134q0 -72 -37.5 -125.5t-107.5 -82.5t-164 -29q-106 0 -192.5 35.5t-122.5 95.5q-5 10 -5 15q0 8 11 16l90 62q11 7 19 7q10 0 16 -8
q36 -46 72.5 -65t96.5 -19q61 0 96.5 18t35.5 52q0 46 -73 66l-152 40q-88 23 -138 81.5t-50 134.5q0 65 37 117.5t104.5 83t156.5 30.5q86 0 160 -29t110 -77q7 -12 7 -17t-7 -11l-98 -71q-4 -4 -9 -4q-6 0 -18 12q-25 27 -55.5 42.5z" />
    <glyph glyph-name="T" unicode="T" horiz-adv-x="693" 
d="M31 721q0 9 5.5 15t16.5 6h587q11 0 16.5 -6t5.5 -15v-106q0 -17 -20 -17h-182q-11 0 -11 -10v-568q0 -20 -18 -20h-168q-17 0 -17 19v565q0 8 -2 11t-8 3h-184q-21 0 -21 17v106z" />
    <glyph glyph-name="U" unicode="U" horiz-adv-x="724" 
d="M592 58q-80 -68 -230 -68q-167 0 -238.5 77.5t-71.5 236.5v417q0 21 18 21h167q17 0 17 -19v-443q0 -77 31.5 -112t91.5 -35q128 0 128 150v438q0 21 18 21h133q16 0 16 -19v-439q0 -158 -80 -226z" />
    <glyph glyph-name="V" unicode="V" horiz-adv-x="743" 
d="M712 734q5 -8 2 -18l-236 -693q-7 -23 -34 -23h-145q-28 0 -34 23l-235 693q-2 6 -2 9q0 7 5 12t14 5h170q17 0 23 -19l148 -471q3 -7 6 -7q2 0 5 8l142 470q1 9 7.5 14t15.5 5h132q11 0 16 -8z" />
    <glyph glyph-name="W" unicode="W" horiz-adv-x="1097" 
d="M1060.5 735.5q7.5 -6.5 7.5 -17.5q0 -4 -2 -12l-203 -683q-5 -12 -12.5 -17.5t-21.5 -5.5h-123q-14 0 -22 5.5t-12 17.5l-114 393q-3 11 -6 11q-4 0 -8 -13l-115 -391q-6 -23 -33 -23h-128q-26 0 -33 23l-204 683q-1 4 -1 11q0 12 7 18.5t21 6.5h146q13 0 19.5 -4.5
t9.5 -14.5l117 -411q3 -12 7 -12q3 0 5 8l116 415q2 10 9 14.5t21 4.5h124q13 0 19.5 -4.5t9.5 -14.5l121 -419q2 -7 5.5 -8t5.5 6l114 421q3 19 29 19h103q14 0 21.5 -6.5z" />
    <glyph glyph-name="X" unicode="X" horiz-adv-x="743" 
d="M716 15q0 -15 -25 -15h-160q-27 0 -37 18l-126 206q-8 14 -13 14q-7 0 -14 -13l-123 -207q-9 -18 -38 -18h-127q-25 0 -25 15q0 10 13 30l203 313q7 10 7 17t-7 17l-206 319q-5 8 -5 14q0 7 5 12t14 5h169q14 0 21.5 -4.5t13.5 -14.5l107 -181q5 -8 11 -8t11 8l107 181
q5 10 12.5 14.5t21.5 4.5h140q17 0 17 -13q0 -8 -6 -16l-195 -298q-6 -9 -6 -15q0 -7 8 -18l220 -337q12 -19 12 -30z" />
    <glyph glyph-name="Y" unicode="Y" horiz-adv-x="755" 
d="M729 731q0 -5 -4 -10l-235 -382q-6 -10 -7.5 -20.5t-1.5 -39.5v-252q0 -15 -7 -21t-23 -6h-148q-13 0 -18.5 5.5t-5.5 17.5v266q0 13 -3 21t-10 20l-235 386q-4 7 -4 12q0 14 21 14h176q13 0 19 -3.5t13 -15.5l135 -241q5 -10 9 -10q3 0 9 9l133 242q5 11 11.5 15t19.5 4
h139q17 0 17 -11z" />
    <glyph glyph-name="Z" unicode="Z" horiz-adv-x="698" 
d="M35 4.5q-5 4.5 -5 18.5v40q0 14 3 21t16 26l323 469q4 5 4 10t-12 5h-284q-12 0 -16 5t-4 17v107q0 19 16 19h571q17 0 17 -18v-46q0 -10 -3 -17t-12 -20l-335 -479q-2 -4 -2 -6q0 -7 13 -7h314q20 0 20 -17v-112q0 -9 -5.5 -14.5t-16.5 -5.5h-583q-14 0 -19 4.5z" />
    <glyph glyph-name="bracketleft" unicode="[" horiz-adv-x="327" 
d="M59.5 737.5q5.5 4.5 18.5 4.5h220q14 0 14 -12v-72q0 -13 -14 -13h-78q-23 0 -23 -25v-669q0 -12 4 -15.5t15 -3.5h79q17 0 17 -15v-65q0 -17 -17 -17h-214q-13 0 -20 6.5t-7 17.5v863q0 11 5.5 15.5z" />
    <glyph glyph-name="backslash" unicode="\" horiz-adv-x="373" 
d="M258.5 -3q-7.5 5 -11.5 18l-242 697q-3 9 -3 16q0 8 4 11t14 3h76q8 0 14.5 -4.5t8.5 -11.5l250 -717q1 -2 1 -6q0 -11 -16 -11h-75q-13 0 -20.5 5z" />
    <glyph glyph-name="bracketright" unicode="]" horiz-adv-x="327" 
d="M273 -141q0 -11 -7 -17.5t-20 -6.5h-214q-17 0 -17 17v65q0 15 17 15h79q11 0 15 3.5t4 15.5v669q0 25 -23 25h-78q-14 0 -14 13v72q0 12 14 12h220q13 0 18.5 -4.5t5.5 -15.5v-863z" />
    <glyph glyph-name="asciicircum" unicode="^" horiz-adv-x="475" 
d="M247 339q-3 10 -11 10q-7 0 -11 -10l-84 -208q-3 -5 -8 -6.5t-16 -1.5h-76q-13 0 -13 11q0 5 3 11l154 359q7 17 21.5 26.5t30.5 9.5t30 -9t21 -26l155 -363q2 -6 2 -9q0 -11 -16 -11h-72q-23 0 -25 9z" />
    <glyph glyph-name="underscore" unicode="_" horiz-adv-x="554" 
d="M509 -127q0 -13 -7 -19t-22 -6h-412q-13 0 -18.5 5t-5.5 17v83q0 21 17 21h432q7 0 11.5 -5t4.5 -13v-83z" />
    <glyph glyph-name="grave" unicode="`" horiz-adv-x="313" 
d="M46 751q5 3 11 0l237 -100q10 -5 10 -14l-2 -8l-14 -39q-6 -14 -16 -14q-3 0 -11 2l-232 59q-19 4 -19 19q0 6 2 10l26 74q3 8 8 11z" />
    <glyph glyph-name="a" unicode="a" horiz-adv-x="568" 
d="M184 -10q-74 0 -118 41t-44 105q0 57 36 100.5t103.5 67.5t159.5 25l20 1q16 0 16 14v19q0 33 -18.5 51t-53.5 18q-28 0 -51.5 -12.5t-38.5 -40.5q-3 -6 -6 -8.5t-9 -2.5t-10 1l-116 24q-10 2 -10 12q0 6 4 17q46 118 245 118q125 0 179 -43.5t54 -122.5v-349
q0 -15 -4 -20t-17 -5h-121q-11 0 -16 8t-8 23l-1 15q-1 9 -7 9t-17 -9q-66 -56 -151 -56zM353.5 243q-3.5 4 -11.5 4l-16 -1q-27 -1 -57.5 -10.5t-52 -29t-21.5 -46.5q0 -26 18.5 -41t49.5 -15q37 0 66 23q28 24 28 44v59q0 9 -3.5 13z" />
    <glyph glyph-name="b" unicode="b" horiz-adv-x="613" 
d="M73 0q-14 0 -19.5 5.5t-5.5 17.5v698q0 21 18 21h143q17 0 17 -20v-228q0 -13 7 -13q4 0 11 5q57 54 133 54q98 0 153 -73t55 -198q0 -129 -59.5 -204t-167.5 -75q-49 0 -89 22.5t-69 59.5q-3 4 -6 4q-5 0 -6 -7l-14 -47q-4 -12 -9.5 -17t-15.5 -5h-76zM226 184
q0 -40 24 -64t60 -24q47 0 71 40t24 129q0 88 -22.5 126.5t-68.5 38.5q-49 0 -88 -47v-199z" />
    <glyph glyph-name="c" unicode="c" horiz-adv-x="553" 
d="M410.5 516.5q48.5 -23.5 78.5 -60.5t41 -77q2 -8 2 -10q0 -12 -18 -14l-121 -8q-1 0 -2 -0.5t-3 0.5q-8 0 -11 12q-11 32 -26 49.5t-48 17.5q-46 0 -71.5 -40t-25.5 -121q0 -163 106 -163q39 0 61.5 20t46.5 62q2 4 6 5t13 0l84 -18q10 -1 10 -10q0 -3 -2 -11
q-9 -33 -36.5 -70t-77 -63.5t-119.5 -26.5q-78 0 -140 34.5t-97 96.5t-35 142q0 81 35.5 144t97.5 98t139 35q64 0 112.5 -23.5z" />
    <glyph glyph-name="d" unicode="d" horiz-adv-x="613" 
d="M390 21v24q0 4 -2 6t-4 2q-3 0 -9 -4q-30 -29 -63 -44t-80 -15q-92 0 -148 70t-56 202q0 82 29 145t78 98t107 35q38 0 68 -12t59 -40q6 -6 12 -6q7 0 7 14v227q0 19 16 19h143q18 0 18 -21v-698q0 -12 -5.5 -17.5t-19.5 -5.5h-127q-23 0 -23 21zM348.5 417.5
q-18.5 10.5 -44.5 10.5q-45 0 -70.5 -39.5t-25.5 -125.5q0 -87 24.5 -125.5t70.5 -38.5q35 0 59.5 22t24.5 54v210q-20 22 -38.5 32.5z" />
    <glyph glyph-name="e" unicode="e" horiz-adv-x="588" 
d="M242 137.5q33 -28.5 84 -28.5q31 0 58.5 14t59.5 47q4 4 9 4t10 -2l82 -34q9 -4 9 -11q0 -4 -5 -11q-50 -72 -106 -99t-141 -27q-78 0 -141 34t-99 94.5t-36 138.5q0 83 37 147.5t99.5 100t136.5 35.5q78 0 138 -33.5t94 -97.5t34 -152q0 -14 -2.5 -19t-14.5 -6h-325
q-14 0 -14 -16q0 -50 33 -78.5zM375 326q10 0 13.5 2.5t3.5 11.5q0 34 -22.5 64t-62.5 30q-42 0 -69 -29t-26 -78z" />
    <glyph glyph-name="f" unicode="f" horiz-adv-x="411" 
d="M385.5 524.5q5.5 -5.5 5.5 -14.5v-84q0 -17 -19 -17h-72q-11 0 -11 -12v-377q0 -20 -18 -20h-144q-16 0 -16 19v380q0 10 -8 10h-64q-10 0 -15 4t-5 13v84q0 20 22 20h57q7 0 10 3.5t3 12.5v57q0 65 40 102t111 37h108q13 0 19.5 -6t6.5 -17v-76q0 -8 -4 -13t-12 -5h-48
q-20 0 -34 -16t-14 -39v-28q0 -12 12 -12h73q11 0 16.5 -5.5z" />
    <glyph glyph-name="g" unicode="g" horiz-adv-x="643" 
d="M618.5 552q5.5 -6 5.5 -18v-79q0 -15 -6.5 -21.5t-18.5 -3.5q-18 5 -35 5q-8 0 -11 -1q-27 -1 -20 -23q8 -22 8 -38q0 -46 -29 -83t-85.5 -59t-135.5 -22q-52 0 -76 -8t-24 -22q0 -12 12 -16.5t40 -6.5l148 -9q104 -7 155 -45.5t51 -101.5q0 -52 -33.5 -91.5t-99.5 -61.5
t-161 -22q-152 0 -227 31t-75 95q0 31 25.5 51.5t71.5 35.5q6 2 6 5t-6 6q-62 29 -62 78q0 56 103 98q6 3 7.5 5.5t-5.5 6.5q-49 21 -74.5 55.5t-25.5 79.5q0 76 67.5 121t193.5 45q54 0 96 -12t68 -33q6 -5 14 -5q9 0 15 7q19 25 52.5 44t56.5 19q9 0 14.5 -6zM356.5 315
q22.5 22 22.5 55q0 37 -22.5 60t-67.5 23q-42 0 -65.5 -23.5t-23.5 -59.5q0 -33 24 -55t65 -22q45 0 67.5 22zM220 19q-31 2 -52.5 -11.5t-21.5 -33.5q0 -33 38 -50t128 -17q63 0 96.5 16t33.5 44q0 19 -19 31.5t-54 13.5z" />
    <glyph glyph-name="h" unicode="h" horiz-adv-x="601" 
d="M54 5q-5 5 -5 18v698q0 21 17 21h141q17 0 17 -19v-253q0 -7 4 -7q3 0 8 3q44 40 83 57t82 17q75 0 116 -42.5t41 -120.5v-350q0 -27 -28 -27h-129q-12 0 -16.5 5t-4.5 18v332q0 27 -16.5 42.5t-45.5 15.5q-27 0 -48.5 -13.5t-42.5 -42.5v-331q0 -14 -7 -20t-23 -6h-125
q-13 0 -18 5z" />
    <glyph glyph-name="i" unicode="i" horiz-adv-x="274" 
d="M227 611q0 -14 -7.5 -20.5t-23.5 -6.5h-125q-13 0 -18.5 6t-5.5 18v112q0 10 5 16t13 6h144q8 0 13 -5.5t5 -14.5v-111zM226 27q0 -15 -7 -21t-23 -6h-124q-14 0 -19 5.5t-5 17.5v486q0 21 18 21h143q17 0 17 -19v-484z" />
    <glyph glyph-name="j" unicode="j" horiz-adv-x="275" 
d="M227 611q0 -14 -6.5 -20.5t-22.5 -6.5h-125q-14 0 -19.5 6t-5.5 18v112q0 10 5.5 16t13.5 6h143q17 0 17 -20v-111zM178.5 -123q-48.5 -47 -148.5 -47q-42 0 -55 4.5t-13 18.5v91q0 8 4.5 15t13.5 9l38 5q15 3 23 14.5t8 37.5v484q0 21 18 21h143q17 0 17 -19v-493
q0 -94 -48.5 -141z" />
    <glyph glyph-name="k" unicode="k" horiz-adv-x="618" 
d="M602 18q0 -7 -5 -12.5t-14 -5.5h-152q-20 0 -30 23l-87 189q-4 10 -10 10q-4 0 -10 -6l-59 -56q-8 -8 -8 -27v-106q0 -15 -6.5 -21t-23.5 -6h-123q-14 0 -19.5 5.5t-5.5 17.5v698q0 10 4.5 15.5t12.5 5.5h144q17 0 17 -19v-392q0 -8 4 -8q2 0 7 5l169 186q14 16 29 16
h123q19 0 19 -12q0 -8 -7 -15l-135 -135q-7 -9 -7 -15t6 -17l165 -310z" />
    <glyph glyph-name="l" unicode="l" horiz-adv-x="275" 
d="M227 27q0 -15 -7 -21t-23 -6h-125q-14 0 -19.5 5.5t-5.5 17.5l4 698q0 21 18 21h141q8 0 12.5 -5t4.5 -14v-696z" />
    <glyph glyph-name="m" unicode="m" horiz-adv-x="924" 
d="M53.5 5q-5.5 5 -5.5 18v486q0 10 4.5 15.5t12.5 5.5h141q17 0 17 -18v-48q0 -8 5 -8q3 0 7 4q79 81 163 81q52 0 89 -25t53 -70q2 -3 4 -3q4 0 9 5q32 39 80.5 65.5t93.5 26.5q70 0 112 -43.5t42 -120.5v-349q0 -27 -28 -27h-129q-11 0 -16 5t-5 18v332q0 27 -16 42.5
t-44 15.5q-22 0 -43.5 -12.5t-37.5 -31.5q-9 -13 -9 -28v-314q0 -27 -27 -27h-129q-11 0 -16 5.5t-5 17.5v332q0 27 -16 42.5t-44 15.5q-27 0 -48 -13.5t-42 -42.5v-331q0 -14 -7 -20t-23 -6h-124q-13 0 -18.5 5z" />
    <glyph glyph-name="n" unicode="n" 
d="M53.5 5q-5.5 5 -5.5 18v486q0 21 17 21h142q17 0 17 -18v-48q0 -8 5 -8q3 0 7 4q78 80 164 80q71 0 114.5 -43.5t43.5 -116.5v-353q0 -27 -28 -27h-129q-12 0 -16.5 5t-4.5 18v332q0 27 -17 42.5t-46 15.5q-27 0 -48.5 -13.5t-42.5 -42.5v-331q0 -14 -7 -20t-23 -6h-124
q-13 0 -18.5 5z" />
    <glyph glyph-name="o" unicode="o" 
d="M157 24.5q-62 34.5 -96.5 96.5t-34.5 141q0 81 35.5 144.5t98 98.5t140.5 35q81 0 143 -35.5t96.5 -99t34.5 -143.5q0 -78 -35 -140t-97.5 -97t-142.5 -35t-142 34.5zM371 145q23 39 23 121t-23.5 122t-70.5 40t-70.5 -40t-23.5 -122q0 -81 23.5 -120.5t70.5 -39.5
q48 0 71 39z" />
    <glyph glyph-name="p" unicode="p" horiz-adv-x="613" 
d="M221 525q5 -5 5 -17v-25q0 -7 6 -7q5 0 9 4q31 29 63.5 44.5t79.5 15.5q90 0 145.5 -69t55.5 -203q0 -140 -57.5 -209t-150.5 -69q-38 0 -70 12t-61 39q-12 10 -15 10q-5 0 -5 -15v-182q0 -19 -17 -19h-144q-17 0 -17 20v651q0 13 5.5 18.5t19.5 5.5h130q13 0 18 -5z
M308 100q47 0 72 39.5t25 133.5q0 87 -24.5 122t-71.5 35q-35 0 -59 -20t-24 -47v-218q34 -45 82 -45z" />
    <glyph glyph-name="q" unicode="q" horiz-adv-x="613" 
d="M540 530q14 0 19.5 -6t5.5 -18v-651q0 -20 -18 -20h-143q-17 0 -17 19v175q0 16 -6 16q-5 0 -11 -6q-63 -49 -129 -49q-99 0 -156 72t-57 203q0 83 27 145.5t77.5 96.5t118.5 34q100 0 166 -82q5 -5 7 -5q3 0 6 8l14 46q6 22 23 22h73zM387 345q0 40 -23 65.5t-60 25.5
q-44 0 -70 -41.5t-26 -128.5q0 -88 24 -127.5t69 -39.5q50 0 86 39v207z" />
    <glyph glyph-name="r" unicode="r" horiz-adv-x="441" 
d="M53 5.5q-5 5.5 -5 17.5v486q0 21 17 21h138q7 0 11.5 -5t4.5 -13v-58q0 -9 7 -9q5 0 9 6q27 38 69 63.5t78 25.5q37 0 37 -19v-134q0 -18 -18 -15q-40 10 -78 10q-36 0 -66.5 -24t-30.5 -53v-279q0 -14 -7 -20t-23 -6h-124q-14 0 -19 5.5z" />
    <glyph glyph-name="s" unicode="s" horiz-adv-x="536" 
d="M269 435q-32 0 -53.5 -12t-21.5 -33q0 -11 9.5 -19.5t37.5 -15.5l110 -25q84 -19 122.5 -62t38.5 -103q0 -82 -67.5 -128.5t-178.5 -46.5q-89 0 -153.5 30.5t-90.5 78.5q-5 8 -5 15q0 8 7 12l78 40q8 4 15 4q8 0 13 -6q24 -30 52.5 -46.5t80.5 -16.5q40 0 65.5 12
t25.5 34q0 14 -12.5 24t-43.5 16l-102 20q-158 31 -158 157q0 51 27.5 91t80.5 62.5t125 22.5q75 0 133 -27.5t82 -67.5q7 -10 7 -17t-7 -10l-82 -40q-6 -3 -10 -3q-9 0 -17 10q-40 50 -108 50z" />
    <glyph glyph-name="t" unicode="t" horiz-adv-x="448" 
d="M299 409q-12 0 -12 -12v-216q0 -30 16.5 -44t52.5 -14h48q7 0 11.5 -5t4.5 -13l-1 -72q0 -21 -26 -26q-45 -7 -127 -7q-72 0 -114.5 34t-42.5 97v261q0 9 -3 13t-11 4h-54q-22 0 -22 20v84q0 17 20 17h64q9 0 11 11l15 150q1 10 4.5 14.5t12.5 4.5h128q18 0 18 -20v-149
q0 -10 10 -10h99q9 0 14.5 -4.5t5.5 -12.5v-85q0 -20 -23 -20h-99z" />
    <glyph glyph-name="u" unicode="u" horiz-adv-x="597" 
d="M328.5 129.5q23.5 13.5 42.5 36.5v338q0 14 7 20t23 6h126q13 0 18.5 -5.5t5.5 -18.5l-4 -486q0 -20 -17 -20h-139q-17 0 -17 18v47q0 6 -3.5 7.5t-7.5 -3.5q-38 -41 -79 -60t-90 -19q-68 0 -110 44t-42 120v349q0 27 28 27h129q12 0 16.5 -5t4.5 -19v-330
q0 -28 16.5 -44t43.5 -16q25 0 48.5 13.5z" />
    <glyph glyph-name="v" unicode="v" horiz-adv-x="583" 
d="M560.5 525q4.5 -5 4.5 -12q0 -3 -2 -9l-196 -481q-5 -12 -13 -17.5t-21 -5.5h-83q-14 0 -22 5.5t-13 17.5l-196 481q-1 2 -1 7q0 8 5 13.5t14 5.5h148q9 0 15.5 -5t9.5 -13l101 -262q3 -9 7 -9t8 10l98 261q9 18 24 18h100q8 0 12.5 -5z" />
    <glyph glyph-name="w" unicode="w" horiz-adv-x="825" 
d="M803 525q5 -5 5 -13l-2 -8l-167 -487q-3 -9 -8 -13t-14 -4h-94q-21 0 -27 20l-75 241q-3 11 -8 11q-4 0 -7 -11l-78 -244q-3 -9 -8 -13t-15 -4h-97q-20 0 -26 20l-162 484l-2 8q0 8 5 13t14 5h137q8 0 15 -5t9 -13l79 -247q2 -10 7 -10q3 0 8 11l75 246q2 8 8.5 13
t14.5 5h98q7 0 14 -5t9 -13l74 -247q2 -10 7 -10q3 0 8 11l77 246q9 18 24 18h89q8 0 13 -5z" />
    <glyph glyph-name="x" unicode="x" horiz-adv-x="607" 
d="M592 11q0 -11 -22 -11h-148q-27 0 -38 18l-90 129q-9 13 -13 13t-13 -12l-91 -130q-11 -18 -38 -18h-94q-12 0 -19.5 4t-7.5 12q0 11 15 30l156 204q8 10 8 15q0 7 -8 18l-158 216q-5 7 -5 13q0 8 6 13t16 5h141q15 0 23 -4t14 -14l78 -114q5 -8 9 -8t9 8l73 114
q7 10 14.5 14t22.5 4h104q19 0 19 -11q0 -7 -6 -15l-143 -194q-7 -8 -7 -15t8 -18l171 -238q14 -20 14 -28z" />
    <glyph glyph-name="y" unicode="y" horiz-adv-x="578" 
d="M57.5 -161.5q-11.5 3.5 -11.5 16.5v90q0 18 28 18h69q30 0 50.5 18t20.5 39q0 4 -2 12l-194 471q-1 3 -1 8q0 8 5 13.5t14 5.5h148q9 0 15.5 -5t9.5 -13l97 -268q3 -10 8 -10t9 10l97 268q9 18 24 18h100q9 0 13.5 -5t4.5 -13l-2 -8l-200 -488q-31 -76 -64 -114.5
t-77 -52.5t-116 -14q-34 0 -45.5 3.5z" />
    <glyph glyph-name="z" unicode="z" horiz-adv-x="532" 
d="M26 5q-5 5 -5 18v42q0 14 3.5 22t16.5 24l227 294q4 4 4 9q0 6 -13 6h-196q-11 0 -15.5 4.5t-4.5 16.5v71q0 8 4.5 13t12.5 5h427q8 0 12.5 -4.5t4.5 -12.5v-48q0 -11 -3 -18.5t-12 -20.5l-232 -297q-5 -7 -5 -10q0 -7 12 -7h222q20 0 20 -17v-75q0 -9 -5.5 -14.5
t-16.5 -5.5h-439q-14 0 -19 5z" />
    <glyph glyph-name="braceleft" unicode="{" horiz-adv-x="387" 
d="M141 683.5q25 29.5 64.5 44t80.5 14.5h72q14 0 14 -12v-72q0 -13 -14 -13h-35q-41 0 -52.5 -13.5t-11.5 -39.5v-196q-1 -47 -34 -70.5t-77 -29.5q-6 -1 -6.5 -3t6.5 -3q109 -9 111 -106v-198q0 -29 13.5 -41.5t50.5 -12.5h32q17 0 17 -15v-65q0 -17 -17 -17h-66
q-43 0 -83 14.5t-65 44t-25 71.5v202q0 38 -26 61t-79 23q-11 0 -11 18v49q0 18 11 18q56 1 80.5 22t24.5 66v188q0 42 25 71.5z" />
    <glyph glyph-name="bar" unicode="|" horiz-adv-x="248" 
d="M86 -165q-13 0 -19 7t-6 22v960q0 13 5.5 18t16.5 5h84q21 0 21 -18v-977q0 -8 -5.5 -12.5t-13.5 -4.5h-83z" />
    <glyph glyph-name="braceright" unicode="}" horiz-adv-x="387" 
d="M271 424q0 -45 24.5 -66t80.5 -22q11 0 11 -18v-49q0 -18 -11 -18q-53 0 -79 -23t-26 -61v-202q0 -42 -25 -71.5t-65 -44t-83 -14.5h-66q-17 0 -17 17v65q0 15 17 15h32q37 0 50.5 12.5t13.5 41.5v198q2 97 111 106q7 1 6.5 3t-6.5 3q-44 6 -77 29.5t-34 70.5v196
q0 26 -11.5 39.5t-52.5 13.5h-35q-14 0 -14 13v72q0 12 14 12h72q41 0 80.5 -14.5t64.5 -44t25 -71.5v-188z" />
    <glyph glyph-name="asciitilde" unicode="~" horiz-adv-x="623" 
d="M498.5 307q-40.5 -23 -83.5 -23q-29 0 -53 9.5t-55 27.5q-29 16 -47.5 23.5t-39.5 7.5q-31 0 -55 -17.5t-55 -50.5q-5 -5 -10 -5t-9 6l-37 61q-2 3 -2 8q0 8 10 18q46 46 81 67.5t79 21.5q30 0 53.5 -9.5t56.5 -28.5q28 -16 44 -23t36 -7q30 0 55 17t44 44q6 8 12 8
q9 0 15 -11l29 -49q4 -5 4 -12t-6 -17q-26 -43 -66.5 -66z" />
    <glyph glyph-name="uni00A0" unicode="&#xa0;" horiz-adv-x="211" 
 />
    <glyph glyph-name="exclamdown" unicode="&#xa1;" horiz-adv-x="271" 
d="M214 349h-156q-8 0 -12.5 5t-4.5 15v138q0 12 5.5 17.5t19.5 5.5h134q17 0 24 -6t7 -21v-135q0 -19 -17 -19zM238 -150q0 -7 -4.5 -11t-11.5 -4h-169q-9 0 -13.5 5.5t-3.5 15.5l44 402q2 12 6.5 17t17.5 5h61q15 0 21.5 -5.5t8.5 -19.5l43 -401v-4z" />
    <glyph glyph-name="cent" unicode="&#xa2;" horiz-adv-x="558" 
d="M533 272q0 -3 -2 -11q-13 -46 -56 -92t-115 -62v-80q0 -14 -6.5 -20.5t-21.5 -6.5h-60q-14 0 -19.5 6t-5.5 18v81q-65 10 -115 46.5t-78 94t-28 128.5q0 72 28 130t78 95t115 48v69q0 14 6.5 20t21.5 6h61q13 0 18.5 -6t5.5 -18v-74q68 -15 112 -58.5t58 -95.5
q2 -8 2 -10q0 -12 -18 -14l-121 -8q-1 0 -2 -0.5t-3 0.5q-8 0 -11 12q-11 32 -26 49.5t-48 17.5q-46 0 -71.5 -40t-25.5 -121q0 -163 106 -163q39 0 61.5 20t46.5 62q2 4 6 5t13 0l84 -18q10 -1 10 -10z" />
    <glyph glyph-name="sterling" unicode="&#xa3;" horiz-adv-x="655" 
d="M12 18v114q0 14 14 14h19q85 0 85 88q0 36 -7 101q-1 10 -12 10h-84q-5 0 -8.5 3.5t-3.5 9.5v70q0 11 12 11h63q12 0 11 13l-8 84q-1 7 -1 22q0 62 33.5 105.5t89 66t121.5 22.5q78 0 147.5 -37.5t101.5 -110.5q1 -2 1 -6q0 -8 -12 -11l-121 -36q-3 -1 -8 -1q-10 0 -14 8
q-23 55 -68 55q-29 0 -46.5 -19.5t-17.5 -53.5q0 -35 11 -90q1 -5 4.5 -8t8.5 -3h120q11 0 11 -10v-73q0 -11 -11 -11h-107q-10 0 -10 -10q1 -53 -8 -94q-9 -46 -44 -80q-5 -5 -5 -9q0 -5 9 -5h98q42 0 66 15.5t37 51.5q4 11 15 11q5 0 8 -1l109 -22q22 -5 17 -23
q-22 -86 -84.5 -132.5t-153.5 -46.5h-361q-17 0 -17 18z" />
    <glyph glyph-name="currency" unicode="&#xa4;" horiz-adv-x="588" 
d="M176 169q-5 3 -9 3t-8 -4l-54 -54q-4 -4 -9 -4t-12 5l-51 52q-4 4 -4 9q0 6 4 10l54 54q4 4 4 9t-3 9q-15 30 -22.5 56t-7.5 58q0 64 31 117q2 3 2 8t-4 9l-54 54q-4 6 -4 9q0 4 4 10l52 53q6 6 11 6q4 0 9 -5l55 -55q4 -3 8 -3l8 2q59 32 116 32q64 0 124 -33q7 -5 11 1
l53 52q5 7 10 0l60 -61q5 -6 0 -12l-53 -53q-4 -3 -1 -10q34 -56 34 -120q0 -71 -35 -122q-2 -4 0 -6l55 -54q6 -7 0 -13l-59 -60q-6 -6 -12 0l-52 53q-5 4 -11 0q-60 -34 -120 -34q-65 0 -120 32zM356.5 267q28.5 17 44.5 45.5t16 60.5t-16 60.5t-44.5 45.5t-62.5 17
t-62.5 -17t-44.5 -45.5t-16 -60.5t16 -60.5t44.5 -45.5t62.5 -17t62.5 17z" />
    <glyph glyph-name="yen" unicode="&#xa5;" horiz-adv-x="675" 
d="M692 731q0 -4 -3 -10l-221 -359h112q8 0 12.5 -5t4.5 -13v-49q0 -13 -7 -19t-23 -6h-122v-74h135q8 0 12.5 -5t4.5 -13v-49q0 -13 -7 -19t-23 -6h-122v-77q0 -15 -7 -21t-23 -6h-148q-13 0 -18.5 5.5t-5.5 17.5v81h-128q-13 0 -18 5t-5 17v49q0 21 17 21h134v74h-128
q-13 0 -18 5t-5 17v49q0 21 17 21h102l-216 354q-4 7 -4 12q0 14 21 14h177q13 0 19 -4t12 -15l135 -241q5 -10 8 -10q5 0 9 9l134 242q6 11 12 15t19 4h139q16 0 16 -11z" />
    <glyph glyph-name="brokenbar" unicode="&#xa6;" horiz-adv-x="248" 
d="M86 426q-13 0 -19 7t-6 22v369q0 13 5.5 18t16.5 5h84q21 0 21 -18v-387q0 -7 -5.5 -11.5t-13.5 -4.5h-83zM86 -165q-13 0 -19 7t-6 22v369q0 13 5 18t17 5h84q21 0 21 -18v-386q0 -8 -5.5 -12.5t-13.5 -4.5h-83z" />
    <glyph glyph-name="section" unicode="&#xa7;" horiz-adv-x="512" 
d="M471 166q21 -31 21 -74q0 -79 -61 -127t-172 -48q-86 0 -147.5 28.5t-85.5 70.5q-6 12 -6 17q0 6 6 10l83 40q6 2 9 2q7 0 17 -10q24 -25 51 -39t69 -14q37 0 58.5 12t21.5 35q0 18 -15 32.5t-55 29.5l-74 27q-89 33 -127.5 71.5t-38.5 99.5q0 46 22 80.5t63 53.5
q-41 26 -58.5 56t-17.5 67q0 47 26 85t74.5 59.5t113.5 21.5q75 0 132 -28t80 -67q7 -11 7 -18t-7 -9l-82 -40q-4 -3 -9 -3q-7 0 -17 10q-24 23 -47 36.5t-52 13.5t-46 -11.5t-17 -31.5q0 -14 11 -24.5t40 -21.5l73 -28q91 -34 130 -72.5t39 -100.5q0 -87 -79 -134
q46 -26 67 -57zM327.5 287q13.5 14 13.5 37q0 21 -14 37.5t-59 33.5l-41 15q-30 -2 -45 -17.5t-15 -37.5q0 -20 14.5 -32.5t59.5 -29.5l46 -18q27 -2 40.5 12z" />
    <glyph glyph-name="dieresis" unicode="&#xa8;" horiz-adv-x="397" 
d="M164 628q0 -23 -26 -23h-108q-11 0 -15.5 5t-4.5 16v97q0 19 15 19h124q15 0 15 -17v-97zM387 628q0 -12 -6.5 -17.5t-20.5 -5.5h-107q-12 0 -16.5 5t-4.5 16v97q0 19 15 19h125q15 0 15 -17v-97z" />
    <glyph glyph-name="copyright" unicode="&#xa9;" horiz-adv-x="830" 
d="M223.5 41q-87.5 51 -138.5 138.5t-51 191.5q0 103 51 190.5t138.5 139t191.5 51.5q103 0 190.5 -51.5t139 -139t51.5 -190.5q0 -104 -51.5 -191.5t-139 -138.5t-190.5 -51q-104 0 -191.5 51zM560 118.5q63 35.5 98 100.5t35 152q0 86 -35 151.5t-98 101.5t-145 36
q-83 0 -146 -36t-97.5 -101.5t-34.5 -151.5q0 -87 34.5 -152t97.5 -100.5t146 -35.5q82 0 145 35.5zM537 547q47 -38 60 -88q1 -3 1 -7q0 -9 -13 -11l-94 -7h-3q-4 0 -6 2.5t-4 8.5q-7 23 -19 37t-37 14q-34 0 -53.5 -30.5t-19.5 -92.5q0 -124 80 -124q30 0 47.5 15.5
t35.5 47.5q3 6 15 3l65 -14q8 -2 8 -7l-2 -8q-7 -26 -28 -54.5t-59.5 -49.5t-92.5 -21q-60 0 -107.5 26.5t-74.5 74.5t-27 109q0 62 27 111t74.5 76t107.5 27q72 0 119 -38z" />
    <glyph glyph-name="ordfeminine" unicode="&#xaa;" horiz-adv-x="389" 
d="M304.5 725q33.5 -26 33.5 -78v-172q0 -19 8 -45q5 -16 -29 -16h-66q-9 0 -11.5 3t-4.5 11l-2 9q-2 5 -5 5t-11 -5q-26 -16 -44 -22.5t-42 -6.5q-52 0 -80.5 26t-28.5 69q0 50 45 80t133 36l20 1q12 2 12 11v10q0 41 -45 41q-39 0 -55 -32q-2 -5 -5 -6.5t-11 0.5l-74 15
q-4 1 -5 7.5t1 10.5q19 39 53 57t99 18q81 -1 114.5 -27zM143.5 485q11.5 -9 32.5 -9q25 0 43 15q13 10 13 24v37q0 12 -12 11l-19 -2q-27 -2 -48 -16t-21 -35q0 -16 11.5 -25z" />
    <glyph glyph-name="guillemotleft" unicode="&#xab;" horiz-adv-x="500" 
d="M247 74q1 -1 1 -4q0 -8 -16 -8h-64q-12 0 -15 10l-99 165q-6 11 -6 20t5 19l100 175q4 6 6.5 8t8.5 2h67q7 0 10.5 -4t0.5 -11l-65 -177q-2 -8 -2 -12t2 -12zM449 74l1 -4q0 -8 -15 -8h-65q-10 0 -15 10l-98 165q-6 11 -6 20t5 19l99 175q4 6 7 8t9 2h66q7 0 10.5 -4
t0.5 -11l-64 -177q-2 -8 -2 -12t2 -12z" />
    <glyph glyph-name="logicalnot" unicode="&#xac;" horiz-adv-x="592" 
d="M544.5 432q4.5 -5 4.5 -13v-244q0 -13 -6 -18.5t-20 -5.5h-95q-12 0 -17 5t-5 16v138h-338q-13 0 -18.5 5t-5.5 17v84q0 21 17 21h472q7 0 11.5 -5z" />
    <glyph glyph-name="uni00AD" unicode="&#xad;" horiz-adv-x="380" 
d="M335 226q0 -14 -7 -20t-23 -6h-236q-14 0 -19 5.5t-5 17.5v83q0 20 17 20l257 1q7 0 11.5 -5.5t4.5 -13.5v-82z" />
    <glyph glyph-name="registered" unicode="&#xae;" horiz-adv-x="545" 
d="M153 307q-55 32 -87 86.5t-32 119.5t32 120t87 87t120 32q64 0 119 -32t87 -87t32 -120t-32 -119.5t-86.5 -86.5t-119.5 -32t-120 32zM393.5 387.5q45.5 46.5 45.5 125.5q0 78 -45.5 125.5t-120.5 47.5q-76 0 -121.5 -47.5t-45.5 -125.5q0 -79 45.5 -125.5t121.5 -46.5
q75 0 120.5 46.5zM379 400q0 -6 -6 -6h-57q-6 0 -9 6l-30 89q-1 2 -3 3.5t-7 1.5h-23q-4 0 -4 -4v-88q0 -8 -10 -8h-49q-7 0 -7 7v222q0 7 5 7h108q45 0 70 -17t25 -48q0 -21 -12 -37t-31 -24q-2 -1 -2 -5l41 -96zM305 544.5q8 6.5 8 17.5t-8.5 17.5t-22.5 6.5h-35
q-7 0 -7 -6v-35q0 -7 5 -7h39q13 0 21 6.5z" />
    <glyph glyph-name="macron" unicode="&#xaf;" horiz-adv-x="409" 
d="M399 650q0 -12 -6 -17t-20 -5h-343q-12 0 -16 4.5t-4 15.5v73q0 18 14 18h361q14 0 14 -16v-73z" />
    <glyph glyph-name="degree" unicode="&#xb0;" horiz-adv-x="464" 
d="M387 587.5q-23 -40.5 -63.5 -63t-91.5 -22.5t-91.5 22.5t-63.5 63t-23 92.5q0 51 23 91.5t63.5 63t91.5 22.5q50 0 91 -23t64 -63t23 -91q0 -52 -23 -92.5zM286 736q-21 22 -56 22q-34 0 -55 -21.5t-21 -55.5q0 -37 20.5 -60t56.5 -23q34 0 55 22.5t21 58.5q0 35 -21 57z
" />
    <glyph glyph-name="plusminus" unicode="&#xb1;" horiz-adv-x="592" 
d="M544.5 523q4.5 -5 4.5 -13v-83q0 -13 -7 -19t-22 -6h-159v-173q0 -7 -5 -11.5t-13 -4.5h-84q-13 0 -19 7t-6 23v158h-166q-13 0 -18.5 5.5t-5.5 17.5v83q0 21 17 21h173v167q0 13 5 18t17 5h84q21 0 21 -17v-173h172q7 0 11.5 -5zM544.5 146q4.5 -5 4.5 -13v-83
q0 -26 -29 -26h-452q-13 0 -18.5 5.5t-5.5 17.5v83q0 21 17 21h472q7 0 11.5 -5z" />
    <glyph glyph-name="uni00B2" unicode="&#xb2;" horiz-adv-x="452" 
d="M183 588q43 37 63 57t27.5 34.5t7.5 31.5q0 25 -17 40t-45 15q-25 0 -45 -15.5t-41 -52.5q-3 -5 -9 -5q-4 0 -10 3l-66 33q-8 5 -8 12q0 6 3 10q34 54 78.5 80t104.5 26q81 0 129.5 -39.5t48.5 -105.5q0 -38 -19.5 -69t-66.5 -65l-113 -83q-4 -1 -4 -4t8 -3h186
q14 0 14 -11v-80q0 -5 -3.5 -9t-10.5 -4h-341q-8 0 -11.5 3t-3.5 11v56q0 5 6 12.5t27 25.5z" />
    <glyph glyph-name="uni00B3" unicode="&#xb3;" horiz-adv-x="467" 
d="M64 782q0 4 3 8q23 30 70 48.5t99 18.5q84 0 133 -34t49 -89q0 -30 -19 -56.5t-53 -37.5q-8 -3 -8 -6t7 -7q40 -13 63.5 -41.5t23.5 -64.5q0 -70 -51 -106.5t-153 -36.5q-56 0 -105.5 22.5t-75.5 58.5q-3 5 -3 9q0 7 8 12l57 40q10 7 15 0q30 -30 53.5 -42t57.5 -12
q33 0 52.5 14.5t19.5 38.5q0 26 -21.5 42t-54.5 17l-54 1q-12 0 -12 10v68q0 8 12 10l43 2q34 1 54 17t20 40q0 19 -17.5 32t-42.5 13q-28 0 -50.5 -10.5t-48.5 -34.5q-5 -5 -8 -5q-1 0 -7 4l-53 50q-3 5 -3 7z" />
    <glyph glyph-name="acute" unicode="&#xb4;" horiz-adv-x="313" 
d="M302 666q2 -8 2 -10q0 -15 -20 -19l-232 -59q-8 -2 -10 -2q-11 0 -17 14l-13 39q-2 3 -2 9q0 9 9 13l237 100q2 1 6 1t8 -3t5 -9z" />
    <glyph glyph-name="paragraph" unicode="&#xb6;" horiz-adv-x="618" 
d="M522 644q-6 0 -9 -3.5t-3 -9.5v-700q0 -16 -14 -16h-75q-9 0 -13.5 4.5t-4.5 11.5v702q0 11 -12 11h-39q-5 0 -8.5 -4t-3.5 -9v-701q0 -15 -14 -15h-78q-14 0 -14 15v369q0 8 -10 9q-85 9 -141.5 64t-56.5 151q0 62 28 111.5t82.5 78.5t129.5 29h296q13 0 13 -12v-75
q0 -6 -3 -8.5t-10 -2.5h-40z" />
    <glyph glyph-name="periodcentered" unicode="&#xb7;" horiz-adv-x="264" 
d="M216 315q0 -13 -6 -18.5t-21 -5.5h-123q-12 0 -17 4.5t-5 15.5v127q0 18 16 18h141q15 0 15 -16v-125z" />
    <glyph glyph-name="cedilla" unicode="&#xb8;" horiz-adv-x="274" 
d="M227 -198.5q-37 -23.5 -91 -23.5q-73 0 -120 24q-9 7 -5 15l16 38q3 8 11 5q42 -23 76 -23q23 0 36 8t13 21q0 20 -20.5 30t-68.5 11q-8 0 -10.5 2t0.5 9l38 87h75l-20 -51l-1 -4q0 -4 7 -4q52 -1 76.5 -25.5t24.5 -56.5q0 -39 -37 -62.5z" />
    <glyph glyph-name="uni00B9" unicode="&#xb9;" horiz-adv-x="367" 
d="M316 462v-69q0 -13 -14 -13h-259q-13 0 -13 12v70q0 6 3 8t9 2h61q2 0 4.5 1.5t2.5 4.5v236q0 9 -10 8l-56 -16h-3q-6 0 -9 3t-3 11v47q0 7 2 10.5t8 6.5l110 55q8 4 15 6t14 2h49q4 0 7 -3.5t3 -8.5v-356q0 -7 6 -7h60q13 0 13 -10z" />
    <glyph glyph-name="ordmasculine" unicode="&#xba;" horiz-adv-x="395" 
d="M321.5 703.5q47.5 -48.5 47.5 -125.5q0 -75 -47.5 -122.5t-124.5 -47.5t-124 47.5t-47 122.5q0 51 22 90.5t61 61.5t88 22q77 0 124.5 -48.5zM154 655.5q-14 -24.5 -14 -74.5q0 -51 14 -75.5t43 -24.5q58 0 58 100q0 99 -58 99q-29 0 -43 -24.5z" />
    <glyph glyph-name="guillemotright" unicode="&#xbb;" horiz-adv-x="500" 
d="M119 257q0 8 -2 12l-65 177q-1 2 -1 6q0 9 12 9h66q6 0 9 -2t7 -8l99 -175q6 -9 6 -19t-7 -20l-98 -165q-5 -10 -15 -10h-64q-19 0 -15 12l66 171q2 4 2 12zM321 257q0 8 -2 12l-65 177q-1 2 -1 5q0 10 12 10h67q6 0 9 -2t6 -8l100 -175q5 -10 5 -19t-6 -20l-98 -165
q-5 -10 -15 -10h-65q-19 0 -15 12l66 171q2 4 2 12z" />
    <glyph glyph-name="onequarter" unicode="&#xbc;" horiz-adv-x="957" 
d="M282 358v-69q0 -13 -14 -13h-259q-13 0 -13 12v70q0 6 3 8t9 2h61q2 0 4.5 1.5t2.5 4.5v236q0 9 -10 8l-56 -16h-3q-6 0 -9 3t-3 11v47q0 7 2 10.5t8 6.5l110 55q8 4 15 6t14 2h49q4 0 7 -3.5t3 -8.5v-356q0 -7 6 -7h60q13 0 13 -10zM226 7q-5 -6 -11 -8.5t-16 -2.5
l-47 1q-9 0 -13.5 4.5t-4.5 11.5t5 15l472 710q5 8 11 10t15 2h60q12 0 12 -8q0 -4 -3 -10zM741 464.5q5 2.5 16 2.5h92q11 0 11 -12v-257q0 -7 7 -7h49q12 0 12 -12v-61q0 -13 -14 -13h-47q-7 0 -7 -8v-81q0 -9 -4 -12.5t-14 -3.5h-96q-8 0 -11.5 3t-3.5 11v85q0 6 -8 6
h-184q-7 0 -11 3.5t-4 9.5v59q0 6 5 14.5t14 19.5l185 242q8 9 13 11.5zM727 191q6 0 6 4v138q0 9 -2 9q-3 0 -7 -7l-99 -136q-3 -3 -3 -5q0 -3 8 -3h97z" />
    <glyph glyph-name="onehalf" unicode="&#xbd;" horiz-adv-x="1007" 
d="M282 358v-69q0 -13 -14 -13h-259q-13 0 -13 12v70q0 6 3 8t9 2h61q2 0 4.5 1.5t2.5 4.5v236q0 9 -10 8l-56 -16h-3q-6 0 -9 3t-3 11v47q0 7 2 10.5t8 6.5l110 55q8 4 15 6t14 2h49q4 0 7 -3.5t3 -8.5v-356q0 -7 6 -7h60q13 0 13 -10zM296 7q-5 -6 -11 -8.5t-16 -2.5
l-47 1q-9 0 -13.5 4.5t-4.5 11.5t5 15l472 710q5 8 11 10t15 2h60q12 0 12 -8q0 -4 -3 -10zM736 204q43 37 63 57t27.5 34.5t7.5 31.5q0 25 -17 40t-45 15q-25 0 -45 -15.5t-41 -52.5q-3 -5 -9 -5q-4 0 -10 3l-66 33q-8 5 -8 12q0 6 3 10q34 54 78.5 80t104.5 26
q81 0 129.5 -39.5t48.5 -105.5q0 -38 -19.5 -69t-66.5 -65l-113 -83q-4 -1 -4 -4t8 -3h186q14 0 14 -11v-80q0 -5 -3.5 -9t-10.5 -4h-341q-8 0 -11.5 3t-3.5 11v56q0 5 6 12.5t27 25.5z" />
    <glyph glyph-name="threequarters" unicode="&#xbe;" horiz-adv-x="1038" 
d="M30 677q0 4 3 8q23 30 70 48.5t99 18.5q84 0 133 -34t49 -89q0 -30 -19 -56.5t-53 -37.5q-8 -3 -8 -6t7 -7q40 -13 63.5 -41.5t23.5 -64.5q0 -70 -51 -106.5t-153 -36.5q-56 0 -105.5 22.5t-75.5 58.5q-3 5 -3 9q0 7 8 12l57 40q10 7 15 0q30 -30 53.5 -42t57.5 -12
q33 0 52.5 14.5t19.5 38.5q0 26 -21.5 42t-54.5 17l-54 1q-12 0 -12 10v68q0 8 12 10l43 2q34 1 54 17t20 40q0 19 -17.5 32t-42.5 13q-28 0 -50.5 -10.5t-48.5 -34.5q-5 -5 -8 -5q-1 0 -7 4l-53 50q-3 5 -3 7zM326 7q-5 -6 -11 -8.5t-16 -2.5l-47 1q-9 0 -13.5 4.5
t-4.5 11.5t5 15l472 710q5 8 11 10t15 2h60q12 0 12 -8q0 -4 -3 -10zM813 464.5q5 2.5 16 2.5h92q11 0 11 -12v-257q0 -7 7 -7h49q12 0 12 -12v-61q0 -13 -14 -13h-47q-7 0 -7 -8v-81q0 -9 -4 -12.5t-14 -3.5h-96q-8 0 -11.5 3t-3.5 11v85q0 6 -8 6h-184q-7 0 -11 3.5
t-4 9.5v59q0 6 5 14.5t14 19.5l185 242q8 9 13 11.5zM799 191q6 0 6 4v138q0 9 -2 9q-3 0 -7 -7l-99 -136q-3 -3 -3 -5q0 -3 8 -3h97z" />
    <glyph glyph-name="questiondown" unicode="&#xbf;" horiz-adv-x="539" 
d="M193 503q0 15 7 21t23 6h136q13 0 18.5 -5.5t5.5 -17.5v-138q0 -20 -18 -20h-155q-17 0 -17 19v135zM538 -8q0 -6 -1 -9q-32 -77 -99 -117.5t-163 -40.5q-81 0 -138 23.5t-85.5 62.5t-28.5 87q0 38 15 65.5t36 46t56 42.5q45 31 66 54t21 58q0 9 6.5 15.5t15.5 6.5h95
q11 0 17 -6.5t6 -19.5q0 -55 -25 -90t-71 -74q-32 -26 -47.5 -45t-15.5 -43q0 -26 22.5 -43.5t55.5 -17.5q35 0 66 21t48 55q5 12 13 12l10 -2l115 -25q10 -2 10 -16z" />
    <glyph glyph-name="Agrave" unicode="&#xc0;" horiz-adv-x="785" 
d="M32.5 5q-4.5 5 -4.5 14q0 7 3 14l246 688q4 12 10 16.5t18 4.5h174q24 0 34 -25l243 -686q1 -3 1 -10q0 -9 -3.5 -15t-10.5 -6h-173q-16 0 -21 16l-44 130q-3 6 -5.5 8.5t-9.5 2.5h-227q-11 0 -14 -11l-47 -132q-5 -14 -22 -14h-135q-8 0 -12.5 5zM445 309q10 0 10 10
q0 6 -1 9l-72 201q-1 6 -6 6q-4 0 -6 -6l-73 -201q-2 -4 -2 -10q0 -9 12 -9h138zM276 963q5 3 11 0l237 -100q10 -5 10 -14l-2 -8l-14 -39q-6 -14 -16 -14q-3 0 -11 2l-232 59q-19 4 -19 19q0 6 2 10l26 74q3 8 8 11z" />
    <glyph glyph-name="Aacute" unicode="&#xc1;" horiz-adv-x="785" 
d="M32.5 5q-4.5 5 -4.5 14q0 7 3 14l246 688q4 12 10 16.5t18 4.5h174q24 0 34 -25l243 -686q1 -3 1 -10q0 -9 -3.5 -15t-10.5 -6h-173q-16 0 -21 16l-44 130q-3 6 -5.5 8.5t-9.5 2.5h-227q-11 0 -14 -11l-47 -132q-5 -14 -22 -14h-135q-8 0 -12.5 5zM445 309q10 0 10 10
q0 6 -1 9l-72 201q-1 6 -6 6q-4 0 -6 -6l-73 -201q-2 -4 -2 -10q0 -9 12 -9h138zM534 878q2 -8 2 -10q0 -15 -20 -19l-232 -59q-8 -2 -10 -2q-11 0 -17 14l-13 39q-2 3 -2 9q0 9 9 13l237 100q2 1 6 1t8 -3t5 -9z" />
    <glyph glyph-name="Acircumflex" unicode="&#xc2;" horiz-adv-x="785" 
d="M32.5 5q-4.5 5 -4.5 14q0 7 3 14l246 688q4 12 10 16.5t18 4.5h174q24 0 34 -25l243 -686q1 -3 1 -10q0 -9 -3.5 -15t-10.5 -6h-173q-16 0 -21 16l-44 130q-3 6 -5.5 8.5t-9.5 2.5h-227q-11 0 -14 -11l-47 -132q-5 -14 -22 -14h-135q-8 0 -12.5 5zM445 309q10 0 10 10
q0 6 -1 9l-72 201q-1 6 -6 6q-4 0 -6 -6l-73 -201q-2 -4 -2 -10q0 -9 12 -9h138zM404 876q-5 6 -9 10t-7 4q-5 0 -16 -14l-49 -54q-5 -6 -9 -7t-15 -1h-91q-9 0 -9 5q0 3 7 12l110 118q6 8 13.5 11t20.5 3h85q16 0 26 -12l109 -120q8 -10 8 -13q0 -4 -9 -4h-97
q-10 0 -15 1.5t-10 6.5z" />
    <glyph glyph-name="Atilde" unicode="&#xc3;" horiz-adv-x="785" 
d="M32.5 5q-4.5 5 -4.5 14q0 7 3 14l246 688q4 12 10 16.5t18 4.5h174q24 0 34 -25l243 -686q1 -3 1 -10q0 -9 -3.5 -15t-10.5 -6h-173q-16 0 -21 16l-44 130q-3 6 -5.5 8.5t-9.5 2.5h-227q-11 0 -14 -11l-47 -132q-5 -14 -22 -14h-135q-8 0 -12.5 5zM445 309q10 0 10 10
q0 6 -1 9l-72 201q-1 6 -6 6q-4 0 -6 -6l-73 -201q-2 -4 -2 -10q0 -9 12 -9h138zM523 838q-25 -8 -54 -8q-19 0 -40 4.5t-40 10.5q-45 15 -75 15q-20 0 -35 -5.5t-34 -18.5q-7 -5 -11 -5q-7 0 -10 12l-16 49q-2 8 -2 10q0 8 9 18q23 19 43.5 29t50.5 10q34 0 90 -18
q47 -15 70 -15q34 0 73 26q5 4 11 4q8 0 11 -12l14 -59l1 -6q0 -11 -14 -21q-17 -12 -42 -20z" />
    <glyph glyph-name="Adieresis" unicode="&#xc4;" horiz-adv-x="785" 
d="M32.5 5q-4.5 5 -4.5 14q0 7 3 14l246 688q4 12 10 16.5t18 4.5h174q24 0 34 -25l243 -686q1 -3 1 -10q0 -9 -3.5 -15t-10.5 -6h-173q-16 0 -21 16l-44 130q-3 6 -5.5 8.5t-9.5 2.5h-227q-11 0 -14 -11l-47 -132q-5 -14 -22 -14h-135q-8 0 -12.5 5zM445 309q10 0 10 10
q0 6 -1 9l-72 201q-1 6 -6 6q-4 0 -6 -6l-73 -201q-2 -4 -2 -10q0 -9 12 -9h138zM354 840q0 -23 -26 -23h-108q-11 0 -15.5 5t-4.5 16v97q0 19 15 19h124q15 0 15 -17v-97zM577 840q0 -12 -6.5 -17.5t-20.5 -5.5h-107q-12 0 -16.5 5t-4.5 16v97q0 19 15 19h125q15 0 15 -17
v-97z" />
    <glyph glyph-name="Aring" unicode="&#xc5;" horiz-adv-x="785" 
d="M757 21q0 -9 -3.5 -15t-10.5 -6h-173q-16 0 -21 16l-44 130q-3 6 -5.5 8.5t-9.5 2.5h-227q-11 0 -14 -11l-47 -132q-5 -14 -22 -14h-135q-8 0 -12.5 5t-4.5 14q0 7 3 14l246 688q4 12 10 16.5t18 4.5h34q-30 14 -48 42.5t-18 63.5q0 46 34 78.5t81 32.5t80.5 -33
t33.5 -80q0 -35 -17.5 -62.5t-47.5 -41.5h42q24 0 34 -25l243 -686q1 -3 1 -10zM351 880q-15 -14 -15 -35q0 -20 15.5 -35t35.5 -15t34.5 15t14.5 35q0 21 -14.5 35t-34.5 14q-21 0 -36 -14zM455 319q0 6 -1 9l-72 201q-1 6 -6 6q-4 0 -6 -6l-73 -201q-2 -4 -2 -10
q0 -9 12 -9h138q10 0 10 10z" />
    <glyph glyph-name="AE" unicode="&#xc6;" horiz-adv-x="1105" 
d="M1064 143q5 -4 5 -13v-110q0 -20 -22 -20h-516q-13 0 -19 5.5t-6 17.5v121q0 13 -12 13h-208q-11 0 -16 -11l-69 -132q-7 -14 -24 -14h-134q-15 0 -15 15q0 8 6 18l362 688q6 12 12.5 16.5t18.5 4.5h616q16 0 16 -19l-1 -104q0 -24 -23 -24h-305q-22 0 -22 -18v-113
q0 -9 5 -14t12 -5h192q20 0 20 -18v-111q0 -6 -4 -10.5t-13 -4.5h-196q-7 0 -11.5 -4t-4.5 -10v-127q0 -7 2.5 -10t9.5 -3h329q10 0 15 -4zM506 328v227q0 10 -3.5 15.5t-9.5 5.5q-13 0 -23 -20l-120 -228q-4 -7 -4 -12q0 -7 10 -7h133q17 0 17 19z" />
    <glyph glyph-name="Ccedilla" unicode="&#xc7;" horiz-adv-x="731" 
d="M697.5 238q3.5 -4 3.5 -14q0 -6 -1 -10q-8 -37 -40 -85.5t-93 -88.5t-147 -48l-15 -38l-1 -4q0 -4 7 -4q52 -1 76.5 -25.5t24.5 -56.5q0 -39 -37 -62.5t-91 -23.5q-73 0 -120 24q-9 7 -5 15l16 38q3 8 11 5q42 -23 76 -23q23 0 36 8t13 21q0 20 -20.5 30t-68.5 11
q-8 0 -10.5 2t0.5 9l32 74q-93 9 -162.5 60t-107 136t-37.5 191q0 113 42.5 197.5t120.5 130t184 45.5q79 0 145 -29t108 -80.5t54 -115.5l2 -17q0 -8 -3 -10.5t-11 -3.5l-156 -11q-9 0 -11.5 3.5t-5.5 14.5q-23 110 -117 110q-141 0 -141 -237q0 -126 35 -182.5t106 -56.5
q56 0 95.5 28.5t65.5 93.5q3 8 15 8q6 0 10 -1l113 -22q6 -2 9.5 -6z" />
    <glyph glyph-name="Egrave" unicode="&#xc8;" horiz-adv-x="663" 
d="M78 742h523q16 0 16 -19v-104q0 -11 -6 -17.5t-18 -6.5h-309q-21 0 -21 -18v-113q0 -9 4.5 -14t11.5 -5h195q19 0 19 -18v-111q0 -15 -16 -15h-199q-15 0 -15 -14v-127q0 -7 2.5 -10t8.5 -3h333q10 0 15 -4t5 -13v-110q0 -20 -21 -20h-521q-13 0 -18.5 5.5t-5.5 17.5v698
q0 21 17 21zM224 963q5 3 11 0l237 -100q10 -5 10 -14l-2 -8l-14 -39q-6 -14 -16 -14q-3 0 -11 2l-232 59q-19 4 -19 19q0 6 2 10l26 74q3 8 8 11z" />
    <glyph glyph-name="Eacute" unicode="&#xc9;" horiz-adv-x="663" 
d="M78 742h523q16 0 16 -19v-104q0 -11 -6 -17.5t-18 -6.5h-309q-21 0 -21 -18v-113q0 -9 4.5 -14t11.5 -5h195q19 0 19 -18v-111q0 -15 -16 -15h-199q-15 0 -15 -14v-127q0 -7 2.5 -10t8.5 -3h333q10 0 15 -4t5 -13v-110q0 -20 -21 -20h-521q-13 0 -18.5 5.5t-5.5 17.5v698
q0 21 17 21zM482 878q2 -8 2 -10q0 -15 -20 -19l-232 -59q-8 -2 -10 -2q-11 0 -17 14l-13 39q-2 3 -2 9q0 9 9 13l237 100q2 1 6 1t8 -3t5 -9z" />
    <glyph glyph-name="Ecircumflex" unicode="&#xca;" horiz-adv-x="663" 
d="M78 742h523q16 0 16 -19v-104q0 -11 -6 -17.5t-18 -6.5h-309q-21 0 -21 -18v-113q0 -9 4.5 -14t11.5 -5h195q19 0 19 -18v-111q0 -15 -16 -15h-199q-15 0 -15 -14v-127q0 -7 2.5 -10t8.5 -3h333q10 0 15 -4t5 -13v-110q0 -20 -21 -20h-521q-13 0 -18.5 5.5t-5.5 17.5v698
q0 21 17 21zM352 876q-5 6 -9 10t-7 4q-5 0 -16 -14l-49 -54q-5 -6 -9 -7t-15 -1h-91q-9 0 -9 5q0 3 7 12l110 118q6 8 13.5 11t20.5 3h85q16 0 26 -12l109 -120q8 -10 8 -13q0 -4 -9 -4h-97q-10 0 -15 1.5t-10 6.5z" />
    <glyph glyph-name="Edieresis" unicode="&#xcb;" horiz-adv-x="663" 
d="M78 742h523q16 0 16 -19v-104q0 -11 -6 -17.5t-18 -6.5h-309q-21 0 -21 -18v-113q0 -9 4.5 -14t11.5 -5h195q19 0 19 -18v-111q0 -15 -16 -15h-199q-15 0 -15 -14v-127q0 -7 2.5 -10t8.5 -3h333q10 0 15 -4t5 -13v-110q0 -20 -21 -20h-521q-13 0 -18.5 5.5t-5.5 17.5v698
q0 21 17 21zM302 840q0 -23 -26 -23h-108q-11 0 -15.5 5t-4.5 16v97q0 19 15 19h124q15 0 15 -17v-97zM525 840q0 -12 -6.5 -17.5t-20.5 -5.5h-107q-12 0 -16.5 5t-4.5 16v97q0 19 15 19h125q15 0 15 -17v-97z" />
    <glyph glyph-name="Igrave" unicode="&#xcc;" horiz-adv-x="323" 
d="M246 742q17 0 17 -19v-696q0 -15 -7 -21t-23 -6h-148q-14 0 -19 5.5t-5 17.5v698q0 10 4.5 15.5t12.5 5.5h168zM49 963q5 3 11 0l237 -100q10 -5 10 -14l-2 -8l-14 -39q-6 -14 -16 -14q-3 0 -11 2l-232 59q-19 4 -19 19q0 6 2 10l26 74q3 8 8 11z" />
    <glyph glyph-name="Iacute" unicode="&#xcd;" horiz-adv-x="323" 
d="M246 742q17 0 17 -19v-696q0 -15 -7 -21t-23 -6h-148q-14 0 -19 5.5t-5 17.5v698q0 10 4.5 15.5t12.5 5.5h168zM307 878q2 -8 2 -10q0 -15 -20 -19l-232 -59q-8 -2 -10 -2q-11 0 -17 14l-13 39q-2 3 -2 9q0 9 9 13l237 100q2 1 6 1t8 -3t5 -9z" />
    <glyph glyph-name="Icircumflex" unicode="&#xce;" horiz-adv-x="323" 
d="M246 742q17 0 17 -19v-696q0 -15 -7 -21t-23 -6h-148q-14 0 -19 5.5t-5 17.5v698q0 10 4.5 15.5t12.5 5.5h168zM177 876q-5 6 -9 10t-7 4q-5 0 -16 -14l-49 -54q-5 -6 -9 -7t-15 -1h-91q-9 0 -9 5q0 3 7 12l110 118q6 8 13.5 11t20.5 3h85q16 0 26 -12l109 -120
q8 -10 8 -13q0 -4 -9 -4h-97q-10 0 -15 1.5t-10 6.5z" />
    <glyph glyph-name="Idieresis" unicode="&#xcf;" horiz-adv-x="323" 
d="M246 742q17 0 17 -19v-696q0 -15 -7 -21t-23 -6h-148q-14 0 -19 5.5t-5 17.5v698q0 10 4.5 15.5t12.5 5.5h168zM127 840q0 -23 -26 -23h-108q-11 0 -15.5 5t-4.5 16v97q0 19 15 19h124q15 0 15 -17v-97zM350 840q0 -12 -6.5 -17.5t-20.5 -5.5h-107q-12 0 -16.5 5t-4.5 16
v97q0 19 15 19h125q15 0 15 -17v-97z" />
    <glyph glyph-name="Eth" unicode="&#xd0;" horiz-adv-x="779" 
d="M642.5 637.5q98.5 -96.5 98.5 -264.5q0 -112 -44.5 -196t-133.5 -130.5t-218 -46.5h-241q-14 0 -20 6t-6 21v274h-29q-13 0 -18 5.5t-5 17.5v84q0 21 17 21h35v290q0 13 5 18t19 5h107q109 0 138 -1q197 -7 295.5 -103.5zM473.5 195.5q55.5 54.5 55.5 179.5
q0 112 -44.5 164t-134.5 59l-61 3q-9 0 -9 -14v-158h123q7 0 12 -5.5t5 -13.5v-83q0 -26 -31 -26h-109v-146q0 -8 2.5 -11t10.5 -3h13q112 0 167.5 54.5z" />
    <glyph glyph-name="Ntilde" unicode="&#xd1;" horiz-adv-x="760" 
d="M685 742q15 0 15 -16v-709q0 -8 -6 -12.5t-15 -4.5h-121q-8 0 -13.5 2.5t-12.5 11.5l-296 408q-4 6 -7 5.5t-3 -6.5v-401v-3q0 -9 -5 -13t-17 -4h-121q-22 0 -22 19v702q0 11 4.5 16t15.5 5h143q12 0 17.5 -3t13.5 -13l266 -375q6 -8 11 -8t5 12v368q0 19 20 19h128z
M517 838q-25 -8 -54 -8q-19 0 -40 4.5t-40 10.5q-45 15 -75 15q-20 0 -35 -5.5t-34 -18.5q-7 -5 -11 -5q-7 0 -10 12l-16 49q-2 8 -2 10q0 8 9 18q23 19 43.5 29t50.5 10q34 0 90 -18q47 -15 70 -15q34 0 73 26q5 4 11 4q8 0 11 -12l14 -59l1 -6q0 -11 -14 -21
q-17 -12 -42 -20z" />
    <glyph glyph-name="Ograve" unicode="&#xd2;" horiz-adv-x="777" 
d="M202.5 36q-79.5 46 -122.5 131.5t-43 201.5t43.5 202.5t123 133.5t185.5 47q105 0 184.5 -47t123 -133.5t43.5 -202.5q0 -115 -43 -200.5t-122.5 -132t-185.5 -46.5q-107 0 -186.5 46zM495.5 185q32.5 55 32.5 181q0 130 -33.5 188.5t-105.5 58.5q-73 0 -106.5 -58.5
t-33.5 -188.5q0 -126 33 -181t108 -55q73 0 105.5 55zM276 963q5 3 11 0l237 -100q10 -5 10 -14l-2 -8l-14 -39q-6 -14 -16 -14q-3 0 -11 2l-232 59q-19 4 -19 19q0 6 2 10l26 74q3 8 8 11z" />
    <glyph glyph-name="Oacute" unicode="&#xd3;" horiz-adv-x="777" 
d="M202.5 36q-79.5 46 -122.5 131.5t-43 201.5t43.5 202.5t123 133.5t185.5 47q105 0 184.5 -47t123 -133.5t43.5 -202.5q0 -115 -43 -200.5t-122.5 -132t-185.5 -46.5q-107 0 -186.5 46zM495.5 185q32.5 55 32.5 181q0 130 -33.5 188.5t-105.5 58.5q-73 0 -106.5 -58.5
t-33.5 -188.5q0 -126 33 -181t108 -55q73 0 105.5 55zM534 878q2 -8 2 -10q0 -15 -20 -19l-232 -59q-8 -2 -10 -2q-11 0 -17 14l-13 39q-2 3 -2 9q0 9 9 13l237 100q2 1 6 1t8 -3t5 -9z" />
    <glyph glyph-name="Ocircumflex" unicode="&#xd4;" horiz-adv-x="777" 
d="M202.5 36q-79.5 46 -122.5 131.5t-43 201.5t43.5 202.5t123 133.5t185.5 47q105 0 184.5 -47t123 -133.5t43.5 -202.5q0 -115 -43 -200.5t-122.5 -132t-185.5 -46.5q-107 0 -186.5 46zM495.5 185q32.5 55 32.5 181q0 130 -33.5 188.5t-105.5 58.5q-73 0 -106.5 -58.5
t-33.5 -188.5q0 -126 33 -181t108 -55q73 0 105.5 55zM404 876q-5 6 -9 10t-7 4q-5 0 -16 -14l-49 -54q-5 -6 -9 -7t-15 -1h-91q-9 0 -9 5q0 3 7 12l110 118q6 8 13.5 11t20.5 3h85q16 0 26 -12l109 -120q8 -10 8 -13q0 -4 -9 -4h-97q-10 0 -15 1.5t-10 6.5z" />
    <glyph glyph-name="Otilde" unicode="&#xd5;" horiz-adv-x="777" 
d="M202.5 36q-79.5 46 -122.5 131.5t-43 201.5t43.5 202.5t123 133.5t185.5 47q105 0 184.5 -47t123 -133.5t43.5 -202.5q0 -115 -43 -200.5t-122.5 -132t-185.5 -46.5q-107 0 -186.5 46zM495.5 185q32.5 55 32.5 181q0 130 -33.5 188.5t-105.5 58.5q-73 0 -106.5 -58.5
t-33.5 -188.5q0 -126 33 -181t108 -55q73 0 105.5 55zM523 838q-25 -8 -54 -8q-19 0 -40 4.5t-40 10.5q-45 15 -75 15q-20 0 -35 -5.5t-34 -18.5q-7 -5 -11 -5q-7 0 -10 12l-16 49q-2 8 -2 10q0 8 9 18q23 19 43.5 29t50.5 10q34 0 90 -18q47 -15 70 -15q34 0 73 26
q5 4 11 4q8 0 11 -12l14 -59l1 -6q0 -11 -14 -21q-17 -12 -42 -20z" />
    <glyph glyph-name="Odieresis" unicode="&#xd6;" horiz-adv-x="777" 
d="M202.5 36q-79.5 46 -122.5 131.5t-43 201.5t43.5 202.5t123 133.5t185.5 47q105 0 184.5 -47t123 -133.5t43.5 -202.5q0 -115 -43 -200.5t-122.5 -132t-185.5 -46.5q-107 0 -186.5 46zM495.5 185q32.5 55 32.5 181q0 130 -33.5 188.5t-105.5 58.5q-73 0 -106.5 -58.5
t-33.5 -188.5q0 -126 33 -181t108 -55q73 0 105.5 55zM354 840q0 -23 -26 -23h-108q-11 0 -15.5 5t-4.5 16v97q0 19 15 19h124q15 0 15 -17v-97zM577 840q0 -12 -6.5 -17.5t-20.5 -5.5h-107q-12 0 -16.5 5t-4.5 16v97q0 19 15 19h125q15 0 15 -17v-97z" />
    <glyph glyph-name="multiply" unicode="&#xd7;" horiz-adv-x="589" 
d="M530 228q5 -5 5 -12q0 -6 -6 -12l-60 -59q-9 -9 -17 -9q-10 0 -21 12l-136 136l-145 -145q-4 -6 -11 -6t-13 6l-59 60q-9 9 -9 17q0 10 12 22l135 135l-141 141q-9 9 -9 16t9 16l59 59q8 8 16 8q6 0 11 -5l145 -145l141 141q9 9 17 9q7 0 15 -8l60 -60q7 -7 7 -15
q0 -7 -5 -12l-145 -145z" />
    <glyph glyph-name="Oslash" unicode="&#xd8;" horiz-adv-x="775" 
d="M769 679q0 -6 -6 -12l-77 -77q53 -94 53 -221q0 -115 -43 -200.5t-122 -132t-185 -46.5q-137 0 -229 75l-59 -59q-11 -11 -20 -11q-10 0 -20 10l-36 37q-11 13 -11 20q0 5 7 14l70 70q-54 93 -54 223q0 116 43.5 202.5t123 133.5t185.5 47q136 0 229 -80l67 66q9 9 18 9
q6 0 10 -4l50 -51q6 -6 6 -13zM255 306l240 245q-32 62 -106 62t-107 -58.5t-33 -188.5q0 -33 6 -60zM521 428l-239 -243q32 -55 107 -55q74 0 105.5 54.5t31.5 181.5q0 40 -5 62z" />
    <glyph glyph-name="Ugrave" unicode="&#xd9;" horiz-adv-x="724" 
d="M592 58q-80 -68 -230 -68q-167 0 -238.5 77.5t-71.5 236.5v417q0 21 18 21h167q17 0 17 -19v-443q0 -77 31.5 -112t91.5 -35q128 0 128 150v438q0 21 18 21h133q16 0 16 -19v-439q0 -158 -80 -226zM264 963q5 3 11 0l237 -100q10 -5 10 -14l-2 -8l-14 -39q-6 -14 -16 -14
q-3 0 -11 2l-232 59q-19 4 -19 19q0 6 2 10l26 74q3 8 8 11z" />
    <glyph glyph-name="Uacute" unicode="&#xda;" horiz-adv-x="724" 
d="M592 58q-80 -68 -230 -68q-167 0 -238.5 77.5t-71.5 236.5v417q0 21 18 21h167q17 0 17 -19v-443q0 -77 31.5 -112t91.5 -35q128 0 128 150v438q0 21 18 21h133q16 0 16 -19v-439q0 -158 -80 -226zM522 878q2 -8 2 -10q0 -15 -20 -19l-232 -59q-8 -2 -10 -2q-11 0 -17 14
l-13 39q-2 3 -2 9q0 9 9 13l237 100q2 1 6 1t8 -3t5 -9z" />
    <glyph glyph-name="Ucircumflex" unicode="&#xdb;" horiz-adv-x="724" 
d="M592 58q-80 -68 -230 -68q-167 0 -238.5 77.5t-71.5 236.5v417q0 21 18 21h167q17 0 17 -19v-443q0 -77 31.5 -112t91.5 -35q128 0 128 150v438q0 21 18 21h133q16 0 16 -19v-439q0 -158 -80 -226zM392 876q-5 6 -9 10t-7 4q-5 0 -16 -14l-49 -54q-5 -6 -9 -7t-15 -1h-91
q-9 0 -9 5q0 3 7 12l110 118q6 8 13.5 11t20.5 3h85q16 0 26 -12l109 -120q8 -10 8 -13q0 -4 -9 -4h-97q-10 0 -15 1.5t-10 6.5z" />
    <glyph glyph-name="Udieresis" unicode="&#xdc;" horiz-adv-x="724" 
d="M592 58q-80 -68 -230 -68q-167 0 -238.5 77.5t-71.5 236.5v417q0 21 18 21h167q17 0 17 -19v-443q0 -77 31.5 -112t91.5 -35q128 0 128 150v438q0 21 18 21h133q16 0 16 -19v-439q0 -158 -80 -226zM342 840q0 -23 -26 -23h-108q-11 0 -15.5 5t-4.5 16v97q0 19 15 19h124
q15 0 15 -17v-97zM565 840q0 -12 -6.5 -17.5t-20.5 -5.5h-107q-12 0 -16.5 5t-4.5 16v97q0 19 15 19h125q15 0 15 -17v-97z" />
    <glyph glyph-name="Yacute" unicode="&#xdd;" horiz-adv-x="755" 
d="M729 731q0 -5 -4 -10l-235 -382q-6 -10 -7.5 -20.5t-1.5 -39.5v-252q0 -15 -7 -21t-23 -6h-148q-13 0 -18.5 5.5t-5.5 17.5v266q0 13 -3 21t-10 20l-235 386q-4 7 -4 12q0 14 21 14h176q13 0 19 -3.5t13 -15.5l135 -241q5 -10 9 -10q3 0 9 9l133 242q5 11 11.5 15t19.5 4
h139q17 0 17 -11zM536 878q2 -8 2 -10q0 -15 -20 -19l-232 -59q-8 -2 -10 -2q-11 0 -17 14l-13 39q-2 3 -2 9q0 9 9 13l237 100q2 1 6 1t8 -3t5 -9z" />
    <glyph glyph-name="Thorn" unicode="&#xde;" horiz-adv-x="734" 
d="M667.5 252q-34.5 -51 -96 -77.5t-142.5 -26.5h-155q-11 0 -11 -11v-111q0 -14 -7 -20t-23 -6h-149q-13 0 -18 5.5t-5 17.5v698q0 10 4.5 15.5t12.5 5.5h168q17 0 17 -19v-108q0 -11 9 -11h133q84 0 151 -26t106.5 -77.5t39.5 -126.5q0 -71 -34.5 -122zM466.5 438.5
q-28.5 22.5 -73.5 22.5h-109q-12 0 -16.5 -4.5t-4.5 -15.5v-130q0 -11 3 -15.5t12 -4.5h121q44 0 70 23.5t26 62.5t-28.5 61.5z" />
    <glyph glyph-name="germandbls" unicode="&#xdf;" horiz-adv-x="663" 
d="M507.5 701q58.5 -41 58.5 -116q0 -53 -32.5 -87.5t-106.5 -65.5q-9 -4 -12.5 -7.5t-3.5 -9.5q0 -5 3.5 -8.5t13.5 -6.5q72 -31 113 -55.5t70 -65.5t29 -103q0 -90 -60.5 -138t-164.5 -48q-74 0 -123 27q-6 4 -7.5 9.5t0.5 10.5l38 80q5 8 11 8q4 0 8 -3
q17 -10 32.5 -15.5t35.5 -5.5q31 0 51 14.5t20 42.5q0 25 -18.5 39t-68.5 34q-51 23 -80.5 56.5t-29.5 84.5q0 37 15.5 63.5t43.5 50.5l15 14q24 22 35.5 37.5t11.5 36.5q0 24 -18.5 39.5t-51.5 15.5q-43 0 -66.5 -26t-23.5 -68v-515q1 -3 1 -7q0 -13 -15 -13h-144
q-16 0 -16 18v351q0 10 -8 10h-31q-20 0 -20 18v84q0 20 21 20h25q8 0 10.5 4t2.5 12q3 97 67.5 161t203.5 64q107 0 165.5 -41z" />
    <glyph glyph-name="agrave" unicode="&#xe0;" horiz-adv-x="568" 
d="M184 -10q-74 0 -118 41t-44 105q0 57 36 100.5t103.5 67.5t159.5 25l20 1q16 0 16 14v19q0 33 -18.5 51t-53.5 18q-28 0 -51.5 -12.5t-38.5 -40.5q-3 -6 -6 -8.5t-9 -2.5t-10 1l-116 24q-10 2 -10 12q0 6 4 17q46 118 245 118q125 0 179 -43.5t54 -122.5v-349
q0 -15 -4 -20t-17 -5h-121q-11 0 -16 8t-8 23l-1 15q-1 9 -7 9t-17 -9q-66 -56 -151 -56zM353.5 243q-3.5 4 -11.5 4l-16 -1q-27 -1 -57.5 -10.5t-52 -29t-21.5 -46.5q0 -26 18.5 -41t49.5 -15q37 0 66 23q28 24 28 44v59q0 9 -3.5 13zM180 751q5 3 11 0l237 -100
q10 -5 10 -14l-2 -8l-14 -39q-6 -14 -16 -14q-3 0 -11 2l-232 59q-19 4 -19 19q0 6 2 10l26 74q3 8 8 11z" />
    <glyph glyph-name="aacute" unicode="&#xe1;" horiz-adv-x="568" 
d="M184 -10q-74 0 -118 41t-44 105q0 57 36 100.5t103.5 67.5t159.5 25l20 1q16 0 16 14v19q0 33 -18.5 51t-53.5 18q-28 0 -51.5 -12.5t-38.5 -40.5q-3 -6 -6 -8.5t-9 -2.5t-10 1l-116 24q-10 2 -10 12q0 6 4 17q46 118 245 118q125 0 179 -43.5t54 -122.5v-349
q0 -15 -4 -20t-17 -5h-121q-11 0 -16 8t-8 23l-1 15q-1 9 -7 9t-17 -9q-66 -56 -151 -56zM353.5 243q-3.5 4 -11.5 4l-16 -1q-27 -1 -57.5 -10.5t-52 -29t-21.5 -46.5q0 -26 18.5 -41t49.5 -15q37 0 66 23q28 24 28 44v59q0 9 -3.5 13zM438 666q2 -8 2 -10q0 -15 -20 -19
l-232 -59q-8 -2 -10 -2q-11 0 -17 14l-13 39q-2 3 -2 9q0 9 9 13l237 100q2 1 6 1t8 -3t5 -9z" />
    <glyph glyph-name="acircumflex" unicode="&#xe2;" horiz-adv-x="568" 
d="M184 -10q-74 0 -118 41t-44 105q0 57 36 100.5t103.5 67.5t159.5 25l20 1q16 0 16 14v19q0 33 -18.5 51t-53.5 18q-28 0 -51.5 -12.5t-38.5 -40.5q-3 -6 -6 -8.5t-9 -2.5t-10 1l-116 24q-10 2 -10 12q0 6 4 17q46 118 245 118q125 0 179 -43.5t54 -122.5v-349
q0 -15 -4 -20t-17 -5h-121q-11 0 -16 8t-8 23l-1 15q-1 9 -7 9t-17 -9q-66 -56 -151 -56zM353.5 243q-3.5 4 -11.5 4l-16 -1q-27 -1 -57.5 -10.5t-52 -29t-21.5 -46.5q0 -26 18.5 -41t49.5 -15q37 0 66 23q28 24 28 44v59q0 9 -3.5 13zM308 664q-5 6 -9 10t-7 4
q-5 0 -16 -14l-49 -54q-5 -6 -9 -7t-15 -1h-91q-9 0 -9 5q0 3 7 12l110 118q6 8 13.5 11t20.5 3h85q16 0 26 -12l109 -120q8 -10 8 -13q0 -4 -9 -4h-97q-10 0 -15 1.5t-10 6.5z" />
    <glyph glyph-name="atilde" unicode="&#xe3;" horiz-adv-x="568" 
d="M184 -10q-74 0 -118 41t-44 105q0 57 36 100.5t103.5 67.5t159.5 25l20 1q16 0 16 14v19q0 33 -18.5 51t-53.5 18q-28 0 -51.5 -12.5t-38.5 -40.5q-3 -6 -6 -8.5t-9 -2.5t-10 1l-116 24q-10 2 -10 12q0 6 4 17q46 118 245 118q125 0 179 -43.5t54 -122.5v-349
q0 -15 -4 -20t-17 -5h-121q-11 0 -16 8t-8 23l-1 15q-1 9 -7 9t-17 -9q-66 -56 -151 -56zM353.5 243q-3.5 4 -11.5 4l-16 -1q-27 -1 -57.5 -10.5t-52 -29t-21.5 -46.5q0 -26 18.5 -41t49.5 -15q37 0 66 23q28 24 28 44v59q0 9 -3.5 13zM427 626q-25 -8 -54 -8q-19 0 -40 4.5
t-40 10.5q-45 15 -75 15q-20 0 -35 -5.5t-34 -18.5q-7 -5 -11 -5q-7 0 -10 12l-16 49q-2 8 -2 10q0 8 9 18q23 19 43.5 29t50.5 10q34 0 90 -18q47 -15 70 -15q34 0 73 26q5 4 11 4q8 0 11 -12l14 -59l1 -6q0 -11 -14 -21q-17 -12 -42 -20z" />
    <glyph glyph-name="adieresis" unicode="&#xe4;" horiz-adv-x="568" 
d="M184 -10q-74 0 -118 41t-44 105q0 57 36 100.5t103.5 67.5t159.5 25l20 1q16 0 16 14v19q0 33 -18.5 51t-53.5 18q-28 0 -51.5 -12.5t-38.5 -40.5q-3 -6 -6 -8.5t-9 -2.5t-10 1l-116 24q-10 2 -10 12q0 6 4 17q46 118 245 118q125 0 179 -43.5t54 -122.5v-349
q0 -15 -4 -20t-17 -5h-121q-11 0 -16 8t-8 23l-1 15q-1 9 -7 9t-17 -9q-66 -56 -151 -56zM353.5 243q-3.5 4 -11.5 4l-16 -1q-27 -1 -57.5 -10.5t-52 -29t-21.5 -46.5q0 -26 18.5 -41t49.5 -15q37 0 66 23q28 24 28 44v59q0 9 -3.5 13zM258 628q0 -23 -26 -23h-108
q-11 0 -15.5 5t-4.5 16v97q0 19 15 19h124q15 0 15 -17v-97zM481 628q0 -12 -6.5 -17.5t-20.5 -5.5h-107q-12 0 -16.5 5t-4.5 16v97q0 19 15 19h125q15 0 15 -17v-97z" />
    <glyph glyph-name="aring" unicode="&#xe5;" horiz-adv-x="568" 
d="M184 -10q-74 0 -118 41t-44 105q0 57 36 100.5t103.5 67.5t159.5 25l20 1q16 0 16 14v19q0 33 -18.5 51t-53.5 18q-28 0 -51.5 -12.5t-38.5 -40.5q-3 -6 -6 -8.5t-9 -2.5t-10 1l-116 24q-10 2 -10 12q0 6 4 17q46 118 245 118q125 0 179 -43.5t54 -122.5v-349
q0 -15 -4 -20t-17 -5h-121q-11 0 -16 8t-8 23l-1 15q-1 9 -7 9t-17 -9q-66 -56 -151 -56zM353.5 243q-3.5 4 -11.5 4l-16 -1q-27 -1 -57.5 -10.5t-52 -29t-21.5 -46.5q0 -26 18.5 -41t49.5 -15q37 0 66 23q28 24 28 44v59q0 9 -3.5 13zM373.5 609.5q-33.5 -33.5 -80.5 -33.5
q-48 0 -81.5 34t-33.5 83q0 46 34 78.5t81 32.5t80.5 -33t33.5 -80q0 -48 -33.5 -81.5zM326.5 725q-14.5 14 -34.5 14q-21 0 -36 -14t-15 -35q0 -20 15.5 -35t35.5 -15t34.5 15t14.5 35q0 21 -14.5 35z" />
    <glyph glyph-name="ae" unicode="&#xe6;" horiz-adv-x="917" 
d="M538 214q0 -48 33 -76.5t83 -28.5q32 0 59.5 14.5t59.5 46.5q4 4 8 4q6 0 11 -2l82 -34q8 -3 8 -11q0 -6 -5 -11q-48 -70 -104.5 -98t-141.5 -28q-64 0 -117.5 23.5t-90.5 62.5q-4 6 -10 0q-44 -44 -95.5 -65t-123.5 -21q-82 0 -127 41t-45 111q0 81 71.5 130t209.5 56
l36 2q18 0 18 14v19q0 33 -18 51t-54 18q-28 0 -51.5 -12.5t-38.5 -40.5q-3 -6 -6 -8.5t-8 -2.5q-6 0 -11 1l-116 24q-4 1 -6 6t-2 11q0 9 2 12q31 61 85 89.5t157 28.5q131 -1 184 -51q66 51 154 51q77 0 137.5 -33.5t94.5 -97.5t34 -152q0 -14 -3 -19t-15 -6h-322
q-16 0 -16 -18zM567.5 406q-27.5 -28 -26.5 -79l163 -1q10 0 13.5 3t3.5 12q0 20 -10 41.5t-29.5 36.5t-46.5 15q-40 0 -67.5 -28zM339 240l-25 -2q-45 -3 -82 -25.5t-37 -58.5q0 -27 18.5 -42t51.5 -15q38 1 65 19t27 46v61q0 17 -18 17z" />
    <glyph glyph-name="ccedilla" unicode="&#xe7;" horiz-adv-x="553" 
d="M533 161q0 -3 -2 -11q-8 -30 -31.5 -63.5t-65.5 -60.5t-100 -34l-15 -38l-1 -4q0 -4 7 -4q52 -1 76.5 -25.5t24.5 -56.5q0 -39 -37 -62.5t-91 -23.5q-73 0 -120 24q-9 7 -5 15l16 38q3 8 11 5q42 -23 76 -23q23 0 36 8t13 21q0 20 -20.5 30t-68.5 11q-8 0 -10.5 2t0.5 9
l32 74q-68 8 -120.5 44.5t-82 95t-29.5 131.5q0 81 35.5 144t97.5 98t139 35q64 0 112.5 -23.5t78.5 -60.5t41 -77q2 -8 2 -10q0 -12 -18 -14l-121 -8q-1 0 -2 -0.5t-3 0.5q-8 0 -11 12q-11 32 -26 49.5t-48 17.5q-46 0 -71.5 -40t-25.5 -121q0 -163 106 -163q39 0 61.5 20
t46.5 62q2 4 6 5t13 0l84 -18q10 -1 10 -10z" />
    <glyph glyph-name="egrave" unicode="&#xe8;" horiz-adv-x="588" 
d="M242 137.5q33 -28.5 84 -28.5q31 0 58.5 14t59.5 47q4 4 9 4t10 -2l82 -34q9 -4 9 -11q0 -4 -5 -11q-50 -72 -106 -99t-141 -27q-78 0 -141 34t-99 94.5t-36 138.5q0 83 37 147.5t99.5 100t136.5 35.5q78 0 138 -33.5t94 -97.5t34 -152q0 -14 -2.5 -19t-14.5 -6h-325
q-14 0 -14 -16q0 -50 33 -78.5zM375 326q10 0 13.5 2.5t3.5 11.5q0 34 -22.5 64t-62.5 30q-42 0 -69 -29t-26 -78zM187 751q5 3 11 0l237 -100q10 -5 10 -14l-2 -8l-14 -39q-6 -14 -16 -14q-3 0 -11 2l-232 59q-19 4 -19 19q0 6 2 10l26 74q3 8 8 11z" />
    <glyph glyph-name="eacute" unicode="&#xe9;" horiz-adv-x="588" 
d="M242 137.5q33 -28.5 84 -28.5q31 0 58.5 14t59.5 47q4 4 9 4t10 -2l82 -34q9 -4 9 -11q0 -4 -5 -11q-50 -72 -106 -99t-141 -27q-78 0 -141 34t-99 94.5t-36 138.5q0 83 37 147.5t99.5 100t136.5 35.5q78 0 138 -33.5t94 -97.5t34 -152q0 -14 -2.5 -19t-14.5 -6h-325
q-14 0 -14 -16q0 -50 33 -78.5zM375 326q10 0 13.5 2.5t3.5 11.5q0 34 -22.5 64t-62.5 30q-42 0 -69 -29t-26 -78zM445 666q2 -8 2 -10q0 -15 -20 -19l-232 -59q-8 -2 -10 -2q-11 0 -17 14l-13 39q-2 3 -2 9q0 9 9 13l237 100q2 1 6 1t8 -3t5 -9z" />
    <glyph glyph-name="ecircumflex" unicode="&#xea;" horiz-adv-x="588" 
d="M242 137.5q33 -28.5 84 -28.5q31 0 58.5 14t59.5 47q4 4 9 4t10 -2l82 -34q9 -4 9 -11q0 -4 -5 -11q-50 -72 -106 -99t-141 -27q-78 0 -141 34t-99 94.5t-36 138.5q0 83 37 147.5t99.5 100t136.5 35.5q78 0 138 -33.5t94 -97.5t34 -152q0 -14 -2.5 -19t-14.5 -6h-325
q-14 0 -14 -16q0 -50 33 -78.5zM375 326q10 0 13.5 2.5t3.5 11.5q0 34 -22.5 64t-62.5 30q-42 0 -69 -29t-26 -78zM315 664q-5 6 -9 10t-7 4q-5 0 -16 -14l-49 -54q-5 -6 -9 -7t-15 -1h-91q-9 0 -9 5q0 3 7 12l110 118q6 8 13.5 11t20.5 3h85q16 0 26 -12l109 -120
q8 -10 8 -13q0 -4 -9 -4h-97q-10 0 -15 1.5t-10 6.5z" />
    <glyph glyph-name="edieresis" unicode="&#xeb;" horiz-adv-x="588" 
d="M242 137.5q33 -28.5 84 -28.5q31 0 58.5 14t59.5 47q4 4 9 4t10 -2l82 -34q9 -4 9 -11q0 -4 -5 -11q-50 -72 -106 -99t-141 -27q-78 0 -141 34t-99 94.5t-36 138.5q0 83 37 147.5t99.5 100t136.5 35.5q78 0 138 -33.5t94 -97.5t34 -152q0 -14 -2.5 -19t-14.5 -6h-325
q-14 0 -14 -16q0 -50 33 -78.5zM375 326q10 0 13.5 2.5t3.5 11.5q0 34 -22.5 64t-62.5 30q-42 0 -69 -29t-26 -78zM265 628q0 -23 -26 -23h-108q-11 0 -15.5 5t-4.5 16v97q0 19 15 19h124q15 0 15 -17v-97zM488 628q0 -12 -6.5 -17.5t-20.5 -5.5h-107q-12 0 -16.5 5t-4.5 16
v97q0 19 15 19h125q15 0 15 -17v-97z" />
    <glyph glyph-name="igrave" unicode="&#xec;" horiz-adv-x="274" 
d="M226 27q0 -15 -7 -21t-23 -6h-124q-14 0 -19 5.5t-5 17.5v486q0 21 18 21h143q17 0 17 -19v-484zM27 751q5 3 11 0l237 -100q10 -5 10 -14l-2 -8l-14 -39q-6 -14 -16 -14q-3 0 -11 2l-232 59q-19 4 -19 19q0 6 2 10l26 74q3 8 8 11z" />
    <glyph glyph-name="iacute" unicode="&#xed;" horiz-adv-x="274" 
d="M226 27q0 -15 -7 -21t-23 -6h-124q-14 0 -19 5.5t-5 17.5v486q0 21 18 21h143q17 0 17 -19v-484zM285 666q2 -8 2 -10q0 -15 -20 -19l-232 -59q-8 -2 -10 -2q-11 0 -17 14l-13 39q-2 3 -2 9q0 9 9 13l237 100q2 1 6 1t8 -3t5 -9z" />
    <glyph glyph-name="icircumflex" unicode="&#xee;" horiz-adv-x="274" 
d="M226 27q0 -15 -7 -21t-23 -6h-124q-14 0 -19 5.5t-5 17.5v486q0 21 18 21h143q17 0 17 -19v-484zM155 664q-5 6 -9 10t-7 4q-5 0 -16 -14l-49 -54q-5 -6 -9 -7t-15 -1h-91q-9 0 -9 5q0 3 7 12l110 118q6 8 13.5 11t20.5 3h85q16 0 26 -12l109 -120q8 -10 8 -13
q0 -4 -9 -4h-97q-10 0 -15 1.5t-10 6.5z" />
    <glyph glyph-name="idieresis" unicode="&#xef;" horiz-adv-x="274" 
d="M226 27q0 -15 -7 -21t-23 -6h-124q-14 0 -19 5.5t-5 17.5v486q0 21 18 21h143q17 0 17 -19v-484zM105 628q0 -23 -26 -23h-108q-11 0 -15.5 5t-4.5 16v97q0 19 15 19h124q15 0 15 -17v-97zM328 628q0 -12 -6.5 -17.5t-20.5 -5.5h-107q-12 0 -16.5 5t-4.5 16v97
q0 19 15 19h125q15 0 15 -17v-97z" />
    <glyph glyph-name="eth" unicode="&#xf0;" 
d="M540 126q-34 -65 -96.5 -100.5t-144.5 -35.5q-80 0 -142 34t-96.5 94t-34.5 134q0 77 35.5 138t98 95.5t139.5 34.5q18 0 25 -5q-31 48 -80 83l-106 -60q-4 -3 -9 -3q-7 0 -14 10l-14 23q-4 5 -4 11t6 9l83 46q-41 21 -87 37q-5 2 -5 7q0 3 4 7l74 61q6 6 11 6q2 0 10 -2
q67 -17 120 -45l79 44q5 3 8 3q6 0 9 -5l20 -36q2 -2 2 -5t-6 -8l-52 -29q97 -67 149 -169t52 -222q0 -87 -34 -152zM394 256q0 74 -24 113t-70 39t-70 -39t-24 -113t23.5 -112t70.5 -38q94 0 94 150z" />
    <glyph glyph-name="ntilde" unicode="&#xf1;" 
d="M53.5 5q-5.5 5 -5.5 18v486q0 21 17 21h142q17 0 17 -18v-48q0 -8 5 -8q3 0 7 4q78 80 164 80q71 0 114.5 -43.5t43.5 -116.5v-353q0 -27 -28 -27h-129q-12 0 -16.5 5t-4.5 18v332q0 27 -17 42.5t-46 15.5q-27 0 -48.5 -13.5t-42.5 -42.5v-331q0 -14 -7 -20t-23 -6h-124
q-13 0 -18.5 5zM438 626q-25 -8 -54 -8q-19 0 -40 4.5t-40 10.5q-45 15 -75 15q-20 0 -35 -5.5t-34 -18.5q-7 -5 -11 -5q-7 0 -10 12l-16 49q-2 8 -2 10q0 8 9 18q23 19 43.5 29t50.5 10q34 0 90 -18q47 -15 70 -15q34 0 73 26q5 4 11 4q8 0 11 -12l14 -59l1 -6
q0 -11 -14 -21q-17 -12 -42 -20z" />
    <glyph glyph-name="ograve" unicode="&#xf2;" 
d="M157 24.5q-62 34.5 -96.5 96.5t-34.5 141q0 81 35.5 144.5t98 98.5t140.5 35q81 0 143 -35.5t96.5 -99t34.5 -143.5q0 -78 -35 -140t-97.5 -97t-142.5 -35t-142 34.5zM371 145q23 39 23 121t-23.5 122t-70.5 40t-70.5 -40t-23.5 -122q0 -81 23.5 -120.5t70.5 -39.5
q48 0 71 39zM187 751q5 3 11 0l237 -100q10 -5 10 -14l-2 -8l-14 -39q-6 -14 -16 -14q-3 0 -11 2l-232 59q-19 4 -19 19q0 6 2 10l26 74q3 8 8 11z" />
    <glyph glyph-name="oacute" unicode="&#xf3;" 
d="M157 24.5q-62 34.5 -96.5 96.5t-34.5 141q0 81 35.5 144.5t98 98.5t140.5 35q81 0 143 -35.5t96.5 -99t34.5 -143.5q0 -78 -35 -140t-97.5 -97t-142.5 -35t-142 34.5zM371 145q23 39 23 121t-23.5 122t-70.5 40t-70.5 -40t-23.5 -122q0 -81 23.5 -120.5t70.5 -39.5
q48 0 71 39zM445 666q2 -8 2 -10q0 -15 -20 -19l-232 -59q-8 -2 -10 -2q-11 0 -17 14l-13 39q-2 3 -2 9q0 9 9 13l237 100q2 1 6 1t8 -3t5 -9z" />
    <glyph glyph-name="ocircumflex" unicode="&#xf4;" 
d="M157 24.5q-62 34.5 -96.5 96.5t-34.5 141q0 81 35.5 144.5t98 98.5t140.5 35q81 0 143 -35.5t96.5 -99t34.5 -143.5q0 -78 -35 -140t-97.5 -97t-142.5 -35t-142 34.5zM371 145q23 39 23 121t-23.5 122t-70.5 40t-70.5 -40t-23.5 -122q0 -81 23.5 -120.5t70.5 -39.5
q48 0 71 39zM315 664q-5 6 -9 10t-7 4q-5 0 -16 -14l-49 -54q-5 -6 -9 -7t-15 -1h-91q-9 0 -9 5q0 3 7 12l110 118q6 8 13.5 11t20.5 3h85q16 0 26 -12l109 -120q8 -10 8 -13q0 -4 -9 -4h-97q-10 0 -15 1.5t-10 6.5z" />
    <glyph glyph-name="otilde" unicode="&#xf5;" 
d="M157 24.5q-62 34.5 -96.5 96.5t-34.5 141q0 81 35.5 144.5t98 98.5t140.5 35q81 0 143 -35.5t96.5 -99t34.5 -143.5q0 -78 -35 -140t-97.5 -97t-142.5 -35t-142 34.5zM371 145q23 39 23 121t-23.5 122t-70.5 40t-70.5 -40t-23.5 -122q0 -81 23.5 -120.5t70.5 -39.5
q48 0 71 39zM434 626q-25 -8 -54 -8q-19 0 -40 4.5t-40 10.5q-45 15 -75 15q-20 0 -35 -5.5t-34 -18.5q-7 -5 -11 -5q-7 0 -10 12l-16 49q-2 8 -2 10q0 8 9 18q23 19 43.5 29t50.5 10q34 0 90 -18q47 -15 70 -15q34 0 73 26q5 4 11 4q8 0 11 -12l14 -59l1 -6q0 -11 -14 -21
q-17 -12 -42 -20z" />
    <glyph glyph-name="odieresis" unicode="&#xf6;" 
d="M157 24.5q-62 34.5 -96.5 96.5t-34.5 141q0 81 35.5 144.5t98 98.5t140.5 35q81 0 143 -35.5t96.5 -99t34.5 -143.5q0 -78 -35 -140t-97.5 -97t-142.5 -35t-142 34.5zM371 145q23 39 23 121t-23.5 122t-70.5 40t-70.5 -40t-23.5 -122q0 -81 23.5 -120.5t70.5 -39.5
q48 0 71 39zM265 628q0 -23 -26 -23h-108q-11 0 -15.5 5t-4.5 16v97q0 19 15 19h124q15 0 15 -17v-97zM488 628q0 -12 -6.5 -17.5t-20.5 -5.5h-107q-12 0 -16.5 5t-4.5 16v97q0 19 15 19h125q15 0 15 -17v-97z" />
    <glyph glyph-name="divide" unicode="&#xf7;" horiz-adv-x="594" 
d="M385 526q0 -13 -6 -18.5t-21 -5.5h-126q-12 0 -17 5.5t-5 16.5v128q0 18 16 18h145q14 0 14 -16v-128zM549 335q0 -13 -7 -19t-22 -6h-452q-13 0 -18.5 5t-5.5 17v84q0 21 17 21h472q7 0 11.5 -5t4.5 -13v-84zM385 100q0 -13 -6 -18t-21 -5h-126q-12 0 -17 4.5t-5 15.5
v129q0 18 16 18h145q14 0 14 -16v-128z" />
    <glyph glyph-name="oslash" unicode="&#xf8;" 
d="M580 479q0 -6 -6 -12l-46 -43q46 -69 46 -162q0 -78 -35 -140t-97.5 -97t-142.5 -35q-102 0 -174 56l-37 -35q-11 -11 -20 -11q-10 0 -19 11l-18 19q-11 13 -11 20q0 6 8 14l43 40q-45 68 -45 158q0 81 35.5 144.5t98 98.5t140.5 35q101 0 174 -57l40 38q9 9 18 9
q6 0 11 -5l31 -33q6 -6 6 -13zM207 232l164 155q-22 41 -71 41q-47 0 -70.5 -40t-23.5 -122q0 -23 1 -34zM393 297l-163 -153q23 -38 70 -38q48 0 71 39t23 121q0 21 -1 31z" />
    <glyph glyph-name="ugrave" unicode="&#xf9;" horiz-adv-x="597" 
d="M328.5 129.5q23.5 13.5 42.5 36.5v338q0 14 7 20t23 6h126q13 0 18.5 -5.5t5.5 -18.5l-4 -486q0 -20 -17 -20h-139q-17 0 -17 18v47q0 6 -3.5 7.5t-7.5 -3.5q-38 -41 -79 -60t-90 -19q-68 0 -110 44t-42 120v349q0 27 28 27h129q12 0 16.5 -5t4.5 -19v-330
q0 -28 16.5 -44t43.5 -16q25 0 48.5 13.5zM182 751q5 3 11 0l237 -100q10 -5 10 -14l-2 -8l-14 -39q-6 -14 -16 -14q-3 0 -11 2l-232 59q-19 4 -19 19q0 6 2 10l26 74q3 8 8 11z" />
    <glyph glyph-name="uacute" unicode="&#xfa;" horiz-adv-x="597" 
d="M328.5 129.5q23.5 13.5 42.5 36.5v338q0 14 7 20t23 6h126q13 0 18.5 -5.5t5.5 -18.5l-4 -486q0 -20 -17 -20h-139q-17 0 -17 18v47q0 6 -3.5 7.5t-7.5 -3.5q-38 -41 -79 -60t-90 -19q-68 0 -110 44t-42 120v349q0 27 28 27h129q12 0 16.5 -5t4.5 -19v-330
q0 -28 16.5 -44t43.5 -16q25 0 48.5 13.5zM440 666q2 -8 2 -10q0 -15 -20 -19l-232 -59q-8 -2 -10 -2q-11 0 -17 14l-13 39q-2 3 -2 9q0 9 9 13l237 100q2 1 6 1t8 -3t5 -9z" />
    <glyph glyph-name="ucircumflex" unicode="&#xfb;" horiz-adv-x="597" 
d="M328.5 129.5q23.5 13.5 42.5 36.5v338q0 14 7 20t23 6h126q13 0 18.5 -5.5t5.5 -18.5l-4 -486q0 -20 -17 -20h-139q-17 0 -17 18v47q0 6 -3.5 7.5t-7.5 -3.5q-38 -41 -79 -60t-90 -19q-68 0 -110 44t-42 120v349q0 27 28 27h129q12 0 16.5 -5t4.5 -19v-330
q0 -28 16.5 -44t43.5 -16q25 0 48.5 13.5zM310 664q-5 6 -9 10t-7 4q-5 0 -16 -14l-49 -54q-5 -6 -9 -7t-15 -1h-91q-9 0 -9 5q0 3 7 12l110 118q6 8 13.5 11t20.5 3h85q16 0 26 -12l109 -120q8 -10 8 -13q0 -4 -9 -4h-97q-10 0 -15 1.5t-10 6.5z" />
    <glyph glyph-name="udieresis" unicode="&#xfc;" horiz-adv-x="597" 
d="M328.5 129.5q23.5 13.5 42.5 36.5v338q0 14 7 20t23 6h126q13 0 18.5 -5.5t5.5 -18.5l-4 -486q0 -20 -17 -20h-139q-17 0 -17 18v47q0 6 -3.5 7.5t-7.5 -3.5q-38 -41 -79 -60t-90 -19q-68 0 -110 44t-42 120v349q0 27 28 27h129q12 0 16.5 -5t4.5 -19v-330
q0 -28 16.5 -44t43.5 -16q25 0 48.5 13.5zM260 628q0 -23 -26 -23h-108q-11 0 -15.5 5t-4.5 16v97q0 19 15 19h124q15 0 15 -17v-97zM483 628q0 -12 -6.5 -17.5t-20.5 -5.5h-107q-12 0 -16.5 5t-4.5 16v97q0 19 15 19h125q15 0 15 -17v-97z" />
    <glyph glyph-name="yacute" unicode="&#xfd;" horiz-adv-x="578" 
d="M57.5 -161.5q-11.5 3.5 -11.5 16.5v90q0 18 28 18h69q30 0 50.5 18t20.5 39q0 4 -2 12l-194 471q-1 3 -1 8q0 8 5 13.5t14 5.5h148q9 0 15.5 -5t9.5 -13l97 -268q3 -10 8 -10t9 10l97 268q9 18 24 18h100q9 0 13.5 -5t4.5 -13l-2 -8l-200 -488q-31 -76 -64 -114.5
t-77 -52.5t-116 -14q-34 0 -45.5 3.5zM461 666q2 -8 2 -10q0 -15 -20 -19l-232 -59q-8 -2 -10 -2q-11 0 -17 14l-13 39q-2 3 -2 9q0 9 9 13l237 100q2 1 6 1t8 -3t5 -9z" />
    <glyph glyph-name="thorn" unicode="&#xfe;" horiz-adv-x="610" 
d="M221 737q5 -5 5 -17v-237q0 -7 6 -7q5 0 9 4q31 29 63.5 44.5t79.5 15.5q90 0 145.5 -69t55.5 -203q0 -140 -57.5 -209t-150.5 -69q-38 0 -70 12t-61 39q-12 10 -15 10q-5 0 -5 -15v-182q0 -19 -17 -19h-144q-17 0 -17 20v863q0 13 5.5 18.5t19.5 5.5h130q13 0 18 -5z
M308 100q47 0 72 39.5t25 133.5q0 87 -24.5 122t-71.5 35q-35 0 -59 -20t-24 -47v-218q34 -45 82 -45z" />
    <glyph glyph-name="ydieresis" unicode="&#xff;" horiz-adv-x="578" 
d="M57.5 -161.5q-11.5 3.5 -11.5 16.5v90q0 18 28 18h69q30 0 50.5 18t20.5 39q0 4 -2 12l-194 471q-1 3 -1 8q0 8 5 13.5t14 5.5h148q9 0 15.5 -5t9.5 -13l97 -268q3 -10 8 -10t9 10l97 268q9 18 24 18h100q9 0 13.5 -5t4.5 -13l-2 -8l-200 -488q-31 -76 -64 -114.5
t-77 -52.5t-116 -14q-34 0 -45.5 3.5zM281 628q0 -23 -26 -23h-108q-11 0 -15.5 5t-4.5 16v97q0 19 15 19h124q15 0 15 -17v-97zM504 628q0 -12 -6.5 -17.5t-20.5 -5.5h-107q-12 0 -16.5 5t-4.5 16v97q0 19 15 19h125q15 0 15 -17v-97z" />
    <glyph glyph-name="Amacron" unicode="&#x100;" horiz-adv-x="785" 
d="M32.5 5q-4.5 5 -4.5 14q0 7 3 14l246 688q4 12 10 16.5t18 4.5h174q24 0 34 -25l243 -686q1 -3 1 -10q0 -9 -3.5 -15t-10.5 -6h-173q-16 0 -21 16l-44 130q-3 6 -5.5 8.5t-9.5 2.5h-227q-11 0 -14 -11l-47 -132q-5 -14 -22 -14h-135q-8 0 -12.5 5zM445 309q10 0 10 10
q0 6 -1 9l-72 201q-1 6 -6 6q-4 0 -6 -6l-73 -201q-2 -4 -2 -10q0 -9 12 -9h138zM583 862q0 -12 -6 -17t-20 -5h-343q-12 0 -16 4.5t-4 15.5v73q0 18 14 18h361q14 0 14 -16v-73z" />
    <glyph glyph-name="amacron" unicode="&#x101;" horiz-adv-x="568" 
d="M184 -10q-74 0 -118 41t-44 105q0 57 36 100.5t103.5 67.5t159.5 25l20 1q16 0 16 14v19q0 33 -18.5 51t-53.5 18q-28 0 -51.5 -12.5t-38.5 -40.5q-3 -6 -6 -8.5t-9 -2.5t-10 1l-116 24q-10 2 -10 12q0 6 4 17q46 118 245 118q125 0 179 -43.5t54 -122.5v-349
q0 -15 -4 -20t-17 -5h-121q-11 0 -16 8t-8 23l-1 15q-1 9 -7 9t-17 -9q-66 -56 -151 -56zM353.5 243q-3.5 4 -11.5 4l-16 -1q-27 -1 -57.5 -10.5t-52 -29t-21.5 -46.5q0 -26 18.5 -41t49.5 -15q37 0 66 23q28 24 28 44v59q0 9 -3.5 13zM487 650q0 -12 -6 -17t-20 -5h-343
q-12 0 -16 4.5t-4 15.5v73q0 18 14 18h361q14 0 14 -16v-73z" />
    <glyph glyph-name="Abreve" unicode="&#x102;" horiz-adv-x="785" 
d="M32.5 5q-4.5 5 -4.5 14q0 7 3 14l246 688q4 12 10 16.5t18 4.5h174q24 0 34 -25l243 -686q1 -3 1 -10q0 -9 -3.5 -15t-10.5 -6h-173q-16 0 -21 16l-44 130q-3 6 -5.5 8.5t-9.5 2.5h-227q-11 0 -14 -11l-47 -132q-5 -14 -22 -14h-135q-8 0 -12.5 5zM445 309q10 0 10 10
q0 6 -1 9l-72 201q-1 6 -6 6q-4 0 -6 -6l-73 -201q-2 -4 -2 -10q0 -9 12 -9h138zM576.5 950q2.5 -4 0.5 -13q-19 -59 -69.5 -91.5t-117.5 -32.5t-118 32t-70 94l-1 5q0 10 11 10h71q8 0 12.5 -2.5t9.5 -10.5q13 -20 36 -33t49 -13q24 0 48 13.5t36 33.5q4 8 8 10t10 2h73
q9 0 11.5 -4z" />
    <glyph glyph-name="abreve" unicode="&#x103;" horiz-adv-x="568" 
d="M184 -10q-74 0 -118 41t-44 105q0 57 36 100.5t103.5 67.5t159.5 25l20 1q16 0 16 14v19q0 33 -18.5 51t-53.5 18q-28 0 -51.5 -12.5t-38.5 -40.5q-3 -6 -6 -8.5t-9 -2.5t-10 1l-116 24q-10 2 -10 12q0 6 4 17q46 118 245 118q125 0 179 -43.5t54 -122.5v-349
q0 -15 -4 -20t-17 -5h-121q-11 0 -16 8t-8 23l-1 15q-1 9 -7 9t-17 -9q-66 -56 -151 -56zM353.5 243q-3.5 4 -11.5 4l-16 -1q-27 -1 -57.5 -10.5t-52 -29t-21.5 -46.5q0 -26 18.5 -41t49.5 -15q37 0 66 23q28 24 28 44v59q0 9 -3.5 13zM480.5 738q2.5 -4 0.5 -13
q-19 -59 -69.5 -91.5t-117.5 -32.5t-118 32t-70 94l-1 5q0 10 11 10h71q8 0 12.5 -2.5t9.5 -10.5q13 -20 36 -33t49 -13q24 0 48 13.5t36 33.5q4 8 8 10t10 2h73q9 0 11.5 -4z" />
    <glyph glyph-name="Aogonek" unicode="&#x104;" horiz-adv-x="785" 
d="M756 -77q7 0 7 -13v-47q0 -11 -9 -17q-15 -8 -43.5 -14t-61.5 -6q-55 0 -86 22t-31 64q0 27 17.5 48.5t62.5 39.5h-42q-16 0 -21 16l-44 130q-3 6 -5.5 8.5t-9.5 2.5h-227q-11 0 -14 -11l-47 -132q-5 -14 -22 -14h-135q-8 0 -12.5 5t-4.5 14q0 7 3 14l246 688
q4 12 10 16.5t18 4.5h174q24 0 34 -25l243 -686q1 -3 1 -10q0 -9 -3.5 -15t-10.5 -6h-5q-46 -17 -63.5 -31.5t-17.5 -33.5q0 -16 7.5 -23t24.5 -7q27 0 57 15q6 3 10 3zM455 319q0 6 -1 9l-72 201q-1 6 -6 6q-4 0 -6 -6l-73 -201q-2 -4 -2 -10q0 -9 12 -9h138q10 0 10 10z
" />
    <glyph glyph-name="aogonek" unicode="&#x105;" horiz-adv-x="568" 
d="M526 -75q7 0 7 -13v-47q0 -11 -9 -17q-15 -8 -43.5 -14t-61.5 -6q-55 0 -86 22t-31 64q0 27 16.5 48t60.5 39q-8 1 -12 9t-7 21l-1 15q-1 9 -7 9t-17 -9q-66 -56 -151 -56q-74 0 -118 41t-44 105q0 57 36 100.5t103.5 67.5t159.5 25l20 1q16 0 16 14v19q0 33 -18.5 51
t-53.5 18q-28 0 -51.5 -12.5t-38.5 -40.5q-3 -6 -6 -8.5t-9 -2.5t-10 1l-116 24q-10 2 -10 12q0 6 4 17q46 118 245 118q125 0 179 -43.5t54 -122.5v-349q0 -15 -4 -20t-17 -5h-2q-43 -16 -59.5 -30.5t-16.5 -32.5q0 -16 7.5 -23t24.5 -7q27 0 57 15q6 3 10 3zM357 230
q0 9 -3.5 13t-11.5 4l-16 -1q-27 -1 -57.5 -10.5t-52 -29t-21.5 -46.5q0 -26 18.5 -41t49.5 -15q37 0 66 23q28 24 28 44v59z" />
    <glyph glyph-name="Cacute" unicode="&#x106;" horiz-adv-x="731" 
d="M529 723q66 -29 108 -80.5t54 -115.5l2 -17q0 -8 -3 -10.5t-11 -3.5l-156 -11q-9 0 -11.5 3.5t-5.5 14.5q-23 110 -117 110q-141 0 -141 -237q0 -126 35 -182.5t106 -56.5q56 0 95.5 28.5t65.5 93.5q3 8 15 8q6 0 10 -1l113 -22q6 -2 9.5 -6t3.5 -14q0 -6 -1 -10
q-8 -40 -44.5 -92t-105 -92t-167.5 -40q-104 0 -182.5 49.5t-121 137.5t-42.5 202q0 113 42.5 197.5t120.5 130t184 45.5q79 0 145 -29zM529 878q2 -8 2 -10q0 -15 -20 -19l-232 -59q-8 -2 -10 -2q-11 0 -17 14l-13 39q-2 3 -2 9q0 9 9 13l237 100q2 1 6 1t8 -3t5 -9z" />
    <glyph glyph-name="cacute" unicode="&#x107;" horiz-adv-x="553" 
d="M410.5 516.5q48.5 -23.5 78.5 -60.5t41 -77q2 -8 2 -10q0 -12 -18 -14l-121 -8q-1 0 -2 -0.5t-3 0.5q-8 0 -11 12q-11 32 -26 49.5t-48 17.5q-46 0 -71.5 -40t-25.5 -121q0 -163 106 -163q39 0 61.5 20t46.5 62q2 4 6 5t13 0l84 -18q10 -1 10 -10q0 -3 -2 -11
q-9 -33 -36.5 -70t-77 -63.5t-119.5 -26.5q-78 0 -140 34.5t-97 96.5t-35 142q0 81 35.5 144t97.5 98t139 35q64 0 112.5 -23.5zM443 666q2 -8 2 -10q0 -15 -20 -19l-232 -59q-8 -2 -10 -2q-11 0 -17 14l-13 39q-2 3 -2 9q0 9 9 13l237 100q2 1 6 1t8 -3t5 -9z" />
    <glyph glyph-name="Ccircumflex" unicode="&#x108;" horiz-adv-x="731" 
d="M529 723q66 -29 108 -80.5t54 -115.5l2 -17q0 -8 -3 -10.5t-11 -3.5l-156 -11q-9 0 -11.5 3.5t-5.5 14.5q-23 110 -117 110q-141 0 -141 -237q0 -126 35 -182.5t106 -56.5q56 0 95.5 28.5t65.5 93.5q3 8 15 8q6 0 10 -1l113 -22q6 -2 9.5 -6t3.5 -14q0 -6 -1 -10
q-8 -40 -44.5 -92t-105 -92t-167.5 -40q-104 0 -182.5 49.5t-121 137.5t-42.5 202q0 113 42.5 197.5t120.5 130t184 45.5q79 0 145 -29zM399 876q-5 6 -9 10t-7 4q-5 0 -16 -14l-49 -54q-5 -6 -9 -7t-15 -1h-91q-9 0 -9 5q0 3 7 12l110 118q6 8 13.5 11t20.5 3h85
q16 0 26 -12l109 -120q8 -10 8 -13q0 -4 -9 -4h-97q-10 0 -15 1.5t-10 6.5z" />
    <glyph glyph-name="ccircumflex" unicode="&#x109;" horiz-adv-x="553" 
d="M410.5 516.5q48.5 -23.5 78.5 -60.5t41 -77q2 -8 2 -10q0 -12 -18 -14l-121 -8q-1 0 -2 -0.5t-3 0.5q-8 0 -11 12q-11 32 -26 49.5t-48 17.5q-46 0 -71.5 -40t-25.5 -121q0 -163 106 -163q39 0 61.5 20t46.5 62q2 4 6 5t13 0l84 -18q10 -1 10 -10q0 -3 -2 -11
q-9 -33 -36.5 -70t-77 -63.5t-119.5 -26.5q-78 0 -140 34.5t-97 96.5t-35 142q0 81 35.5 144t97.5 98t139 35q64 0 112.5 -23.5zM313 664q-5 6 -9 10t-7 4q-5 0 -16 -14l-49 -54q-5 -6 -9 -7t-15 -1h-91q-9 0 -9 5q0 3 7 12l110 118q6 8 13.5 11t20.5 3h85q16 0 26 -12
l109 -120q8 -10 8 -13q0 -4 -9 -4h-97q-10 0 -15 1.5t-10 6.5z" />
    <glyph glyph-name="Cdotaccent" unicode="&#x10a;" horiz-adv-x="731" 
d="M529 723q66 -29 108 -80.5t54 -115.5l2 -17q0 -8 -3 -10.5t-11 -3.5l-156 -11q-9 0 -11.5 3.5t-5.5 14.5q-23 110 -117 110q-141 0 -141 -237q0 -126 35 -182.5t106 -56.5q56 0 95.5 28.5t65.5 93.5q3 8 15 8q6 0 10 -1l113 -22q6 -2 9.5 -6t3.5 -14q0 -6 -1 -10
q-8 -40 -44.5 -92t-105 -92t-167.5 -40q-104 0 -182.5 49.5t-121 137.5t-42.5 202q0 113 42.5 197.5t120.5 130t184 45.5q79 0 145 -29zM473 822q0 -14 -7 -20t-23 -6h-125q-14 0 -19 5.5t-5 17.5v114q0 21 18 21h145q16 0 16 -19v-113z" />
    <glyph glyph-name="cdotaccent" unicode="&#x10b;" horiz-adv-x="553" 
d="M410.5 516.5q48.5 -23.5 78.5 -60.5t41 -77q2 -8 2 -10q0 -12 -18 -14l-121 -8q-1 0 -2 -0.5t-3 0.5q-8 0 -11 12q-11 32 -26 49.5t-48 17.5q-46 0 -71.5 -40t-25.5 -121q0 -163 106 -163q39 0 61.5 20t46.5 62q2 4 6 5t13 0l84 -18q10 -1 10 -10q0 -3 -2 -11
q-9 -33 -36.5 -70t-77 -63.5t-119.5 -26.5q-78 0 -140 34.5t-97 96.5t-35 142q0 81 35.5 144t97.5 98t139 35q64 0 112.5 -23.5zM387 610q0 -14 -7 -20t-23 -6h-125q-14 0 -19 5.5t-5 17.5v114q0 21 18 21h145q16 0 16 -19v-113z" />
    <glyph glyph-name="Ccaron" unicode="&#x10c;" horiz-adv-x="731" 
d="M529 723q66 -29 108 -80.5t54 -115.5l2 -17q0 -8 -3 -10.5t-11 -3.5l-156 -11q-9 0 -11.5 3.5t-5.5 14.5q-23 110 -117 110q-141 0 -141 -237q0 -126 35 -182.5t106 -56.5q56 0 95.5 28.5t65.5 93.5q3 8 15 8q6 0 10 -1l113 -22q6 -2 9.5 -6t3.5 -14q0 -6 -1 -10
q-8 -40 -44.5 -92t-105 -92t-167.5 -40q-104 0 -182.5 49.5t-121 137.5t-42.5 202q0 113 42.5 197.5t120.5 130t184 45.5q79 0 145 -29zM452 953.5q5 1.5 15 1.5h97q9 0 9 -4q0 -3 -8 -13l-109 -121q-12 -12 -26 -12h-85q-22 0 -34 14l-110 119q-7 9 -7 12q0 5 9 5h91h5
q7 0 11 -1.5t8 -7.5l49 -54q10 -13 16 -13q3 0 7 3.5t9 9.5l43 54q5 6 10 7.5z" />
    <glyph glyph-name="ccaron" unicode="&#x10d;" horiz-adv-x="553" 
d="M410.5 516.5q48.5 -23.5 78.5 -60.5t41 -77q2 -8 2 -10q0 -12 -18 -14l-121 -8q-1 0 -2 -0.5t-3 0.5q-8 0 -11 12q-11 32 -26 49.5t-48 17.5q-46 0 -71.5 -40t-25.5 -121q0 -163 106 -163q39 0 61.5 20t46.5 62q2 4 6 5t13 0l84 -18q10 -1 10 -10q0 -3 -2 -11
q-9 -33 -36.5 -70t-77 -63.5t-119.5 -26.5q-78 0 -140 34.5t-97 96.5t-35 142q0 81 35.5 144t97.5 98t139 35q64 0 112.5 -23.5zM366 741.5q5 1.5 15 1.5h97q9 0 9 -4q0 -3 -8 -13l-109 -121q-12 -12 -26 -12h-85q-22 0 -34 14l-110 119q-7 9 -7 12q0 5 9 5h91h5
q7 0 11 -1.5t8 -7.5l49 -54q10 -13 16 -13q3 0 7 3.5t9 9.5l43 54q5 6 10 7.5z" />
    <glyph glyph-name="Dcaron" unicode="&#x10e;" horiz-adv-x="762" 
d="M192 742q109 0 138 -1q197 -7 295.5 -103.5t98.5 -264.5q0 -112 -44.5 -196t-133.5 -130.5t-218 -46.5h-241q-14 0 -20 6t-6 21v692q0 13 5 18t19 5h107zM263 587v-432q0 -8 2.5 -11t10.5 -3h13q112 0 167.5 54.5t55.5 179.5q0 112 -44.5 164t-134.5 59l-61 3
q-9 0 -9 -14zM451 953.5q5 1.5 15 1.5h97q9 0 9 -4q0 -3 -8 -13l-109 -121q-12 -12 -26 -12h-85q-22 0 -34 14l-110 119q-7 9 -7 12q0 5 9 5h91h5q7 0 11 -1.5t8 -7.5l49 -54q10 -13 16 -13q3 0 7 3.5t9 9.5l43 54q5 6 10 7.5z" />
    <glyph glyph-name="dcaron" unicode="&#x10f;" horiz-adv-x="768" 
d="M390 21v24q0 4 -2 6t-4 2q-3 0 -9 -4q-30 -29 -63 -44t-80 -15q-92 0 -148 70t-56 202q0 82 29 145t78 98t107 35q38 0 68 -12t59 -40q6 -6 12 -6q7 0 7 14v227q0 19 16 19h143q18 0 18 -21v-698q0 -12 -5.5 -17.5t-19.5 -5.5h-127q-23 0 -23 21zM348.5 417.5
q-18.5 10.5 -44.5 10.5q-45 0 -70.5 -39.5t-25.5 -125.5q0 -87 24.5 -125.5t70.5 -38.5q35 0 59.5 22t24.5 54v210q-20 22 -38.5 32.5zM625.5 510q-2.5 5 -0.5 10l31 76q2 5 2 11q0 7 -9 8l-11 2q-9 1 -12.5 4.5t-3.5 11.5v94q0 15 13 15h89q5 0 8.5 -3.5t3.5 -8.5v-113
q0 -3 -3 -9l-37 -88q-3 -8 -9 -11.5t-19 -3.5h-34q-6 0 -8.5 5z" />
    <glyph glyph-name="Dcroat" unicode="&#x110;" horiz-adv-x="779" 
d="M642.5 637.5q98.5 -96.5 98.5 -264.5q0 -112 -44.5 -196t-133.5 -130.5t-218 -46.5h-241q-14 0 -20 6t-6 21v274h-29q-13 0 -18 5.5t-5 17.5v84q0 21 17 21h35v290q0 13 5 18t19 5h107q109 0 138 -1q197 -7 295.5 -103.5zM473.5 195.5q55.5 54.5 55.5 179.5
q0 112 -44.5 164t-134.5 59l-61 3q-9 0 -9 -14v-158h123q7 0 12 -5.5t5 -13.5v-83q0 -26 -31 -26h-109v-146q0 -8 2.5 -11t10.5 -3h13q112 0 167.5 54.5z" />
    <glyph glyph-name="dcroat" unicode="&#x111;" horiz-adv-x="623" 
d="M604.5 679.5q3.5 -4.5 3.5 -12.5v-59q0 -22 -26 -22h-17v-563q0 -12 -5.5 -17.5t-19.5 -5.5h-127q-23 0 -23 21v24q0 4 -2 6t-4 2q-3 0 -9 -4q-30 -29 -63 -44t-80 -15q-92 0 -148 70t-56 202q0 82 29 145t78 98t107 35q38 0 68 -12t59 -40q6 -6 12 -6q7 0 7 14v90h-120
q-11 0 -15.5 5t-4.5 16v58q0 9 4 14t11 5h125v39q0 19 16 19h143q18 0 18 -21v-37h29q7 0 10.5 -4.5zM387 385q-20 22 -38.5 32.5t-44.5 10.5q-45 0 -70.5 -39.5t-25.5 -125.5q0 -87 24.5 -125.5t70.5 -38.5q35 0 59.5 22t24.5 54v210z" />
    <glyph glyph-name="Emacron" unicode="&#x112;" horiz-adv-x="663" 
d="M78 742h523q16 0 16 -19v-104q0 -11 -6 -17.5t-18 -6.5h-309q-21 0 -21 -18v-113q0 -9 4.5 -14t11.5 -5h195q19 0 19 -18v-111q0 -15 -16 -15h-199q-15 0 -15 -14v-127q0 -7 2.5 -10t8.5 -3h333q10 0 15 -4t5 -13v-110q0 -20 -21 -20h-521q-13 0 -18.5 5.5t-5.5 17.5v698
q0 21 17 21zM531 862q0 -12 -6 -17t-20 -5h-343q-12 0 -16 4.5t-4 15.5v73q0 18 14 18h361q14 0 14 -16v-73z" />
    <glyph glyph-name="emacron" unicode="&#x113;" horiz-adv-x="588" 
d="M242 137.5q33 -28.5 84 -28.5q31 0 58.5 14t59.5 47q4 4 9 4t10 -2l82 -34q9 -4 9 -11q0 -4 -5 -11q-50 -72 -106 -99t-141 -27q-78 0 -141 34t-99 94.5t-36 138.5q0 83 37 147.5t99.5 100t136.5 35.5q78 0 138 -33.5t94 -97.5t34 -152q0 -14 -2.5 -19t-14.5 -6h-325
q-14 0 -14 -16q0 -50 33 -78.5zM375 326q10 0 13.5 2.5t3.5 11.5q0 34 -22.5 64t-62.5 30q-42 0 -69 -29t-26 -78zM494 650q0 -12 -6 -17t-20 -5h-343q-12 0 -16 4.5t-4 15.5v73q0 18 14 18h361q14 0 14 -16v-73z" />
    <glyph glyph-name="Ebreve" unicode="&#x114;" horiz-adv-x="663" 
d="M78 742h523q16 0 16 -19v-104q0 -11 -6 -17.5t-18 -6.5h-309q-21 0 -21 -18v-113q0 -9 4.5 -14t11.5 -5h195q19 0 19 -18v-111q0 -15 -16 -15h-199q-15 0 -15 -14v-127q0 -7 2.5 -10t8.5 -3h333q10 0 15 -4t5 -13v-110q0 -20 -21 -20h-521q-13 0 -18.5 5.5t-5.5 17.5v698
q0 21 17 21zM524.5 950q2.5 -4 0.5 -13q-19 -59 -69.5 -91.5t-117.5 -32.5t-118 32t-70 94l-1 5q0 10 11 10h71q8 0 12.5 -2.5t9.5 -10.5q13 -20 36 -33t49 -13q24 0 48 13.5t36 33.5q4 8 8 10t10 2h73q9 0 11.5 -4z" />
    <glyph glyph-name="ebreve" unicode="&#x115;" horiz-adv-x="588" 
d="M242 137.5q33 -28.5 84 -28.5q31 0 58.5 14t59.5 47q4 4 9 4t10 -2l82 -34q9 -4 9 -11q0 -4 -5 -11q-50 -72 -106 -99t-141 -27q-78 0 -141 34t-99 94.5t-36 138.5q0 83 37 147.5t99.5 100t136.5 35.5q78 0 138 -33.5t94 -97.5t34 -152q0 -14 -2.5 -19t-14.5 -6h-325
q-14 0 -14 -16q0 -50 33 -78.5zM375 326q10 0 13.5 2.5t3.5 11.5q0 34 -22.5 64t-62.5 30q-42 0 -69 -29t-26 -78zM487.5 738q2.5 -4 0.5 -13q-19 -59 -69.5 -91.5t-117.5 -32.5t-118 32t-70 94l-1 5q0 10 11 10h71q8 0 12.5 -2.5t9.5 -10.5q13 -20 36 -33t49 -13
q24 0 48 13.5t36 33.5q4 8 8 10t10 2h73q9 0 11.5 -4z" />
    <glyph glyph-name="Edotaccent" unicode="&#x116;" horiz-adv-x="663" 
d="M78 742h523q16 0 16 -19v-104q0 -11 -6 -17.5t-18 -6.5h-309q-21 0 -21 -18v-113q0 -9 4.5 -14t11.5 -5h195q19 0 19 -18v-111q0 -15 -16 -15h-199q-15 0 -15 -14v-127q0 -7 2.5 -10t8.5 -3h333q10 0 15 -4t5 -13v-110q0 -20 -21 -20h-521q-13 0 -18.5 5.5t-5.5 17.5v698
q0 21 17 21zM426 822q0 -14 -7 -20t-23 -6h-125q-14 0 -19 5.5t-5 17.5v114q0 21 18 21h145q16 0 16 -19v-113z" />
    <glyph glyph-name="edotaccent" unicode="&#x117;" horiz-adv-x="588" 
d="M242 137.5q33 -28.5 84 -28.5q31 0 58.5 14t59.5 47q4 4 9 4t10 -2l82 -34q9 -4 9 -11q0 -4 -5 -11q-50 -72 -106 -99t-141 -27q-78 0 -141 34t-99 94.5t-36 138.5q0 83 37 147.5t99.5 100t136.5 35.5q78 0 138 -33.5t94 -97.5t34 -152q0 -14 -2.5 -19t-14.5 -6h-325
q-14 0 -14 -16q0 -50 33 -78.5zM375 326q10 0 13.5 2.5t3.5 11.5q0 34 -22.5 64t-62.5 30q-42 0 -69 -29t-26 -78zM394 610q0 -14 -7 -20t-23 -6h-125q-14 0 -19 5.5t-5 17.5v114q0 21 18 21h145q16 0 16 -19v-113z" />
    <glyph glyph-name="Eogonek" unicode="&#x118;" horiz-adv-x="663" 
d="M627 -76q7 0 7 -13v-47q0 -11 -9 -17q-15 -8 -43.5 -14t-61.5 -6q-55 0 -86 22t-31 64q0 27 17 48t61 39h-396q-13 0 -18.5 5.5t-5.5 17.5v698q0 21 17 21h523q16 0 16 -19v-104q0 -11 -6 -17.5t-18 -6.5h-309q-21 0 -21 -18v-113q0 -9 4.5 -14t11.5 -5h195q19 0 19 -18
v-111q0 -15 -16 -15h-199q-15 0 -15 -14v-127q0 -7 2.5 -10t8.5 -3h333q10 0 15 -4t5 -13v-110q0 -9 -5 -14.5t-15 -5.5q-45 -17 -62 -31.5t-17 -32.5q0 -16 7.5 -23t24.5 -7q27 0 57 15q6 3 10 3z" />
    <glyph glyph-name="eogonek" unicode="&#x119;" horiz-adv-x="588" 
d="M209 216q0 -50 33 -78.5t84 -28.5q31 0 58.5 14t59.5 47q4 4 9 4t10 -2l82 -34q9 -4 9 -11q0 -4 -5 -11q-35 -49 -71 -76.5t-81 -39.5q-24 -12 -33.5 -23.5t-9.5 -25.5q0 -16 7.5 -23t24.5 -7q27 0 57 15q6 3 10 3q7 0 7 -13v-47q0 -11 -9 -17q-15 -8 -43.5 -14t-61.5 -6
q-55 0 -86 22t-31 64q0 38 35 64q-69 8 -123 43.5t-84.5 93t-30.5 128.5q0 83 37 147.5t99.5 100t136.5 35.5q78 0 138 -33.5t94 -97.5t34 -152q0 -14 -2.5 -19t-14.5 -6h-325q-14 0 -14 -16zM238 405q-27 -29 -26 -78l163 -1q10 0 13.5 2.5t3.5 11.5q0 34 -22.5 64
t-62.5 30q-42 0 -69 -29z" />
    <glyph glyph-name="Ecaron" unicode="&#x11a;" horiz-adv-x="663" 
d="M78 742h523q16 0 16 -19v-104q0 -11 -6 -17.5t-18 -6.5h-309q-21 0 -21 -18v-113q0 -9 4.5 -14t11.5 -5h195q19 0 19 -18v-111q0 -15 -16 -15h-199q-15 0 -15 -14v-127q0 -7 2.5 -10t8.5 -3h333q10 0 15 -4t5 -13v-110q0 -20 -21 -20h-521q-13 0 -18.5 5.5t-5.5 17.5v698
q0 21 17 21zM405 953.5q5 1.5 15 1.5h97q9 0 9 -4q0 -3 -8 -13l-109 -121q-12 -12 -26 -12h-85q-22 0 -34 14l-110 119q-7 9 -7 12q0 5 9 5h91h5q7 0 11 -1.5t8 -7.5l49 -54q10 -13 16 -13q3 0 7 3.5t9 9.5l43 54q5 6 10 7.5z" />
    <glyph glyph-name="ecaron" unicode="&#x11b;" horiz-adv-x="588" 
d="M242 137.5q33 -28.5 84 -28.5q31 0 58.5 14t59.5 47q4 4 9 4t10 -2l82 -34q9 -4 9 -11q0 -4 -5 -11q-50 -72 -106 -99t-141 -27q-78 0 -141 34t-99 94.5t-36 138.5q0 83 37 147.5t99.5 100t136.5 35.5q78 0 138 -33.5t94 -97.5t34 -152q0 -14 -2.5 -19t-14.5 -6h-325
q-14 0 -14 -16q0 -50 33 -78.5zM375 326q10 0 13.5 2.5t3.5 11.5q0 34 -22.5 64t-62.5 30q-42 0 -69 -29t-26 -78zM368 741.5q5 1.5 15 1.5h97q9 0 9 -4q0 -3 -8 -13l-109 -121q-12 -12 -26 -12h-85q-22 0 -34 14l-110 119q-7 9 -7 12q0 5 9 5h91h5q7 0 11 -1.5t8 -7.5
l49 -54q10 -13 16 -13q3 0 7 3.5t9 9.5l43 54q5 6 10 7.5z" />
    <glyph glyph-name="Gcircumflex" unicode="&#x11c;" horiz-adv-x="757" 
d="M199.5 37.5q-77.5 47.5 -120 133t-42.5 197.5q0 115 44.5 202t124.5 134.5t184 47.5q83 0 149 -30.5t107 -80t53 -104.5l2 -16q0 -9 -3.5 -12t-11.5 -4l-152 -23q-10 0 -13 3.5t-6 14.5q-8 49 -41 81t-88 32q-68 0 -103 -56t-35 -183q0 -133 37 -188.5t108 -55.5
q50 0 81 24.5t44 66.5l2 19q2 6 2 8q0 8 -11 8h-107q-10 0 -14 4t-4 16v86q0 15 19 15l274 -2q16 0 24.5 -7.5t8.5 -19.5v-332q0 -7 -4.5 -11.5t-11.5 -4.5h-35q-19 0 -29 18l-35 64q-2 4 -4.5 3.5t-5.5 -4.5q-38 -41 -84 -66t-124 -25q-102 0 -179.5 47.5zM396 876
q-5 6 -9 10t-7 4q-5 0 -16 -14l-49 -54q-5 -6 -9 -7t-15 -1h-91q-9 0 -9 5q0 3 7 12l110 118q6 8 13.5 11t20.5 3h85q16 0 26 -12l109 -120q8 -10 8 -13q0 -4 -9 -4h-97q-10 0 -15 1.5t-10 6.5z" />
    <glyph glyph-name="gcircumflex" unicode="&#x11d;" horiz-adv-x="643" 
d="M618.5 552q5.5 -6 5.5 -18v-79q0 -15 -6.5 -21.5t-18.5 -3.5q-18 5 -35 5q-8 0 -11 -1q-27 -1 -20 -23q8 -22 8 -38q0 -46 -29 -83t-85.5 -59t-135.5 -22q-52 0 -76 -8t-24 -22q0 -12 12 -16.5t40 -6.5l148 -9q104 -7 155 -45.5t51 -101.5q0 -52 -33.5 -91.5t-99.5 -61.5
t-161 -22q-152 0 -227 31t-75 95q0 31 25.5 51.5t71.5 35.5q6 2 6 5t-6 6q-62 29 -62 78q0 56 103 98q6 3 7.5 5.5t-5.5 6.5q-49 21 -74.5 55.5t-25.5 79.5q0 76 67.5 121t193.5 45q54 0 96 -12t68 -33q6 -5 14 -5q9 0 15 7q19 25 52.5 44t56.5 19q9 0 14.5 -6zM356.5 315
q22.5 22 22.5 55q0 37 -22.5 60t-67.5 23q-42 0 -65.5 -23.5t-23.5 -59.5q0 -33 24 -55t65 -22q45 0 67.5 22zM220 19q-31 2 -52.5 -11.5t-21.5 -33.5q0 -33 38 -50t128 -17q63 0 96.5 16t33.5 44q0 19 -19 31.5t-54 13.5zM318 664q-5 6 -9 10t-7 4q-5 0 -16 -14l-49 -54
q-5 -6 -9 -7t-15 -1h-91q-9 0 -9 5q0 3 7 12l110 118q6 8 13.5 11t20.5 3h85q16 0 26 -12l109 -120q8 -10 8 -13q0 -4 -9 -4h-97q-10 0 -15 1.5t-10 6.5z" />
    <glyph glyph-name="Gbreve" unicode="&#x11e;" horiz-adv-x="757" 
d="M199.5 37.5q-77.5 47.5 -120 133t-42.5 197.5q0 115 44.5 202t124.5 134.5t184 47.5q83 0 149 -30.5t107 -80t53 -104.5l2 -16q0 -9 -3.5 -12t-11.5 -4l-152 -23q-10 0 -13 3.5t-6 14.5q-8 49 -41 81t-88 32q-68 0 -103 -56t-35 -183q0 -133 37 -188.5t108 -55.5
q50 0 81 24.5t44 66.5l2 19q2 6 2 8q0 8 -11 8h-107q-10 0 -14 4t-4 16v86q0 15 19 15l274 -2q16 0 24.5 -7.5t8.5 -19.5v-332q0 -7 -4.5 -11.5t-11.5 -4.5h-35q-19 0 -29 18l-35 64q-2 4 -4.5 3.5t-5.5 -4.5q-38 -41 -84 -66t-124 -25q-102 0 -179.5 47.5zM568.5 950
q2.5 -4 0.5 -13q-19 -59 -69.5 -91.5t-117.5 -32.5t-118 32t-70 94l-1 5q0 10 11 10h71q8 0 12.5 -2.5t9.5 -10.5q13 -20 36 -33t49 -13q24 0 48 13.5t36 33.5q4 8 8 10t10 2h73q9 0 11.5 -4z" />
    <glyph glyph-name="gbreve" unicode="&#x11f;" horiz-adv-x="643" 
d="M618.5 552q5.5 -6 5.5 -18v-79q0 -15 -6.5 -21.5t-18.5 -3.5q-18 5 -35 5q-8 0 -11 -1q-27 -1 -20 -23q8 -22 8 -38q0 -46 -29 -83t-85.5 -59t-135.5 -22q-52 0 -76 -8t-24 -22q0 -12 12 -16.5t40 -6.5l148 -9q104 -7 155 -45.5t51 -101.5q0 -52 -33.5 -91.5t-99.5 -61.5
t-161 -22q-152 0 -227 31t-75 95q0 31 25.5 51.5t71.5 35.5q6 2 6 5t-6 6q-62 29 -62 78q0 56 103 98q6 3 7.5 5.5t-5.5 6.5q-49 21 -74.5 55.5t-25.5 79.5q0 76 67.5 121t193.5 45q54 0 96 -12t68 -33q6 -5 14 -5q9 0 15 7q19 25 52.5 44t56.5 19q9 0 14.5 -6zM356.5 315
q22.5 22 22.5 55q0 37 -22.5 60t-67.5 23q-42 0 -65.5 -23.5t-23.5 -59.5q0 -33 24 -55t65 -22q45 0 67.5 22zM220 19q-31 2 -52.5 -11.5t-21.5 -33.5q0 -33 38 -50t128 -17q63 0 96.5 16t33.5 44q0 19 -19 31.5t-54 13.5zM490.5 738q2.5 -4 0.5 -13q-19 -59 -69.5 -91.5
t-117.5 -32.5t-118 32t-70 94l-1 5q0 10 11 10h71q8 0 12.5 -2.5t9.5 -10.5q13 -20 36 -33t49 -13q24 0 48 13.5t36 33.5q4 8 8 10t10 2h73q9 0 11.5 -4z" />
    <glyph glyph-name="Gdotaccent" unicode="&#x120;" horiz-adv-x="757" 
d="M199.5 37.5q-77.5 47.5 -120 133t-42.5 197.5q0 115 44.5 202t124.5 134.5t184 47.5q83 0 149 -30.5t107 -80t53 -104.5l2 -16q0 -9 -3.5 -12t-11.5 -4l-152 -23q-10 0 -13 3.5t-6 14.5q-8 49 -41 81t-88 32q-68 0 -103 -56t-35 -183q0 -133 37 -188.5t108 -55.5
q50 0 81 24.5t44 66.5l2 19q2 6 2 8q0 8 -11 8h-107q-10 0 -14 4t-4 16v86q0 15 19 15l274 -2q16 0 24.5 -7.5t8.5 -19.5v-332q0 -7 -4.5 -11.5t-11.5 -4.5h-35q-19 0 -29 18l-35 64q-2 4 -4.5 3.5t-5.5 -4.5q-38 -41 -84 -66t-124 -25q-102 0 -179.5 47.5zM470 822
q0 -14 -7 -20t-23 -6h-125q-14 0 -19 5.5t-5 17.5v114q0 21 18 21h145q16 0 16 -19v-113z" />
    <glyph glyph-name="gdotaccent" unicode="&#x121;" horiz-adv-x="643" 
d="M618.5 552q5.5 -6 5.5 -18v-79q0 -15 -6.5 -21.5t-18.5 -3.5q-18 5 -35 5q-8 0 -11 -1q-27 -1 -20 -23q8 -22 8 -38q0 -46 -29 -83t-85.5 -59t-135.5 -22q-52 0 -76 -8t-24 -22q0 -12 12 -16.5t40 -6.5l148 -9q104 -7 155 -45.5t51 -101.5q0 -52 -33.5 -91.5t-99.5 -61.5
t-161 -22q-152 0 -227 31t-75 95q0 31 25.5 51.5t71.5 35.5q6 2 6 5t-6 6q-62 29 -62 78q0 56 103 98q6 3 7.5 5.5t-5.5 6.5q-49 21 -74.5 55.5t-25.5 79.5q0 76 67.5 121t193.5 45q54 0 96 -12t68 -33q6 -5 14 -5q9 0 15 7q19 25 52.5 44t56.5 19q9 0 14.5 -6zM356.5 315
q22.5 22 22.5 55q0 37 -22.5 60t-67.5 23q-42 0 -65.5 -23.5t-23.5 -59.5q0 -33 24 -55t65 -22q45 0 67.5 22zM220 19q-31 2 -52.5 -11.5t-21.5 -33.5q0 -33 38 -50t128 -17q63 0 96.5 16t33.5 44q0 19 -19 31.5t-54 13.5zM392 610q0 -14 -7 -20t-23 -6h-125q-14 0 -19 5.5
t-5 17.5v114q0 21 18 21h145q16 0 16 -19v-113z" />
    <glyph glyph-name="Gcommaaccent" unicode="&#x122;" horiz-adv-x="757" 
d="M199.5 37.5q-77.5 47.5 -120 133t-42.5 197.5q0 115 44.5 202t124.5 134.5t184 47.5q83 0 149 -30.5t107 -80t53 -104.5l2 -16q0 -9 -3.5 -12t-11.5 -4l-152 -23q-10 0 -13 3.5t-6 14.5q-8 49 -41 81t-88 32q-68 0 -103 -56t-35 -183q0 -133 37 -188.5t108 -55.5
q50 0 81 24.5t44 66.5l2 19q2 6 2 8q0 8 -11 8h-107q-10 0 -14 4t-4 16v86q0 15 19 15l274 -2q16 0 24.5 -7.5t8.5 -19.5v-332q0 -7 -4.5 -11.5t-11.5 -4.5h-35q-19 0 -29 18l-35 64q-2 4 -4.5 3.5t-5.5 -4.5q-38 -41 -84 -66t-124 -25q-102 0 -179.5 47.5zM329 -238.5
q-4 6.5 0 12.5l32 46q5 6 5 13q0 13 -13 13h-9q-12 0 -16.5 4.5t-4.5 15.5v62q0 18 16 18h88q15 0 15 -14v-86q0 -3 -1.5 -6.5t-2.5 -5.5l-50 -66q-6 -8 -12 -10.5t-19 -2.5h-17q-7 0 -11 6.5z" />
    <glyph glyph-name="gcommaaccent" unicode="&#x123;" horiz-adv-x="643" 
d="M241 618v86q0 3 3 12l51 66q5 7 11.5 10t18.5 3h18q7 0 11 -6.5t0 -12.5l-32 -46q-5 -6 -5 -14q0 -5 3.5 -8.5t9.5 -3.5h9q11 0 16 -4.5t5 -15.5v-62q0 -18 -17 -18h-87q-15 0 -15 14zM618.5 552q5.5 -6 5.5 -18v-79q0 -15 -6.5 -21.5t-18.5 -3.5q-18 5 -35 5
q-8 0 -11 -1q-27 -1 -20 -23q8 -22 8 -38q0 -46 -29 -83t-85.5 -59t-135.5 -22q-52 0 -76 -8t-24 -22q0 -12 12 -16.5t40 -6.5l148 -9q104 -7 155 -45.5t51 -101.5q0 -52 -33.5 -91.5t-99.5 -61.5t-161 -22q-152 0 -227 31t-75 95q0 31 25.5 51.5t71.5 35.5q6 2 6 5t-6 6
q-62 29 -62 78q0 56 103 98q6 3 7.5 5.5t-5.5 6.5q-49 21 -74.5 55.5t-25.5 79.5q0 76 67.5 121t193.5 45q54 0 96 -12t68 -33q6 -5 14 -5q9 0 15 7q19 25 52.5 44t56.5 19q9 0 14.5 -6zM356.5 315q22.5 22 22.5 55q0 37 -22.5 60t-67.5 23q-42 0 -65.5 -23.5t-23.5 -59.5
q0 -33 24 -55t65 -22q45 0 67.5 22zM220 19q-31 2 -52.5 -11.5t-21.5 -33.5q0 -33 38 -50t128 -17q63 0 96.5 16t33.5 44q0 19 -19 31.5t-54 13.5z" />
    <glyph glyph-name="Hcircumflex" unicode="&#x124;" horiz-adv-x="757" 
d="M277 306q-6 0 -10 -3.5t-4 -9.5v-267q0 -14 -7 -20t-23 -6h-148q-14 0 -19 5.5t-5 17.5v698q0 10 4.5 15.5t12.5 5.5h168q8 0 12.5 -5t4.5 -14v-244q0 -19 16 -19h199q16 0 16 19v244q0 9 4.5 14t12.5 5h168q8 0 12.5 -5.5t4.5 -15.5v-698q0 -12 -5 -17.5t-19 -5.5h-148
q-16 0 -23 6t-7 20v267q0 6 -3.5 9.5t-10.5 3.5h-203zM393 876q-5 6 -9 10t-7 4q-5 0 -16 -14l-49 -54q-5 -6 -9 -7t-15 -1h-91q-9 0 -9 5q0 3 7 12l110 118q6 8 13.5 11t20.5 3h85q16 0 26 -12l109 -120q8 -10 8 -13q0 -4 -9 -4h-97q-10 0 -15 1.5t-10 6.5z" />
    <glyph glyph-name="hcircumflex" unicode="&#x125;" horiz-adv-x="601" 
d="M54 5q-5 5 -5 18v698q0 21 17 21h141q17 0 17 -19v-253q0 -7 4 -7q3 0 8 3q44 40 83 57t82 17q75 0 116 -42.5t41 -120.5v-350q0 -27 -28 -27h-129q-12 0 -16.5 5t-4.5 18v332q0 27 -16.5 42.5t-45.5 15.5q-27 0 -48.5 -13.5t-42.5 -42.5v-331q0 -14 -7 -20t-23 -6h-125
q-13 0 -18 5zM312 877q-5 6 -9 10t-7 4q-5 0 -16 -14l-49 -54q-5 -6 -9 -7t-15 -1h-91q-9 0 -9 5q0 3 7 12l110 118q6 8 13.5 11t20.5 3h85q16 0 26 -12l109 -120q8 -10 8 -13q0 -4 -9 -4h-97q-10 0 -15 1.5t-10 6.5z" />
    <glyph glyph-name="Hbar" unicode="&#x126;" horiz-adv-x="786" 
d="M782 648.5q4 -4.5 4 -12.5v-56q0 -22 -27 -22h-42v-535q0 -12 -5 -17.5t-19 -5.5h-148q-16 0 -23 6t-7 20v267q0 6 -3.5 9.5t-10.5 3.5h-203q-6 0 -10 -3.5t-4 -9.5v-267q0 -14 -7 -20t-23 -6h-148q-14 0 -19 5.5t-5 17.5v535h-61q-11 0 -15.5 5t-4.5 16v55q0 19 14 19
h67v68q0 10 4.5 15.5t12.5 5.5h168q8 0 12.5 -5t4.5 -14v-70h231v70q0 9 4.5 14t12.5 5h168q8 0 12.5 -5.5t4.5 -15.5v-68h54q7 0 11 -4.5zM515 558h-231v-79q0 -19 16 -19h199q16 0 16 19v79z" />
    <glyph glyph-name="hbar" unicode="&#x127;" horiz-adv-x="604" 
d="M520 497.5q41 -42.5 41 -120.5v-350q0 -27 -28 -27h-129q-12 0 -16.5 5t-4.5 18v332q0 27 -16.5 42.5t-45.5 15.5q-27 0 -48.5 -13.5t-42.5 -42.5v-331q0 -14 -7 -20t-23 -6h-125q-13 0 -18 5t-5 18v563h-27q-11 0 -15.5 5t-4.5 16v58q0 9 4 14t11 5h32v37q0 21 17 21
h141q17 0 17 -19v-39h124q7 0 10.5 -4.5t3.5 -12.5v-59q0 -22 -26 -22h-112v-116q0 -7 4 -7q3 0 8 3q44 40 83 57t82 17q75 0 116 -42.5z" />
    <glyph glyph-name="Itilde" unicode="&#x128;" horiz-adv-x="323" 
d="M246 742q17 0 17 -19v-696q0 -15 -7 -21t-23 -6h-148q-14 0 -19 5.5t-5 17.5v698q0 10 4.5 15.5t12.5 5.5h168zM296 838q-25 -8 -54 -8q-19 0 -40 4.5t-40 10.5q-45 15 -75 15q-20 0 -35 -5.5t-34 -18.5q-7 -5 -11 -5q-7 0 -10 12l-16 49q-2 8 -2 10q0 8 9 18
q23 19 43.5 29t50.5 10q34 0 90 -18q47 -15 70 -15q34 0 73 26q5 4 11 4q8 0 11 -12l14 -59l1 -6q0 -11 -14 -21q-17 -12 -42 -20z" />
    <glyph glyph-name="itilde" unicode="&#x129;" horiz-adv-x="274" 
d="M226 27q0 -15 -7 -21t-23 -6h-124q-14 0 -19 5.5t-5 17.5v486q0 21 18 21h143q17 0 17 -19v-484zM274 626q-25 -8 -54 -8q-19 0 -40 4.5t-40 10.5q-45 15 -75 15q-20 0 -35 -5.5t-34 -18.5q-7 -5 -11 -5q-7 0 -10 12l-16 49q-2 8 -2 10q0 8 9 18q23 19 43.5 29t50.5 10
q34 0 90 -18q47 -15 70 -15q34 0 73 26q5 4 11 4q8 0 11 -12l14 -59l1 -6q0 -11 -14 -21q-17 -12 -42 -20z" />
    <glyph glyph-name="Imacron" unicode="&#x12a;" horiz-adv-x="323" 
d="M246 742q17 0 17 -19v-696q0 -15 -7 -21t-23 -6h-148q-14 0 -19 5.5t-5 17.5v698q0 10 4.5 15.5t12.5 5.5h168zM356 862q0 -12 -6 -17t-20 -5h-343q-12 0 -16 4.5t-4 15.5v73q0 18 14 18h361q14 0 14 -16v-73z" />
    <glyph glyph-name="imacron" unicode="&#x12b;" horiz-adv-x="274" 
d="M226 27q0 -15 -7 -21t-23 -6h-124q-14 0 -19 5.5t-5 17.5v486q0 21 18 21h143q17 0 17 -19v-484zM334 650q0 -12 -6 -17t-20 -5h-343q-12 0 -16 4.5t-4 15.5v73q0 18 14 18h361q14 0 14 -16v-73z" />
    <glyph glyph-name="Ibreve" unicode="&#x12c;" horiz-adv-x="323" 
d="M246 742q17 0 17 -19v-696q0 -15 -7 -21t-23 -6h-148q-14 0 -19 5.5t-5 17.5v698q0 10 4.5 15.5t12.5 5.5h168zM349.5 950q2.5 -4 0.5 -13q-19 -59 -69.5 -91.5t-117.5 -32.5t-118 32t-70 94l-1 5q0 10 11 10h71q8 0 12.5 -2.5t9.5 -10.5q13 -20 36 -33t49 -13
q24 0 48 13.5t36 33.5q4 8 8 10t10 2h73q9 0 11.5 -4z" />
    <glyph glyph-name="ibreve" unicode="&#x12d;" horiz-adv-x="274" 
d="M226 27q0 -15 -7 -21t-23 -6h-124q-14 0 -19 5.5t-5 17.5v486q0 21 18 21h143q17 0 17 -19v-484zM327.5 738q2.5 -4 0.5 -13q-19 -59 -69.5 -91.5t-117.5 -32.5t-118 32t-70 94l-1 5q0 10 11 10h71q8 0 12.5 -2.5t9.5 -10.5q13 -20 36 -33t49 -13q24 0 48 13.5t36 33.5
q4 8 8 10t10 2h73q9 0 11.5 -4z" />
    <glyph glyph-name="Iogonek" unicode="&#x12e;" horiz-adv-x="323" 
d="M259 -76q7 0 7 -13v-47q0 -11 -9 -17q-15 -8 -43.5 -14t-61.5 -6q-55 0 -86 22t-31 64q0 27 17 48t61 39h-28q-14 0 -19 5.5t-5 17.5v698q0 10 4.5 15.5t12.5 5.5h168q17 0 17 -19v-696q0 -13 -5.5 -19t-18.5 -8q-44 -16 -61.5 -31t-17.5 -33q0 -16 7.5 -23t24.5 -7
q27 0 57 15q6 3 10 3z" />
    <glyph glyph-name="iogonek" unicode="&#x12f;" horiz-adv-x="274" 
d="M55 589.5q-5 5.5 -5 17.5v114q0 21 18 21h145q16 0 16 -19v-113q0 -14 -7 -20t-23 -6h-125q-14 0 -19 5.5zM226 -76q7 0 7 -13v-47q0 -11 -9 -17q-15 -8 -43.5 -14t-61.5 -6q-55 0 -86 22t-31 64q0 27 17 48t61 39h-8q-14 0 -19 5.5t-5 17.5v486q0 21 18 21h143
q17 0 17 -19v-484q0 -16 -8 -22h2l-6 -2l-4 -2q-47 -17 -65 -31.5t-18 -33.5q0 -16 7.5 -23t24.5 -7q27 0 57 15q6 3 10 3z" />
    <glyph glyph-name="Idotaccent" unicode="&#x130;" horiz-adv-x="323" 
d="M246 742q17 0 17 -19v-696q0 -15 -7 -21t-23 -6h-148q-14 0 -19 5.5t-5 17.5v698q0 10 4.5 15.5t12.5 5.5h168zM251 822q0 -14 -7 -20t-23 -6h-125q-14 0 -19 5.5t-5 17.5v114q0 21 18 21h145q16 0 16 -19v-113z" />
    <glyph glyph-name="dotlessi" unicode="&#x131;" horiz-adv-x="274" 
d="M226 27q0 -15 -7 -21t-23 -6h-124q-14 0 -19 5.5t-5 17.5v486q0 21 18 21h143q17 0 17 -19v-484z" />
    <glyph glyph-name="IJ" unicode="&#x132;" horiz-adv-x="781" 
d="M246 742q17 0 17 -19v-696q0 -15 -7 -21t-23 -6h-148q-14 0 -19 5.5t-5 17.5v698q0 10 4.5 15.5t12.5 5.5h168zM670.5 39.5q-54.5 -49.5 -168.5 -49.5q-52 0 -122 14q-16 3 -22 11.5t-5 26.5l9 103q2 23 22 20q6 -1 23 -5t37 -4q40 0 59.5 22t19.5 74v469q0 21 18 21h167
q17 0 17 -19v-520q0 -114 -54.5 -163.5z" />
    <glyph glyph-name="ij" unicode="&#x133;" horiz-adv-x="549" 
d="M227 611q0 -14 -7.5 -20.5t-23.5 -6.5h-125q-13 0 -18.5 6t-5.5 18v112q0 10 5 16t13 6h144q8 0 13 -5.5t5 -14.5v-111zM226 27q0 -15 -7 -21t-23 -6h-124q-14 0 -19 5.5t-5 17.5v486q0 21 18 21h143q17 0 17 -19v-484zM501 611q0 -14 -6.5 -20.5t-22.5 -6.5h-125
q-14 0 -19.5 6t-5.5 18v112q0 10 5.5 16t13.5 6h143q17 0 17 -20v-111zM452.5 -123q-48.5 -47 -148.5 -47q-42 0 -55 4.5t-13 18.5v91q0 8 4.5 15t13.5 9l38 5q15 3 23 14.5t8 37.5v484q0 21 18 21h143q17 0 17 -19v-493q0 -94 -48.5 -141z" />
    <glyph glyph-name="Jcircumflex" unicode="&#x134;" horiz-adv-x="458" 
d="M347.5 39.5q-54.5 -49.5 -168.5 -49.5q-52 0 -122 14q-16 3 -22 11.5t-5 26.5l9 103q2 23 22 20q6 -1 23 -5t37 -4q40 0 59.5 22t19.5 74v469q0 21 18 21h167q17 0 17 -19v-520q0 -114 -54.5 -163.5zM261 876q-5 6 -9 10t-7 4q-5 0 -16 -14l-49 -54q-5 -6 -9 -7t-15 -1
h-91q-9 0 -9 5q0 3 7 12l110 118q6 8 13.5 11t20.5 3h85q16 0 26 -12l109 -120q8 -10 8 -13q0 -4 -9 -4h-97q-10 0 -15 1.5t-10 6.5z" />
    <glyph glyph-name="jcircumflex" unicode="&#x135;" horiz-adv-x="275" 
d="M178.5 -123q-48.5 -47 -148.5 -47q-42 0 -55 4.5t-13 18.5v91q0 8 4.5 15t13.5 9l38 5q15 3 23 14.5t8 37.5v484q0 21 18 21h143q17 0 17 -19v-493q0 -94 -48.5 -141zM153 664q-5 6 -9 10t-7 4q-5 0 -16 -14l-49 -54q-5 -6 -9 -7t-15 -1h-91q-9 0 -9 5q0 3 7 12l110 118
q6 8 13.5 11t20.5 3h85q16 0 26 -12l109 -120q8 -10 8 -13q0 -4 -9 -4h-97q-10 0 -15 1.5t-10 6.5z" />
    <glyph glyph-name="Kcommaaccent" unicode="&#x136;" horiz-adv-x="759" 
d="M732 13q0 -13 -16 -13h-174q-24 0 -32 18l-141 295q-4 6 -8 6t-13 -10l-79 -99q-6 -7 -6 -21v-163q0 -14 -7 -20t-23 -6h-148q-14 0 -19 5.5t-5 17.5v698q0 10 4.5 15.5t12.5 5.5h168q17 0 17 -19v-275q0 -11 4 -11t10 7l211 279q8 11 15.5 15t23.5 4h136q10 0 16.5 -4
t6.5 -11q0 -6 -5 -11l-177 -212q-6 -9 -6 -15t4 -14l226 -447q4 -7 4 -15zM314 -238.5q-4 6.5 0 12.5l32 46q5 6 5 13q0 13 -13 13h-9q-12 0 -16.5 4.5t-4.5 15.5v62q0 18 16 18h88q15 0 15 -14v-86q0 -3 -1.5 -6.5t-2.5 -5.5l-50 -66q-6 -8 -12 -10.5t-19 -2.5h-17
q-7 0 -11 6.5z" />
    <glyph glyph-name="kcommaaccent" unicode="&#x137;" horiz-adv-x="618" 
d="M602 18q0 -7 -5 -12.5t-14 -5.5h-152q-20 0 -30 23l-87 189q-4 10 -10 10q-4 0 -10 -6l-59 -56q-8 -8 -8 -27v-106q0 -15 -6.5 -21t-23.5 -6h-123q-14 0 -19.5 5.5t-5.5 17.5v698q0 10 4.5 15.5t12.5 5.5h144q17 0 17 -19v-392q0 -8 4 -8q2 0 7 5l169 186q14 16 29 16
h123q19 0 19 -12q0 -8 -7 -15l-135 -135q-7 -9 -7 -15t6 -17l165 -310zM245 -238.5q-4 6.5 0 12.5l32 46q5 6 5 13q0 13 -13 13h-9q-12 0 -16.5 4.5t-4.5 15.5v62q0 18 16 18h88q15 0 15 -14v-86q0 -3 -1.5 -6.5t-2.5 -5.5l-50 -66q-6 -8 -12 -10.5t-19 -2.5h-17
q-7 0 -11 6.5z" />
    <glyph glyph-name="kgreenlandic" unicode="&#x138;" horiz-adv-x="618" 
d="M602 18q0 -7 -5 -12.5t-14 -5.5h-152q-20 0 -30 23l-87 189q-4 10 -10 10q-4 0 -10 -6l-59 -56q-8 -8 -8 -27v-106q0 -15 -6.5 -21t-23.5 -6h-123q-14 0 -19.5 5.5t-5.5 17.5v486q0 10 4.5 15.5t12.5 5.5h144q17 0 17 -19v-180q0 -8 4 -8q2 0 7 5l169 186q14 16 29 16
h123q19 0 19 -12q0 -8 -7 -15l-135 -135q-7 -9 -7 -15t6 -17l165 -310z" />
    <glyph glyph-name="Lacute" unicode="&#x139;" horiz-adv-x="635" 
d="M65.5 736.5q4.5 5.5 12.5 5.5h168q17 0 17 -19v-563q0 -7 2.5 -10t8.5 -3h310q21 0 21 -17v-110q0 -9 -6 -14.5t-17 -5.5h-497q-14 0 -19 5.5t-5 17.5v698q0 10 4.5 15.5zM304 878q2 -8 2 -10q0 -15 -20 -19l-232 -59q-8 -2 -10 -2q-11 0 -17 14l-13 39q-2 3 -2 9
q0 9 9 13l237 100q2 1 6 1t8 -3t5 -9z" />
    <glyph glyph-name="lacute" unicode="&#x13a;" horiz-adv-x="275" 
d="M227 27q0 -15 -7 -21t-23 -6h-125q-14 0 -19.5 5.5t-5.5 17.5l4 698q0 21 18 21h141q8 0 12.5 -5t4.5 -14v-696zM286 878q2 -8 2 -10q0 -15 -20 -19l-232 -59q-8 -2 -10 -2q-11 0 -17 14l-13 39q-2 3 -2 9q0 9 9 13l237 100q2 1 6 1t8 -3t5 -9z" />
    <glyph glyph-name="Lcommaaccent" unicode="&#x13b;" horiz-adv-x="635" 
d="M65.5 736.5q4.5 5.5 12.5 5.5h168q17 0 17 -19v-563q0 -7 2.5 -10t8.5 -3h310q21 0 21 -17v-110q0 -9 -6 -14.5t-17 -5.5h-497q-14 0 -19 5.5t-5 17.5v698q0 10 4.5 15.5zM280 -238.5q-4 6.5 0 12.5l32 46q5 6 5 13q0 13 -13 13h-9q-12 0 -16.5 4.5t-4.5 15.5v62
q0 18 16 18h88q15 0 15 -14v-86q0 -3 -1.5 -6.5t-2.5 -5.5l-50 -66q-6 -8 -12 -10.5t-19 -2.5h-17q-7 0 -11 6.5z" />
    <glyph glyph-name="lcommaaccent" unicode="&#x13c;" horiz-adv-x="275" 
d="M227 27q0 -15 -7 -21t-23 -6h-125q-14 0 -19.5 5.5t-5.5 17.5l4 698q0 21 18 21h141q8 0 12.5 -5t4.5 -14v-696zM88 -238.5q-4 6.5 0 12.5l32 46q5 6 5 13q0 13 -13 13h-9q-12 0 -16.5 4.5t-4.5 15.5v62q0 18 16 18h88q15 0 15 -14v-86q0 -3 -1.5 -6.5t-2.5 -5.5l-50 -66
q-6 -8 -12 -10.5t-19 -2.5h-17q-7 0 -11 6.5z" />
    <glyph glyph-name="Lcaron" unicode="&#x13d;" horiz-adv-x="635" 
d="M65.5 736.5q4.5 5.5 12.5 5.5h168q17 0 17 -19v-563q0 -7 2.5 -10t8.5 -3h310q21 0 21 -17v-110q0 -9 -6 -14.5t-17 -5.5h-497q-14 0 -19 5.5t-5 17.5v698q0 10 4.5 15.5zM420.5 510q-2.5 5 -0.5 10l31 76q2 5 2 11q0 7 -9 8l-11 2q-9 1 -12.5 4.5t-3.5 11.5v94
q0 15 13 15h89q5 0 8.5 -3.5t3.5 -8.5v-113q0 -3 -3 -9l-37 -88q-3 -8 -9 -11.5t-19 -3.5h-34q-6 0 -8.5 5z" />
    <glyph glyph-name="lcaron" unicode="&#x13e;" horiz-adv-x="431" 
d="M227 27q0 -15 -7 -21t-23 -6h-125q-14 0 -19.5 5.5t-5.5 17.5l4 698q0 21 18 21h141q8 0 12.5 -5t4.5 -14v-696zM289.5 510q-2.5 5 -0.5 10l31 76q2 5 2 11q0 7 -9 8l-11 2q-9 1 -12.5 4.5t-3.5 11.5v94q0 15 13 15h89q5 0 8.5 -3.5t3.5 -8.5v-113q0 -3 -3 -9l-37 -88
q-3 -8 -9 -11.5t-19 -3.5h-34q-6 0 -8.5 5z" />
    <glyph glyph-name="Ldot" unicode="&#x13f;" horiz-adv-x="616" 
d="M65.5 736.5q4.5 5.5 12.5 5.5h168q17 0 17 -19v-563q0 -7 2.5 -10t8.5 -3h310q21 0 21 -17v-110q0 -9 -6 -14.5t-17 -5.5h-497q-14 0 -19 5.5t-5 17.5v698q0 10 4.5 15.5zM561 355q0 -13 -6 -18.5t-21 -5.5h-123q-12 0 -17 4.5t-5 15.5v127q0 18 16 18h141q15 0 15 -16
v-125z" />
    <glyph glyph-name="ldot" unicode="&#x140;" horiz-adv-x="422" 
d="M227 27q0 -15 -7 -21t-23 -6h-125q-14 0 -19.5 5.5t-5.5 17.5l4 698q0 21 18 21h141q8 0 12.5 -5t4.5 -14v-696zM432 231q0 -13 -6 -18.5t-21 -5.5h-123q-12 0 -17 4.5t-5 15.5v127q0 18 16 18h141q15 0 15 -16v-125z" />
    <glyph glyph-name="Lslash" unicode="&#x141;" horiz-adv-x="635" 
d="M605 130v-110q0 -9 -6 -14.5t-17 -5.5h-497q-14 0 -19 5.5t-5 17.5v277l-41 -11q-8 -2 -11 -2q-12 0 -12 18v107q0 10 4 14.5t13 6.5l47 12v276q0 10 4.5 15.5t12.5 5.5h168q17 0 17 -19v-224l139 37q6 2 9 2q13 0 13 -18v-101q0 -16 -18 -22l-143 -40v-197q0 -7 2.5 -10
t8.5 -3h310q21 0 21 -17z" />
    <glyph glyph-name="lslash" unicode="&#x142;" horiz-adv-x="347" 
d="M322 497q8 0 8 -14v-102q0 -15 -18 -30l-49 -34v-290q0 -15 -7 -21t-23 -6h-125q-14 0 -19.5 5.5t-5.5 17.5l1 172l-43 -30q-12 -7 -16 -7q-7 0 -7 14v108q0 19 17 30l50 33l2 378q0 21 18 21h141q8 0 12.5 -5t4.5 -14v-262l45 30q9 6 14 6z" />
    <glyph glyph-name="Nacute" unicode="&#x143;" horiz-adv-x="760" 
d="M685 742q15 0 15 -16v-709q0 -8 -6 -12.5t-15 -4.5h-121q-8 0 -13.5 2.5t-12.5 11.5l-296 408q-4 6 -7 5.5t-3 -6.5v-401v-3q0 -9 -5 -13t-17 -4h-121q-22 0 -22 19v702q0 11 4.5 16t15.5 5h143q12 0 17.5 -3t13.5 -13l266 -375q6 -8 11 -8t5 12v368q0 19 20 19h128z
M528 878q2 -8 2 -10q0 -15 -20 -19l-232 -59q-8 -2 -10 -2q-11 0 -17 14l-13 39q-2 3 -2 9q0 9 9 13l237 100q2 1 6 1t8 -3t5 -9z" />
    <glyph glyph-name="nacute" unicode="&#x144;" 
d="M53.5 5q-5.5 5 -5.5 18v486q0 21 17 21h142q17 0 17 -18v-48q0 -8 5 -8q3 0 7 4q78 80 164 80q71 0 114.5 -43.5t43.5 -116.5v-353q0 -27 -28 -27h-129q-12 0 -16.5 5t-4.5 18v332q0 27 -17 42.5t-46 15.5q-27 0 -48.5 -13.5t-42.5 -42.5v-331q0 -14 -7 -20t-23 -6h-124
q-13 0 -18.5 5zM449 666q2 -8 2 -10q0 -15 -20 -19l-232 -59q-8 -2 -10 -2q-11 0 -17 14l-13 39q-2 3 -2 9q0 9 9 13l237 100q2 1 6 1t8 -3t5 -9z" />
    <glyph glyph-name="Ncommaaccent" unicode="&#x145;" horiz-adv-x="760" 
d="M685 742q15 0 15 -16v-709q0 -8 -6 -12.5t-15 -4.5h-121q-8 0 -13.5 2.5t-12.5 11.5l-296 408q-4 6 -7 5.5t-3 -6.5v-401v-3q0 -9 -5 -13t-17 -4h-121q-22 0 -22 19v702q0 11 4.5 16t15.5 5h143q12 0 17.5 -3t13.5 -13l266 -375q6 -8 11 -8t5 12v368q0 19 20 19h128z
M325 -238.5q-4 6.5 0 12.5l32 46q5 6 5 13q0 13 -13 13h-9q-12 0 -16.5 4.5t-4.5 15.5v62q0 18 16 18h88q15 0 15 -14v-86q0 -3 -1.5 -6.5t-2.5 -5.5l-50 -66q-6 -8 -12 -10.5t-19 -2.5h-17q-7 0 -11 6.5z" />
    <glyph glyph-name="ncommaaccent" unicode="&#x146;" 
d="M53.5 5q-5.5 5 -5.5 18v486q0 21 17 21h142q17 0 17 -18v-48q0 -8 5 -8q3 0 7 4q78 80 164 80q71 0 114.5 -43.5t43.5 -116.5v-353q0 -27 -28 -27h-129q-12 0 -16.5 5t-4.5 18v332q0 27 -17 42.5t-46 15.5q-27 0 -48.5 -13.5t-42.5 -42.5v-331q0 -14 -7 -20t-23 -6h-124
q-13 0 -18.5 5zM249 -238.5q-4 6.5 0 12.5l32 46q5 6 5 13q0 13 -13 13h-9q-12 0 -16.5 4.5t-4.5 15.5v62q0 18 16 18h88q15 0 15 -14v-86q0 -3 -1.5 -6.5t-2.5 -5.5l-50 -66q-6 -8 -12 -10.5t-19 -2.5h-17q-7 0 -11 6.5z" />
    <glyph glyph-name="Ncaron" unicode="&#x147;" horiz-adv-x="760" 
d="M685 742q15 0 15 -16v-709q0 -8 -6 -12.5t-15 -4.5h-121q-8 0 -13.5 2.5t-12.5 11.5l-296 408q-4 6 -7 5.5t-3 -6.5v-401v-3q0 -9 -5 -13t-17 -4h-121q-22 0 -22 19v702q0 11 4.5 16t15.5 5h143q12 0 17.5 -3t13.5 -13l266 -375q6 -8 11 -8t5 12v368q0 19 20 19h128z
M451 953.5q5 1.5 15 1.5h97q9 0 9 -4q0 -3 -8 -13l-109 -121q-12 -12 -26 -12h-85q-22 0 -34 14l-110 119q-7 9 -7 12q0 5 9 5h91h5q7 0 11 -1.5t8 -7.5l49 -54q10 -13 16 -13q3 0 7 3.5t9 9.5l43 54q5 6 10 7.5z" />
    <glyph glyph-name="ncaron" unicode="&#x148;" 
d="M53.5 5q-5.5 5 -5.5 18v486q0 21 17 21h142q17 0 17 -18v-48q0 -8 5 -8q3 0 7 4q78 80 164 80q71 0 114.5 -43.5t43.5 -116.5v-353q0 -27 -28 -27h-129q-12 0 -16.5 5t-4.5 18v332q0 27 -17 42.5t-46 15.5q-27 0 -48.5 -13.5t-42.5 -42.5v-331q0 -14 -7 -20t-23 -6h-124
q-13 0 -18.5 5zM372 741.5q5 1.5 15 1.5h97q9 0 9 -4q0 -3 -8 -13l-109 -121q-12 -12 -26 -12h-85q-22 0 -34 14l-110 119q-7 9 -7 12q0 5 9 5h91h5q7 0 11 -1.5t8 -7.5l49 -54q10 -13 16 -13q3 0 7 3.5t9 9.5l43 54q5 6 10 7.5z" />
    <glyph glyph-name="napostrophe" unicode="&#x149;" horiz-adv-x="722" 
d="M39.5 454q-2.5 5 -0.5 10l31 109q2 8 2 11q0 7 -9 8l-11 2q-9 1 -12.5 4.5t-3.5 11.5v117q0 15 12 15h92q5 0 8.5 -3.5t3.5 -8.5v-136q0 -3 -3 -9l-38 -121q-2 -8 -8 -11.5t-19 -3.5h-36q-6 0 -8.5 5zM175.5 5q-5.5 5 -5.5 18v486q0 21 17 21h142q17 0 17 -18v-48
q0 -8 5 -8q3 0 7 4q78 80 164 80q71 0 114.5 -43.5t43.5 -116.5v-353q0 -27 -28 -27h-129q-12 0 -16.5 5t-4.5 18v332q0 27 -17 42.5t-46 15.5q-27 0 -48.5 -13.5t-42.5 -42.5v-331q0 -14 -7 -20t-23 -6h-124q-13 0 -18.5 5z" />
    <glyph glyph-name="Eng" unicode="&#x14a;" horiz-adv-x="760" 
d="M700 726v-692q0 -110 -54.5 -159.5t-164.5 -49.5q-54 0 -123 12q-15 3 -21.5 12t-5.5 27l8 102q2 23 22 20q43 -8 62 -8q36 0 56.5 19t22.5 61v15l-266 338q-4 5 -7 4t-3 -6v-401v-3q0 -9 -5 -13t-17 -4h-121q-22 0 -22 19v702q0 11 4.5 16t15.5 5h143q12 0 17.5 -3
t13.5 -13l266 -341q6 -8 11 -8t5 12v334q0 19 20 19h128q15 0 15 -16z" />
    <glyph glyph-name="eng" unicode="&#x14b;" horiz-adv-x="606" 
d="M515 496.5q43 -43.5 43 -116.5v-361q0 -91 -54.5 -140t-141.5 -49q-35 0 -46.5 4.5t-11.5 18.5l-1 90q0 8 5 15.5t13 8.5l29 6q15 2 22.5 13.5t7.5 38.5v329q0 27 -16.5 43t-46.5 16q-51 0 -89 -56v-331q0 -14 -7 -20t-23 -6h-126q-13 0 -18.5 5t-5.5 18l3 486
q0 10 5 15.5t13 5.5h139q17 0 17 -18v-48q0 -8 5 -8q3 0 7 4q78 80 164 80q71 0 114 -43.5z" />
    <glyph glyph-name="Omacron" unicode="&#x14c;" horiz-adv-x="777" 
d="M202.5 36q-79.5 46 -122.5 131.5t-43 201.5t43.5 202.5t123 133.5t185.5 47q105 0 184.5 -47t123 -133.5t43.5 -202.5q0 -115 -43 -200.5t-122.5 -132t-185.5 -46.5q-107 0 -186.5 46zM495.5 185q32.5 55 32.5 181q0 130 -33.5 188.5t-105.5 58.5q-73 0 -106.5 -58.5
t-33.5 -188.5q0 -126 33 -181t108 -55q73 0 105.5 55zM583 862q0 -12 -6 -17t-20 -5h-343q-12 0 -16 4.5t-4 15.5v73q0 18 14 18h361q14 0 14 -16v-73z" />
    <glyph glyph-name="omacron" unicode="&#x14d;" 
d="M157 24.5q-62 34.5 -96.5 96.5t-34.5 141q0 81 35.5 144.5t98 98.5t140.5 35q81 0 143 -35.5t96.5 -99t34.5 -143.5q0 -78 -35 -140t-97.5 -97t-142.5 -35t-142 34.5zM371 145q23 39 23 121t-23.5 122t-70.5 40t-70.5 -40t-23.5 -122q0 -81 23.5 -120.5t70.5 -39.5
q48 0 71 39zM494 650q0 -12 -6 -17t-20 -5h-343q-12 0 -16 4.5t-4 15.5v73q0 18 14 18h361q14 0 14 -16v-73z" />
    <glyph glyph-name="Obreve" unicode="&#x14e;" horiz-adv-x="777" 
d="M202.5 36q-79.5 46 -122.5 131.5t-43 201.5t43.5 202.5t123 133.5t185.5 47q105 0 184.5 -47t123 -133.5t43.5 -202.5q0 -115 -43 -200.5t-122.5 -132t-185.5 -46.5q-107 0 -186.5 46zM495.5 185q32.5 55 32.5 181q0 130 -33.5 188.5t-105.5 58.5q-73 0 -106.5 -58.5
t-33.5 -188.5q0 -126 33 -181t108 -55q73 0 105.5 55zM576.5 950q2.5 -4 0.5 -13q-19 -59 -69.5 -91.5t-117.5 -32.5t-118 32t-70 94l-1 5q0 10 11 10h71q8 0 12.5 -2.5t9.5 -10.5q13 -20 36 -33t49 -13q24 0 48 13.5t36 33.5q4 8 8 10t10 2h73q9 0 11.5 -4z" />
    <glyph glyph-name="obreve" unicode="&#x14f;" 
d="M157 24.5q-62 34.5 -96.5 96.5t-34.5 141q0 81 35.5 144.5t98 98.5t140.5 35q81 0 143 -35.5t96.5 -99t34.5 -143.5q0 -78 -35 -140t-97.5 -97t-142.5 -35t-142 34.5zM371 145q23 39 23 121t-23.5 122t-70.5 40t-70.5 -40t-23.5 -122q0 -81 23.5 -120.5t70.5 -39.5
q48 0 71 39zM487.5 738q2.5 -4 0.5 -13q-19 -59 -69.5 -91.5t-117.5 -32.5t-118 32t-70 94l-1 5q0 10 11 10h71q8 0 12.5 -2.5t9.5 -10.5q13 -20 36 -33t49 -13q24 0 48 13.5t36 33.5q4 8 8 10t10 2h73q9 0 11.5 -4z" />
    <glyph glyph-name="Ohungarumlaut" unicode="&#x150;" horiz-adv-x="777" 
d="M202.5 36q-79.5 46 -122.5 131.5t-43 201.5t43.5 202.5t123 133.5t185.5 47q105 0 184.5 -47t123 -133.5t43.5 -202.5q0 -115 -43 -200.5t-122.5 -132t-185.5 -46.5q-107 0 -186.5 46zM495.5 185q32.5 55 32.5 181q0 130 -33.5 188.5t-105.5 58.5q-73 0 -106.5 -58.5
t-33.5 -188.5q0 -126 33 -181t108 -55q73 0 105.5 55zM392 901q8 -12 8 -18q0 -8 -12 -16l-140 -86q-12 -7 -17 -7q-6 0 -12 7l-30 32q-7 7 -7 15q0 5 4 8l137 123q7 5 11 5q6 0 11 -6zM601 901q7 -10 7 -18q0 -9 -11 -16l-141 -86q-12 -7 -17 -7q-6 0 -12 7l-30 32
q-7 9 -7 14q0 6 5 9l137 123q5 5 11 5q5 0 11 -6z" />
    <glyph glyph-name="ohungarumlaut" unicode="&#x151;" 
d="M157 24.5q-62 34.5 -96.5 96.5t-34.5 141q0 81 35.5 144.5t98 98.5t140.5 35q81 0 143 -35.5t96.5 -99t34.5 -143.5q0 -78 -35 -140t-97.5 -97t-142.5 -35t-142 34.5zM371 145q23 39 23 121t-23.5 122t-70.5 40t-70.5 -40t-23.5 -122q0 -81 23.5 -120.5t70.5 -39.5
q48 0 71 39zM303 689q8 -12 8 -18q0 -8 -12 -16l-140 -86q-12 -7 -17 -7q-6 0 -12 7l-30 32q-7 7 -7 15q0 5 4 8l137 123q7 5 11 5q6 0 11 -6zM512 689q7 -10 7 -18q0 -9 -11 -16l-141 -86q-12 -7 -17 -7q-6 0 -12 7l-30 32q-7 9 -7 14q0 6 5 9l137 123q5 5 11 5q5 0 11 -6z
" />
    <glyph glyph-name="OE" unicode="&#x152;" horiz-adv-x="1129" 
d="M1088 143q5 -4 5 -13v-110q0 -20 -21 -20h-453q-13 0 -19 1l-44 18q-60 -29 -156 -29q-112 0 -194 46t-125.5 131.5t-43.5 201.5q0 117 44.5 203t128.5 133t200 47q91 0 146 -30l36 19q6 1 19 1h456q16 0 16 -19v-104q0 -11 -6 -17.5t-18 -6.5h-308q-21 0 -21 -18v-113
q0 -19 17 -19h193q19 0 19 -18v-111q0 -15 -16 -15h-198q-15 0 -15 -14v-127q0 -7 2.5 -10t9.5 -3h331q10 0 15 -4zM495 185q32 55 32 181q0 130 -33 188.5t-105 58.5q-73 0 -106.5 -58.5t-33.5 -188.5q0 -126 33 -181t108 -55q73 0 105 55z" />
    <glyph glyph-name="oe" unicode="&#x153;" horiz-adv-x="951" 
d="M157 24.5q-62 34.5 -96.5 96.5t-34.5 141q0 82 35.5 145t98 98t140.5 35q102 0 173 -61q8 -6 12 -6q6 0 12 6q33 30 75 45.5t89 15.5q78 0 138.5 -33.5t94.5 -98t34 -152.5q0 -13 -3.5 -18t-14.5 -6h-323q-15 0 -15 -17q0 -50 33 -78t83 -28q32 0 59.5 14t58.5 47
q4 4 9 4q6 0 11 -2l82 -34q8 -3 8 -11q0 -6 -5 -11q-50 -71 -105.5 -98.5t-140.5 -27.5q-51 0 -96 16t-79 45q-5 3 -8 3q-5 0 -9 -4q-34 -29 -78.5 -44.5t-95.5 -15.5q-80 0 -142 34.5zM601.5 405.5q-27.5 -28.5 -26.5 -78.5l163 -1q10 0 13.5 2.5t3.5 11.5q0 34 -23 64
t-63 30t-67.5 -28.5zM370.5 145.5q23.5 39.5 23.5 120.5q0 82 -23.5 122t-70.5 40q-94 0 -94 -162q0 -160 94 -160q47 0 70.5 39.5z" />
    <glyph glyph-name="Racute" unicode="&#x154;" horiz-adv-x="731" 
d="M689 20q0 -9 -5 -14.5t-14 -5.5h-171q-19 0 -25 19l-100 269q-3 8 -9.5 11.5t-20.5 3.5h-69q-6 0 -9 -3.5t-3 -7.5v-265q0 -15 -7 -21t-23 -6h-149q-13 0 -18 5.5t-5 17.5v698q0 21 17 21h324q140 0 217 -54.5t77 -153.5q0 -71 -37.5 -124t-96.5 -74q-5 -2 -5 -10
q0 -5 1 -8l129 -288q2 -8 2 -10zM462 459q25 22 25 62q0 42 -27.5 65t-70.5 23h-105q-12 0 -16.5 -4t-4.5 -14v-134q0 -11 3 -15.5t12 -4.5h111q48 0 73 22zM500 878q2 -8 2 -10q0 -15 -20 -19l-232 -59q-8 -2 -10 -2q-11 0 -17 14l-13 39q-2 3 -2 9q0 9 9 13l237 100
q2 1 6 1t8 -3t5 -9z" />
    <glyph glyph-name="racute" unicode="&#x155;" horiz-adv-x="441" 
d="M53 5.5q-5 5.5 -5 17.5v486q0 21 17 21h138q7 0 11.5 -5t4.5 -13v-58q0 -9 7 -9q5 0 9 6q27 38 69 63.5t78 25.5q37 0 37 -19v-134q0 -18 -18 -15q-40 10 -78 10q-36 0 -66.5 -24t-30.5 -53v-279q0 -14 -7 -20t-23 -6h-124q-14 0 -19 5.5zM373 666q2 -8 2 -10
q0 -15 -20 -19l-232 -59q-8 -2 -10 -2q-11 0 -17 14l-13 39q-2 3 -2 9q0 9 9 13l237 100q2 1 6 1t8 -3t5 -9z" />
    <glyph glyph-name="Rcommaaccent" unicode="&#x156;" horiz-adv-x="731" 
d="M689 20q0 -9 -5 -14.5t-14 -5.5h-171q-19 0 -25 19l-100 269q-3 8 -9.5 11.5t-20.5 3.5h-69q-6 0 -9 -3.5t-3 -7.5v-265q0 -15 -7 -21t-23 -6h-149q-13 0 -18 5.5t-5 17.5v698q0 21 17 21h324q140 0 217 -54.5t77 -153.5q0 -71 -37.5 -124t-96.5 -74q-5 -2 -5 -10
q0 -5 1 -8l129 -288q2 -8 2 -10zM462 459q25 22 25 62q0 42 -27.5 65t-70.5 23h-105q-12 0 -16.5 -4t-4.5 -14v-134q0 -11 3 -15.5t12 -4.5h111q48 0 73 22zM311 -238.5q-4 6.5 0 12.5l32 46q5 6 5 13q0 13 -13 13h-9q-12 0 -16.5 4.5t-4.5 15.5v62q0 18 16 18h88
q15 0 15 -14v-86q0 -3 -1.5 -6.5t-2.5 -5.5l-50 -66q-6 -8 -12 -10.5t-19 -2.5h-17q-7 0 -11 6.5z" />
    <glyph glyph-name="rcommaaccent" unicode="&#x157;" horiz-adv-x="441" 
d="M53 5.5q-5 5.5 -5 17.5v486q0 21 17 21h138q7 0 11.5 -5t4.5 -13v-58q0 -9 7 -9q5 0 9 6q27 38 69 63.5t78 25.5q37 0 37 -19v-134q0 -18 -18 -15q-40 10 -78 10q-36 0 -66.5 -24t-30.5 -53v-279q0 -14 -7 -20t-23 -6h-124q-14 0 -19 5.5zM83 -238.5q-4 6.5 0 12.5l32 46
q5 6 5 13q0 13 -13 13h-9q-12 0 -16.5 4.5t-4.5 15.5v62q0 18 16 18h88q15 0 15 -14v-86q0 -3 -1.5 -6.5t-2.5 -5.5l-50 -66q-6 -8 -12 -10.5t-19 -2.5h-17q-7 0 -11 6.5z" />
    <glyph glyph-name="Rcaron" unicode="&#x158;" horiz-adv-x="731" 
d="M689 20q0 -9 -5 -14.5t-14 -5.5h-171q-19 0 -25 19l-100 269q-3 8 -9.5 11.5t-20.5 3.5h-69q-6 0 -9 -3.5t-3 -7.5v-265q0 -15 -7 -21t-23 -6h-149q-13 0 -18 5.5t-5 17.5v698q0 21 17 21h324q140 0 217 -54.5t77 -153.5q0 -71 -37.5 -124t-96.5 -74q-5 -2 -5 -10
q0 -5 1 -8l129 -288q2 -8 2 -10zM462 459q25 22 25 62q0 42 -27.5 65t-70.5 23h-105q-12 0 -16.5 -4t-4.5 -14v-134q0 -11 3 -15.5t12 -4.5h111q48 0 73 22zM423 953.5q5 1.5 15 1.5h97q9 0 9 -4q0 -3 -8 -13l-109 -121q-12 -12 -26 -12h-85q-22 0 -34 14l-110 119
q-7 9 -7 12q0 5 9 5h91h5q7 0 11 -1.5t8 -7.5l49 -54q10 -13 16 -13q3 0 7 3.5t9 9.5l43 54q5 6 10 7.5z" />
    <glyph glyph-name="rcaron" unicode="&#x159;" horiz-adv-x="441" 
d="M53 5.5q-5 5.5 -5 17.5v486q0 21 17 21h138q7 0 11.5 -5t4.5 -13v-58q0 -9 7 -9q5 0 9 6q27 38 69 63.5t78 25.5q37 0 37 -19v-134q0 -18 -18 -15q-40 10 -78 10q-36 0 -66.5 -24t-30.5 -53v-279q0 -14 -7 -20t-23 -6h-124q-14 0 -19 5.5zM296 741.5q5 1.5 15 1.5h97
q9 0 9 -4q0 -3 -8 -13l-109 -121q-12 -12 -26 -12h-85q-22 0 -34 14l-110 119q-7 9 -7 12q0 5 9 5h91h5q7 0 11 -1.5t8 -7.5l49 -54q10 -13 16 -13q3 0 7 3.5t9 9.5l43 54q5 6 10 7.5z" />
    <glyph glyph-name="Sacute" unicode="&#x15a;" horiz-adv-x="690" 
d="M439.5 597.5q-30.5 15.5 -83.5 15.5q-56 0 -84.5 -18.5t-28.5 -46.5q0 -19 16 -36t56 -27l162 -44q90 -24 135 -80t45 -134q0 -72 -37.5 -125.5t-107.5 -82.5t-164 -29q-106 0 -192.5 35.5t-122.5 95.5q-5 10 -5 15q0 8 11 16l90 62q11 7 19 7q10 0 16 -8
q36 -46 72.5 -65t96.5 -19q61 0 96.5 18t35.5 52q0 46 -73 66l-152 40q-88 23 -138 81.5t-50 134.5q0 65 37 117.5t104.5 83t156.5 30.5q86 0 160 -29t110 -77q7 -12 7 -17t-7 -11l-98 -71q-4 -4 -9 -4q-6 0 -18 12q-25 27 -55.5 42.5zM495 878q2 -8 2 -10q0 -15 -20 -19
l-232 -59q-8 -2 -10 -2q-11 0 -17 14l-13 39q-2 3 -2 9q0 9 9 13l237 100q2 1 6 1t8 -3t5 -9z" />
    <glyph glyph-name="sacute" unicode="&#x15b;" horiz-adv-x="536" 
d="M269 435q-32 0 -53.5 -12t-21.5 -33q0 -11 9.5 -19.5t37.5 -15.5l110 -25q84 -19 122.5 -62t38.5 -103q0 -82 -67.5 -128.5t-178.5 -46.5q-89 0 -153.5 30.5t-90.5 78.5q-5 8 -5 15q0 8 7 12l78 40q8 4 15 4q8 0 13 -6q24 -30 52.5 -46.5t80.5 -16.5q40 0 65.5 12
t25.5 34q0 14 -12.5 24t-43.5 16l-102 20q-158 31 -158 157q0 51 27.5 91t80.5 62.5t125 22.5q75 0 133 -27.5t82 -67.5q7 -10 7 -17t-7 -10l-82 -40q-6 -3 -10 -3q-9 0 -17 10q-40 50 -108 50zM409 666q2 -8 2 -10q0 -15 -20 -19l-232 -59q-8 -2 -10 -2q-11 0 -17 14
l-13 39q-2 3 -2 9q0 9 9 13l237 100q2 1 6 1t8 -3t5 -9z" />
    <glyph glyph-name="Scircumflex" unicode="&#x15c;" horiz-adv-x="690" 
d="M439.5 597.5q-30.5 15.5 -83.5 15.5q-56 0 -84.5 -18.5t-28.5 -46.5q0 -19 16 -36t56 -27l162 -44q90 -24 135 -80t45 -134q0 -72 -37.5 -125.5t-107.5 -82.5t-164 -29q-106 0 -192.5 35.5t-122.5 95.5q-5 10 -5 15q0 8 11 16l90 62q11 7 19 7q10 0 16 -8
q36 -46 72.5 -65t96.5 -19q61 0 96.5 18t35.5 52q0 46 -73 66l-152 40q-88 23 -138 81.5t-50 134.5q0 65 37 117.5t104.5 83t156.5 30.5q86 0 160 -29t110 -77q7 -12 7 -17t-7 -11l-98 -71q-4 -4 -9 -4q-6 0 -18 12q-25 27 -55.5 42.5zM365 876q-5 6 -9 10t-7 4
q-5 0 -16 -14l-49 -54q-5 -6 -9 -7t-15 -1h-91q-9 0 -9 5q0 3 7 12l110 118q6 8 13.5 11t20.5 3h85q16 0 26 -12l109 -120q8 -10 8 -13q0 -4 -9 -4h-97q-10 0 -15 1.5t-10 6.5z" />
    <glyph glyph-name="scircumflex" unicode="&#x15d;" horiz-adv-x="536" 
d="M269 435q-32 0 -53.5 -12t-21.5 -33q0 -11 9.5 -19.5t37.5 -15.5l110 -25q84 -19 122.5 -62t38.5 -103q0 -82 -67.5 -128.5t-178.5 -46.5q-89 0 -153.5 30.5t-90.5 78.5q-5 8 -5 15q0 8 7 12l78 40q8 4 15 4q8 0 13 -6q24 -30 52.5 -46.5t80.5 -16.5q40 0 65.5 12
t25.5 34q0 14 -12.5 24t-43.5 16l-102 20q-158 31 -158 157q0 51 27.5 91t80.5 62.5t125 22.5q75 0 133 -27.5t82 -67.5q7 -10 7 -17t-7 -10l-82 -40q-6 -3 -10 -3q-9 0 -17 10q-40 50 -108 50zM279 664q-5 6 -9 10t-7 4q-5 0 -16 -14l-49 -54q-5 -6 -9 -7t-15 -1h-91
q-9 0 -9 5q0 3 7 12l110 118q6 8 13.5 11t20.5 3h85q16 0 26 -12l109 -120q8 -10 8 -13q0 -4 -9 -4h-97q-10 0 -15 1.5t-10 6.5z" />
    <glyph glyph-name="Scedilla" unicode="&#x15e;" horiz-adv-x="690" 
d="M373 -46l-1 -4q0 -4 7 -4q52 -1 76.5 -25.5t24.5 -56.5q0 -39 -37 -62.5t-91 -23.5q-73 0 -120 24q-9 7 -5 15l16 38q3 8 11 5q42 -23 76 -23q23 0 36 8t13 21q0 20 -20.5 30t-68.5 11q-8 0 -10.5 2t0.5 9l32 73q-95 6 -170.5 41t-108.5 89q-5 10 -5 15q0 8 11 16l90 62
q11 7 19 7q10 0 16 -8q36 -46 72.5 -65t96.5 -19q61 0 96.5 18t35.5 52q0 46 -73 66l-152 40q-88 23 -138 81.5t-50 134.5q0 65 37 117.5t104.5 83t156.5 30.5q86 0 160 -29t110 -77q7 -12 7 -17t-7 -11l-98 -71q-4 -4 -9 -4q-6 0 -18 12q-25 27 -55.5 42.5t-83.5 15.5
q-56 0 -84.5 -18.5t-28.5 -46.5q0 -19 16 -36t56 -27l162 -44q90 -24 135 -80t45 -134q0 -101 -72 -164t-197 -72z" />
    <glyph glyph-name="scedilla" unicode="&#x15f;" horiz-adv-x="536" 
d="M286 -46l-1 -4q0 -4 7 -4q52 -1 76.5 -25.5t24.5 -56.5q0 -39 -37 -62.5t-91 -23.5q-73 0 -120 24q-9 7 -5 15l16 38q3 8 11 5q42 -23 76 -23q23 0 36 8t13 21q0 20 -20.5 30t-68.5 11q-8 0 -10.5 2t0.5 9l32 74q-74 7 -127 36t-76 71q-5 8 -5 15q0 8 7 12l78 40
q8 4 15 4q8 0 13 -6q24 -30 52.5 -46.5t80.5 -16.5q40 0 65.5 12t25.5 34q0 14 -12.5 24t-43.5 16l-102 20q-158 31 -158 157q0 51 27.5 91t80.5 62.5t125 22.5q75 0 133 -27.5t82 -67.5q7 -10 7 -17t-7 -10l-82 -40q-6 -3 -10 -3q-9 0 -17 10q-40 50 -108 50
q-32 0 -53.5 -12t-21.5 -33q0 -11 9.5 -19.5t37.5 -15.5l110 -25q84 -19 122.5 -62t38.5 -103q0 -75 -57 -120.5t-154 -53.5z" />
    <glyph glyph-name="Scaron" unicode="&#x160;" horiz-adv-x="690" 
d="M439.5 597.5q-30.5 15.5 -83.5 15.5q-56 0 -84.5 -18.5t-28.5 -46.5q0 -19 16 -36t56 -27l162 -44q90 -24 135 -80t45 -134q0 -72 -37.5 -125.5t-107.5 -82.5t-164 -29q-106 0 -192.5 35.5t-122.5 95.5q-5 10 -5 15q0 8 11 16l90 62q11 7 19 7q10 0 16 -8
q36 -46 72.5 -65t96.5 -19q61 0 96.5 18t35.5 52q0 46 -73 66l-152 40q-88 23 -138 81.5t-50 134.5q0 65 37 117.5t104.5 83t156.5 30.5q86 0 160 -29t110 -77q7 -12 7 -17t-7 -11l-98 -71q-4 -4 -9 -4q-6 0 -18 12q-25 27 -55.5 42.5zM418 953.5q5 1.5 15 1.5h97q9 0 9 -4
q0 -3 -8 -13l-109 -121q-12 -12 -26 -12h-85q-22 0 -34 14l-110 119q-7 9 -7 12q0 5 9 5h91h5q7 0 11 -1.5t8 -7.5l49 -54q10 -13 16 -13q3 0 7 3.5t9 9.5l43 54q5 6 10 7.5z" />
    <glyph glyph-name="scaron" unicode="&#x161;" horiz-adv-x="536" 
d="M269 435q-32 0 -53.5 -12t-21.5 -33q0 -11 9.5 -19.5t37.5 -15.5l110 -25q84 -19 122.5 -62t38.5 -103q0 -82 -67.5 -128.5t-178.5 -46.5q-89 0 -153.5 30.5t-90.5 78.5q-5 8 -5 15q0 8 7 12l78 40q8 4 15 4q8 0 13 -6q24 -30 52.5 -46.5t80.5 -16.5q40 0 65.5 12
t25.5 34q0 14 -12.5 24t-43.5 16l-102 20q-158 31 -158 157q0 51 27.5 91t80.5 62.5t125 22.5q75 0 133 -27.5t82 -67.5q7 -10 7 -17t-7 -10l-82 -40q-6 -3 -10 -3q-9 0 -17 10q-40 50 -108 50zM332 741.5q5 1.5 15 1.5h97q9 0 9 -4q0 -3 -8 -13l-109 -121q-12 -12 -26 -12
h-85q-22 0 -34 14l-110 119q-7 9 -7 12q0 5 9 5h91h5q7 0 11 -1.5t8 -7.5l49 -54q10 -13 16 -13q3 0 7 3.5t9 9.5l43 54q5 6 10 7.5z" />
    <glyph glyph-name="uni0162" unicode="&#x162;" horiz-adv-x="693" 
d="M656.5 736q5.5 -6 5.5 -15v-106q0 -17 -20 -17h-182q-11 0 -11 -10v-568q0 -20 -18 -20h-43l-18 -46l-1 -4q0 -4 7 -4q52 -1 76.5 -25.5t24.5 -56.5q0 -39 -37 -62.5t-91 -23.5q-73 0 -120 24q-9 7 -5 15l16 38q3 8 11 5q42 -23 76 -23q23 0 36 8t13 21q0 20 -20.5 30
t-68.5 11q-8 0 -10.5 2t0.5 9l36 82h-50q-17 0 -17 19v565q0 8 -2 11t-8 3h-184q-21 0 -21 17v106q0 9 5.5 15t16.5 6h587q11 0 16.5 -6z" />
    <glyph glyph-name="uni0163" unicode="&#x163;" horiz-adv-x="448" 
d="M287 397v-216q0 -30 16.5 -44t52.5 -14h48q7 0 11.5 -5t4.5 -13l-1 -72q0 -21 -26 -26q-37 -5 -91 -7l-18 -46l-1 -4q0 -4 7 -4q52 -1 76.5 -25.5t24.5 -56.5q0 -39 -37 -62.5t-91 -23.5q-73 0 -120 24q-9 7 -5 15l16 38q3 8 11 5q42 -23 76 -23q23 0 36 8t13 21
q0 20 -20.5 30t-68.5 11q-8 0 -10.5 2t0.5 9l37 85q-56 8 -87.5 41t-31.5 87v261q0 9 -3 13t-11 4h-54q-22 0 -22 20v84q0 17 20 17h64q9 0 11 11l15 150q1 10 4.5 14.5t12.5 4.5h128q18 0 18 -20v-149q0 -10 10 -10h99q9 0 14.5 -4.5t5.5 -12.5v-85q0 -20 -23 -20h-99
q-12 0 -12 -12z" />
    <glyph glyph-name="Tcaron" unicode="&#x164;" horiz-adv-x="693" 
d="M31 721q0 9 5.5 15t16.5 6h587q11 0 16.5 -6t5.5 -15v-106q0 -17 -20 -17h-182q-11 0 -11 -10v-568q0 -20 -18 -20h-168q-17 0 -17 19v565q0 8 -2 11t-8 3h-184q-21 0 -21 17v106zM416 953.5q5 1.5 15 1.5h97q9 0 9 -4q0 -3 -8 -13l-109 -121q-12 -12 -26 -12h-85
q-22 0 -34 14l-110 119q-7 9 -7 12q0 5 9 5h91h5q7 0 11 -1.5t8 -7.5l49 -54q10 -13 16 -13q3 0 7 3.5t9 9.5l43 54q5 6 10 7.5z" />
    <glyph glyph-name="tcaron" unicode="&#x165;" horiz-adv-x="448" 
d="M299 409q-12 0 -12 -12v-216q0 -30 16.5 -44t52.5 -14h48q7 0 11.5 -5t4.5 -13l-1 -72q0 -21 -26 -26q-45 -7 -127 -7q-72 0 -114.5 34t-42.5 97v261q0 9 -3 13t-11 4h-54q-22 0 -22 20v84q0 17 20 17h64q9 0 11 11l15 150q1 10 4.5 14.5t12.5 4.5h128q18 0 18 -20v-149
q0 -10 10 -10h99q9 0 14.5 -4.5t5.5 -12.5v-85q0 -20 -23 -20h-99zM328.5 575q-2.5 5 -0.5 10l31 76q2 5 2 11q0 7 -9 8l-11 2q-9 1 -12.5 4.5t-3.5 11.5v94q0 15 13 15h89q5 0 8.5 -3.5t3.5 -8.5v-113q0 -3 -3 -9l-37 -88q-3 -8 -9 -11.5t-19 -3.5h-34q-6 0 -8.5 5z" />
    <glyph glyph-name="Tbar" unicode="&#x166;" horiz-adv-x="693" 
d="M656.5 736q5.5 -6 5.5 -15v-106q0 -17 -20 -17h-182q-11 0 -11 -10v-169h82q7 0 11.5 -5t4.5 -13v-83q0 -14 -7 -20t-23 -6h-68v-272q0 -20 -18 -20h-168q-17 0 -17 19v273h-103q-14 0 -19 5.5t-5 17.5v83q0 21 17 21h110v165q0 8 -2 11t-8 3h-184q-21 0 -21 17v106
q0 9 5.5 15t16.5 6h587q11 0 16.5 -6z" />
    <glyph glyph-name="tbar" unicode="&#x167;" horiz-adv-x="448" 
d="M287 397v-62h82q15 0 15 -17v-58q0 -12 -6.5 -17t-20.5 -5h-70v-57q0 -30 16.5 -44t52.5 -14h48q7 0 11.5 -5t4.5 -13l-1 -72q0 -21 -26 -26q-45 -7 -127 -7q-72 0 -114.5 34t-42.5 97v107h-57q-11 0 -15.5 4.5t-4.5 15.5v59q0 18 15 18h62v57q0 9 -3 13t-11 4h-54
q-22 0 -22 20v84q0 17 20 17h64q9 0 11 11l15 150q1 10 4.5 14.5t12.5 4.5h128q18 0 18 -20v-149q0 -10 10 -10h99q9 0 14.5 -4.5t5.5 -12.5v-85q0 -20 -23 -20h-99q-12 0 -12 -12z" />
    <glyph glyph-name="Utilde" unicode="&#x168;" horiz-adv-x="724" 
d="M592 58q-80 -68 -230 -68q-167 0 -238.5 77.5t-71.5 236.5v417q0 21 18 21h167q17 0 17 -19v-443q0 -77 31.5 -112t91.5 -35q128 0 128 150v438q0 21 18 21h133q16 0 16 -19v-439q0 -158 -80 -226zM511 838q-25 -8 -54 -8q-19 0 -40 4.5t-40 10.5q-45 15 -75 15
q-20 0 -35 -5.5t-34 -18.5q-7 -5 -11 -5q-7 0 -10 12l-16 49q-2 8 -2 10q0 8 9 18q23 19 43.5 29t50.5 10q34 0 90 -18q47 -15 70 -15q34 0 73 26q5 4 11 4q8 0 11 -12l14 -59l1 -6q0 -11 -14 -21q-17 -12 -42 -20z" />
    <glyph glyph-name="utilde" unicode="&#x169;" horiz-adv-x="597" 
d="M328.5 129.5q23.5 13.5 42.5 36.5v338q0 14 7 20t23 6h126q13 0 18.5 -5.5t5.5 -18.5l-4 -486q0 -20 -17 -20h-139q-17 0 -17 18v47q0 6 -3.5 7.5t-7.5 -3.5q-38 -41 -79 -60t-90 -19q-68 0 -110 44t-42 120v349q0 27 28 27h129q12 0 16.5 -5t4.5 -19v-330
q0 -28 16.5 -44t43.5 -16q25 0 48.5 13.5zM429 626q-25 -8 -54 -8q-19 0 -40 4.5t-40 10.5q-45 15 -75 15q-20 0 -35 -5.5t-34 -18.5q-7 -5 -11 -5q-7 0 -10 12l-16 49q-2 8 -2 10q0 8 9 18q23 19 43.5 29t50.5 10q34 0 90 -18q47 -15 70 -15q34 0 73 26q5 4 11 4
q8 0 11 -12l14 -59l1 -6q0 -11 -14 -21q-17 -12 -42 -20z" />
    <glyph glyph-name="Umacron" unicode="&#x16a;" horiz-adv-x="724" 
d="M592 58q-80 -68 -230 -68q-167 0 -238.5 77.5t-71.5 236.5v417q0 21 18 21h167q17 0 17 -19v-443q0 -77 31.5 -112t91.5 -35q128 0 128 150v438q0 21 18 21h133q16 0 16 -19v-439q0 -158 -80 -226zM571 862q0 -12 -6 -17t-20 -5h-343q-12 0 -16 4.5t-4 15.5v73
q0 18 14 18h361q14 0 14 -16v-73z" />
    <glyph glyph-name="umacron" unicode="&#x16b;" horiz-adv-x="597" 
d="M328.5 129.5q23.5 13.5 42.5 36.5v338q0 14 7 20t23 6h126q13 0 18.5 -5.5t5.5 -18.5l-4 -486q0 -20 -17 -20h-139q-17 0 -17 18v47q0 6 -3.5 7.5t-7.5 -3.5q-38 -41 -79 -60t-90 -19q-68 0 -110 44t-42 120v349q0 27 28 27h129q12 0 16.5 -5t4.5 -19v-330
q0 -28 16.5 -44t43.5 -16q25 0 48.5 13.5zM489 650q0 -12 -6 -17t-20 -5h-343q-12 0 -16 4.5t-4 15.5v73q0 18 14 18h361q14 0 14 -16v-73z" />
    <glyph glyph-name="Ubreve" unicode="&#x16c;" horiz-adv-x="724" 
d="M592 58q-80 -68 -230 -68q-167 0 -238.5 77.5t-71.5 236.5v417q0 21 18 21h167q17 0 17 -19v-443q0 -77 31.5 -112t91.5 -35q128 0 128 150v438q0 21 18 21h133q16 0 16 -19v-439q0 -158 -80 -226zM564.5 950q2.5 -4 0.5 -13q-19 -59 -69.5 -91.5t-117.5 -32.5t-118 32
t-70 94l-1 5q0 10 11 10h71q8 0 12.5 -2.5t9.5 -10.5q13 -20 36 -33t49 -13q24 0 48 13.5t36 33.5q4 8 8 10t10 2h73q9 0 11.5 -4z" />
    <glyph glyph-name="ubreve" unicode="&#x16d;" horiz-adv-x="597" 
d="M328.5 129.5q23.5 13.5 42.5 36.5v338q0 14 7 20t23 6h126q13 0 18.5 -5.5t5.5 -18.5l-4 -486q0 -20 -17 -20h-139q-17 0 -17 18v47q0 6 -3.5 7.5t-7.5 -3.5q-38 -41 -79 -60t-90 -19q-68 0 -110 44t-42 120v349q0 27 28 27h129q12 0 16.5 -5t4.5 -19v-330
q0 -28 16.5 -44t43.5 -16q25 0 48.5 13.5zM482.5 738q2.5 -4 0.5 -13q-19 -59 -69.5 -91.5t-117.5 -32.5t-118 32t-70 94l-1 5q0 10 11 10h71q8 0 12.5 -2.5t9.5 -10.5q13 -20 36 -33t49 -13q24 0 48 13.5t36 33.5q4 8 8 10t10 2h73q9 0 11.5 -4z" />
    <glyph glyph-name="Uring" unicode="&#x16e;" horiz-adv-x="724" 
d="M592 58q-80 -68 -230 -68q-167 0 -238.5 77.5t-71.5 236.5v417q0 21 18 21h167q17 0 17 -19v-443q0 -77 31.5 -112t91.5 -35q128 0 128 150v438q0 21 18 21h133q16 0 16 -19v-439q0 -158 -80 -226zM456.5 758.5q-33.5 -33.5 -80.5 -33.5q-48 0 -81.5 34t-33.5 83
q0 46 34 78.5t81 32.5t80.5 -33t33.5 -80q0 -48 -33.5 -81.5zM409.5 874q-14.5 14 -34.5 14q-21 0 -36 -14t-15 -35q0 -20 15.5 -35t35.5 -15t34.5 15t14.5 35q0 21 -14.5 35z" />
    <glyph glyph-name="uring" unicode="&#x16f;" horiz-adv-x="597" 
d="M328.5 129.5q23.5 13.5 42.5 36.5v338q0 14 7 20t23 6h126q13 0 18.5 -5.5t5.5 -18.5l-4 -486q0 -20 -17 -20h-139q-17 0 -17 18v47q0 6 -3.5 7.5t-7.5 -3.5q-38 -41 -79 -60t-90 -19q-68 0 -110 44t-42 120v349q0 27 28 27h129q12 0 16.5 -5t4.5 -19v-330
q0 -28 16.5 -44t43.5 -16q25 0 48.5 13.5zM375.5 609.5q-33.5 -33.5 -80.5 -33.5q-48 0 -81.5 34t-33.5 83q0 46 34 78.5t81 32.5t80.5 -33t33.5 -80q0 -48 -33.5 -81.5zM328.5 725q-14.5 14 -34.5 14q-21 0 -36 -14t-15 -35q0 -20 15.5 -35t35.5 -15t34.5 15t14.5 35
q0 21 -14.5 35z" />
    <glyph glyph-name="Uhungarumlaut" unicode="&#x170;" horiz-adv-x="724" 
d="M592 58q-80 -68 -230 -68q-167 0 -238.5 77.5t-71.5 236.5v417q0 21 18 21h167q17 0 17 -19v-443q0 -77 31.5 -112t91.5 -35q128 0 128 150v438q0 21 18 21h133q16 0 16 -19v-439q0 -158 -80 -226zM380 901q8 -12 8 -18q0 -8 -12 -16l-140 -86q-12 -7 -17 -7q-6 0 -12 7
l-30 32q-7 7 -7 15q0 5 4 8l137 123q7 5 11 5q6 0 11 -6zM589 901q7 -10 7 -18q0 -9 -11 -16l-141 -86q-12 -7 -17 -7q-6 0 -12 7l-30 32q-7 9 -7 14q0 6 5 9l137 123q5 5 11 5q5 0 11 -6z" />
    <glyph glyph-name="uhungarumlaut" unicode="&#x171;" horiz-adv-x="597" 
d="M328.5 129.5q23.5 13.5 42.5 36.5v338q0 14 7 20t23 6h126q13 0 18.5 -5.5t5.5 -18.5l-4 -486q0 -20 -17 -20h-139q-17 0 -17 18v47q0 6 -3.5 7.5t-7.5 -3.5q-38 -41 -79 -60t-90 -19q-68 0 -110 44t-42 120v349q0 27 28 27h129q12 0 16.5 -5t4.5 -19v-330
q0 -28 16.5 -44t43.5 -16q25 0 48.5 13.5zM298 689q8 -12 8 -18q0 -8 -12 -16l-140 -86q-12 -7 -17 -7q-6 0 -12 7l-30 32q-7 7 -7 15q0 5 4 8l137 123q7 5 11 5q6 0 11 -6zM507 689q7 -10 7 -18q0 -9 -11 -16l-141 -86q-12 -7 -17 -7q-6 0 -12 7l-30 32q-7 9 -7 14q0 6 5 9
l137 123q5 5 11 5q5 0 11 -6z" />
    <glyph glyph-name="Uogonek" unicode="&#x172;" horiz-adv-x="724" 
d="M672 723v-439q0 -123 -49 -190.5t-142 -90.5q-49 -17 -67.5 -32.5t-18.5 -34.5q0 -16 7.5 -23t24.5 -7q27 0 57 15q6 3 10 3q7 0 7 -13v-47q0 -11 -9 -17q-15 -8 -43.5 -14t-61.5 -6q-55 0 -86 22t-31 64q0 23 13 42t45 36q-148 7 -212 84.5t-64 228.5v417q0 21 18 21
h167q17 0 17 -19v-443q0 -77 31.5 -112t91.5 -35q128 0 128 150v438q0 21 18 21h133q16 0 16 -19z" />
    <glyph glyph-name="uogonek" unicode="&#x173;" horiz-adv-x="597" 
d="M548 -76q7 0 7 -13v-47q0 -11 -9 -17q-15 -8 -43.5 -14t-61.5 -6q-55 0 -86 22t-31 64q0 27 17 48t61 39h-11q-17 0 -17 18v47q0 6 -3.5 7.5t-7.5 -3.5q-38 -41 -79 -60t-90 -19q-68 0 -110 44t-42 120v349q0 27 28 27h129q12 0 16.5 -5t4.5 -19v-330q0 -28 16.5 -44
t43.5 -16q25 0 48.5 13.5t42.5 36.5v338q0 14 7 20t23 6h126q13 0 18.5 -5.5t5.5 -18.5l-4 -486q0 -20 -17 -20h-2q-45 -17 -62 -31.5t-17 -32.5q0 -16 7.5 -23t24.5 -7q27 0 57 15q6 3 10 3z" />
    <glyph glyph-name="Wcircumflex" unicode="&#x174;" horiz-adv-x="1097" 
d="M1060.5 735.5q7.5 -6.5 7.5 -17.5q0 -4 -2 -12l-203 -683q-5 -12 -12.5 -17.5t-21.5 -5.5h-123q-14 0 -22 5.5t-12 17.5l-114 393q-3 11 -6 11q-4 0 -8 -13l-115 -391q-6 -23 -33 -23h-128q-26 0 -33 23l-204 683q-1 4 -1 11q0 12 7 18.5t21 6.5h146q13 0 19.5 -4.5
t9.5 -14.5l117 -411q3 -12 7 -12q3 0 5 8l116 415q2 10 9 14.5t21 4.5h124q13 0 19.5 -4.5t9.5 -14.5l121 -419q2 -7 5.5 -8t5.5 6l114 421q3 19 29 19h103q14 0 21.5 -6.5zM565 876q-5 6 -9 10t-7 4q-5 0 -16 -14l-49 -54q-5 -6 -9 -7t-15 -1h-91q-9 0 -9 5q0 3 7 12
l110 118q6 8 13.5 11t20.5 3h85q16 0 26 -12l109 -120q8 -10 8 -13q0 -4 -9 -4h-97q-10 0 -15 1.5t-10 6.5z" />
    <glyph glyph-name="wcircumflex" unicode="&#x175;" horiz-adv-x="825" 
d="M803 525q5 -5 5 -13l-2 -8l-167 -487q-3 -9 -8 -13t-14 -4h-94q-21 0 -27 20l-75 241q-3 11 -8 11q-4 0 -7 -11l-78 -244q-3 -9 -8 -13t-15 -4h-97q-20 0 -26 20l-162 484l-2 8q0 8 5 13t14 5h137q8 0 15 -5t9 -13l79 -247q2 -10 7 -10q3 0 8 11l75 246q2 8 8.5 13
t14.5 5h98q7 0 14 -5t9 -13l74 -247q2 -10 7 -10q3 0 8 11l77 246q9 18 24 18h89q8 0 13 -5zM427 664q-5 6 -9 10t-7 4q-5 0 -16 -14l-49 -54q-5 -6 -9 -7t-15 -1h-91q-9 0 -9 5q0 3 7 12l110 118q6 8 13.5 11t20.5 3h85q16 0 26 -12l109 -120q8 -10 8 -13q0 -4 -9 -4h-97
q-10 0 -15 1.5t-10 6.5z" />
    <glyph glyph-name="Ycircumflex" unicode="&#x176;" horiz-adv-x="755" 
d="M729 731q0 -5 -4 -10l-235 -382q-6 -10 -7.5 -20.5t-1.5 -39.5v-252q0 -15 -7 -21t-23 -6h-148q-13 0 -18.5 5.5t-5.5 17.5v266q0 13 -3 21t-10 20l-235 386q-4 7 -4 12q0 14 21 14h176q13 0 19 -3.5t13 -15.5l135 -241q5 -10 9 -10q3 0 9 9l133 242q5 11 11.5 15t19.5 4
h139q17 0 17 -11zM406 876q-5 6 -9 10t-7 4q-5 0 -16 -14l-49 -54q-5 -6 -9 -7t-15 -1h-91q-9 0 -9 5q0 3 7 12l110 118q6 8 13.5 11t20.5 3h85q16 0 26 -12l109 -120q8 -10 8 -13q0 -4 -9 -4h-97q-10 0 -15 1.5t-10 6.5z" />
    <glyph glyph-name="ycircumflex" unicode="&#x177;" horiz-adv-x="578" 
d="M57.5 -161.5q-11.5 3.5 -11.5 16.5v90q0 18 28 18h69q30 0 50.5 18t20.5 39q0 4 -2 12l-194 471q-1 3 -1 8q0 8 5 13.5t14 5.5h148q9 0 15.5 -5t9.5 -13l97 -268q3 -10 8 -10t9 10l97 268q9 18 24 18h100q9 0 13.5 -5t4.5 -13l-2 -8l-200 -488q-31 -76 -64 -114.5
t-77 -52.5t-116 -14q-34 0 -45.5 3.5zM331 664q-5 6 -9 10t-7 4q-5 0 -16 -14l-49 -54q-5 -6 -9 -7t-15 -1h-91q-9 0 -9 5q0 3 7 12l110 118q6 8 13.5 11t20.5 3h85q16 0 26 -12l109 -120q8 -10 8 -13q0 -4 -9 -4h-97q-10 0 -15 1.5t-10 6.5z" />
    <glyph glyph-name="Ydieresis" unicode="&#x178;" horiz-adv-x="755" 
d="M729 731q0 -5 -4 -10l-235 -382q-6 -10 -7.5 -20.5t-1.5 -39.5v-252q0 -15 -7 -21t-23 -6h-148q-13 0 -18.5 5.5t-5.5 17.5v266q0 13 -3 21t-10 20l-235 386q-4 7 -4 12q0 14 21 14h176q13 0 19 -3.5t13 -15.5l135 -241q5 -10 9 -10q3 0 9 9l133 242q5 11 11.5 15t19.5 4
h139q17 0 17 -11zM356 840q0 -23 -26 -23h-108q-11 0 -15.5 5t-4.5 16v97q0 19 15 19h124q15 0 15 -17v-97zM579 840q0 -12 -6.5 -17.5t-20.5 -5.5h-107q-12 0 -16.5 5t-4.5 16v97q0 19 15 19h125q15 0 15 -17v-97z" />
    <glyph glyph-name="Zacute" unicode="&#x179;" horiz-adv-x="698" 
d="M35 4.5q-5 4.5 -5 18.5v40q0 14 3 21t16 26l323 469q4 5 4 10t-12 5h-284q-12 0 -16 5t-4 17v107q0 19 16 19h571q17 0 17 -18v-46q0 -10 -3 -17t-12 -20l-335 -479q-2 -4 -2 -6q0 -7 13 -7h314q20 0 20 -17v-112q0 -9 -5.5 -14.5t-16.5 -5.5h-583q-14 0 -19 4.5z
M507 878q2 -8 2 -10q0 -15 -20 -19l-232 -59q-8 -2 -10 -2q-11 0 -17 14l-13 39q-2 3 -2 9q0 9 9 13l237 100q2 1 6 1t8 -3t5 -9z" />
    <glyph glyph-name="zacute" unicode="&#x17a;" horiz-adv-x="532" 
d="M26 5q-5 5 -5 18v42q0 14 3.5 22t16.5 24l227 294q4 4 4 9q0 6 -13 6h-196q-11 0 -15.5 4.5t-4.5 16.5v71q0 8 4.5 13t12.5 5h427q8 0 12.5 -4.5t4.5 -12.5v-48q0 -11 -3 -18.5t-12 -20.5l-232 -297q-5 -7 -5 -10q0 -7 12 -7h222q20 0 20 -17v-75q0 -9 -5.5 -14.5
t-16.5 -5.5h-439q-14 0 -19 5zM418 666q2 -8 2 -10q0 -15 -20 -19l-232 -59q-8 -2 -10 -2q-11 0 -17 14l-13 39q-2 3 -2 9q0 9 9 13l237 100q2 1 6 1t8 -3t5 -9z" />
    <glyph glyph-name="Zdotaccent" unicode="&#x17b;" horiz-adv-x="698" 
d="M35 4.5q-5 4.5 -5 18.5v40q0 14 3 21t16 26l323 469q4 5 4 10t-12 5h-284q-12 0 -16 5t-4 17v107q0 19 16 19h571q17 0 17 -18v-46q0 -10 -3 -17t-12 -20l-335 -479q-2 -4 -2 -6q0 -7 13 -7h314q20 0 20 -17v-112q0 -9 -5.5 -14.5t-16.5 -5.5h-583q-14 0 -19 4.5z
M451 822q0 -14 -7 -20t-23 -6h-125q-14 0 -19 5.5t-5 17.5v114q0 21 18 21h145q16 0 16 -19v-113z" />
    <glyph glyph-name="zdotaccent" unicode="&#x17c;" horiz-adv-x="532" 
d="M26 5q-5 5 -5 18v42q0 14 3.5 22t16.5 24l227 294q4 4 4 9q0 6 -13 6h-196q-11 0 -15.5 4.5t-4.5 16.5v71q0 8 4.5 13t12.5 5h427q8 0 12.5 -4.5t4.5 -12.5v-48q0 -11 -3 -18.5t-12 -20.5l-232 -297q-5 -7 -5 -10q0 -7 12 -7h222q20 0 20 -17v-75q0 -9 -5.5 -14.5
t-16.5 -5.5h-439q-14 0 -19 5zM362 610q0 -14 -7 -20t-23 -6h-125q-14 0 -19 5.5t-5 17.5v114q0 21 18 21h145q16 0 16 -19v-113z" />
    <glyph glyph-name="Zcaron" unicode="&#x17d;" horiz-adv-x="698" 
d="M35 4.5q-5 4.5 -5 18.5v40q0 14 3 21t16 26l323 469q4 5 4 10t-12 5h-284q-12 0 -16 5t-4 17v107q0 19 16 19h571q17 0 17 -18v-46q0 -10 -3 -17t-12 -20l-335 -479q-2 -4 -2 -6q0 -7 13 -7h314q20 0 20 -17v-112q0 -9 -5.5 -14.5t-16.5 -5.5h-583q-14 0 -19 4.5z
M430 953.5q5 1.5 15 1.5h97q9 0 9 -4q0 -3 -8 -13l-109 -121q-12 -12 -26 -12h-85q-22 0 -34 14l-110 119q-7 9 -7 12q0 5 9 5h91h5q7 0 11 -1.5t8 -7.5l49 -54q10 -13 16 -13q3 0 7 3.5t9 9.5l43 54q5 6 10 7.5z" />
    <glyph glyph-name="zcaron" unicode="&#x17e;" horiz-adv-x="532" 
d="M26 5q-5 5 -5 18v42q0 14 3.5 22t16.5 24l227 294q4 4 4 9q0 6 -13 6h-196q-11 0 -15.5 4.5t-4.5 16.5v71q0 8 4.5 13t12.5 5h427q8 0 12.5 -4.5t4.5 -12.5v-48q0 -11 -3 -18.5t-12 -20.5l-232 -297q-5 -7 -5 -10q0 -7 12 -7h222q20 0 20 -17v-75q0 -9 -5.5 -14.5
t-16.5 -5.5h-439q-14 0 -19 5zM341 741.5q5 1.5 15 1.5h97q9 0 9 -4q0 -3 -8 -13l-109 -121q-12 -12 -26 -12h-85q-22 0 -34 14l-110 119q-7 9 -7 12q0 5 9 5h91h5q7 0 11 -1.5t8 -7.5l49 -54q10 -13 16 -13q3 0 7 3.5t9 9.5l43 54q5 6 10 7.5z" />
    <glyph glyph-name="uni018F" unicode="&#x18f;" horiz-adv-x="775" 
d="M494.5 549.5q-29.5 46.5 -106.5 46.5q-39 0 -66.5 -15.5t-47 -40t-45.5 -67.5q-3 -5 -9 -5t-15 4l-124 61q-9 5 -9 13q0 7 4 15q45 89 122 140t189 51q110 0 189.5 -48.5t120.5 -133.5t41 -192t-47 -196t-128.5 -140.5t-178.5 -51.5q-172 0 -259.5 104.5t-87.5 294.5
q0 17 3.5 23.5t17.5 6.5h447q19 0 19 20q0 64 -29.5 110.5zM274 292q-12 0 -16 -3t-4 -13q0 -61 33.5 -103.5t94.5 -42.5q69 0 100 40.5t40 120.5z" />
    <glyph glyph-name="florin" unicode="&#x192;" horiz-adv-x="537" 
d="M487.5 524.5q4.5 -5.5 2.5 -14.5l-15 -84q-3 -17 -22 -17h-72q-11 0 -13 -12l-76 -429q-11 -65 -58 -102.5t-118 -37.5h-109q-25 0 -22 24l12 75q2 8 7 13t13 5h44q29 0 41.5 13.5t19.5 52.5l68 388v4q0 6 -6 6h-59q-9 0 -13.5 4t-3.5 13l16 84q1 9 7.5 14.5t17.5 5.5h51
q7 0 10.5 4t5.5 12l10 57q11 65 58 102t118 37h107q25 0 22 -23l-12 -76q-2 -8 -7 -13t-13 -5h-47q-20 0 -37.5 -16t-21.5 -39l-4 -28l-1 -4q0 -8 11 -8h73q11 0 15.5 -5.5z" />
    <glyph glyph-name="uni01C4" unicode="&#x1c4;" horiz-adv-x="1440" 
d="M192 742q109 0 138 -1q197 -7 295.5 -103.5t98.5 -264.5q0 -112 -44.5 -196t-133.5 -130.5t-218 -46.5h-241q-14 0 -20 6t-6 21v692q0 13 5 18t19 5h107zM263 587v-432q0 -8 2.5 -11t10.5 -3h13q112 0 167.5 54.5t55.5 179.5q0 112 -44.5 164t-134.5 59l-61 3
q-9 0 -9 -14zM777 4.5q-5 4.5 -5 18.5v40q0 14 3 21t16 26l323 469q4 5 4 10t-12 5h-284q-12 0 -16 5t-4 17v107q0 19 16 19h571q17 0 17 -18v-46q0 -10 -3 -17t-12 -20l-335 -479q-2 -4 -2 -6q0 -7 13 -7h314q20 0 20 -17v-112q0 -9 -5.5 -14.5t-16.5 -5.5h-583
q-14 0 -19 4.5zM1172 953.5q5 1.5 15 1.5h97q9 0 9 -4q0 -3 -8 -13l-109 -121q-12 -12 -26 -12h-85q-22 0 -34 14l-110 119q-7 9 -7 12q0 5 9 5h91h5q7 0 11 -1.5t8 -7.5l49 -54q10 -13 16 -13q3 0 7 3.5t9 9.5l43 54q5 6 10 7.5z" />
    <glyph glyph-name="uni01C5" unicode="&#x1c5;" horiz-adv-x="1294" 
d="M192 742q109 0 138 -1q197 -7 295.5 -103.5t98.5 -264.5q0 -112 -44.5 -196t-133.5 -130.5t-218 -46.5h-241q-14 0 -20 6t-6 21v692q0 13 5 18t19 5h107zM263 587v-432q0 -8 2.5 -11t10.5 -3h13q112 0 167.5 54.5t55.5 179.5q0 112 -44.5 164t-134.5 59l-61 3
q-9 0 -9 -14zM788 5q-5 5 -5 18v42q0 14 3.5 22t16.5 24l227 294q4 4 4 9q0 6 -13 6h-196q-11 0 -15.5 4.5t-4.5 16.5v71q0 8 4.5 13t12.5 5h427q8 0 12.5 -4.5t4.5 -12.5v-48q0 -11 -3 -18.5t-12 -20.5l-232 -297q-5 -7 -5 -10q0 -7 12 -7h222q20 0 20 -17v-75
q0 -9 -5.5 -14.5t-16.5 -5.5h-439q-14 0 -19 5zM1103 741.5q5 1.5 15 1.5h97q9 0 9 -4q0 -3 -8 -13l-109 -121q-12 -12 -26 -12h-85q-22 0 -34 14l-110 119q-7 9 -7 12q0 5 9 5h91h5q7 0 11 -1.5t8 -7.5l49 -54q10 -13 16 -13q3 0 7 3.5t9 9.5l43 54q5 6 10 7.5z" />
    <glyph glyph-name="uni01C6" unicode="&#x1c6;" horiz-adv-x="1145" 
d="M390 21v24q0 4 -2 6t-4 2q-3 0 -9 -4q-30 -29 -63 -44t-80 -15q-92 0 -148 70t-56 202q0 82 29 145t78 98t107 35q38 0 68 -12t59 -40q6 -6 12 -6q7 0 7 14v227q0 19 16 19h143q18 0 18 -21v-698q0 -12 -5.5 -17.5t-19.5 -5.5h-127q-23 0 -23 21zM348.5 417.5
q-18.5 10.5 -44.5 10.5q-45 0 -70.5 -39.5t-25.5 -125.5q0 -87 24.5 -125.5t70.5 -38.5q35 0 59.5 22t24.5 54v210q-20 22 -38.5 32.5zM639 5q-5 5 -5 18v42q0 14 3.5 22t16.5 24l227 294q4 4 4 9q0 6 -13 6h-196q-11 0 -15.5 4.5t-4.5 16.5v71q0 8 4.5 13t12.5 5h427
q8 0 12.5 -4.5t4.5 -12.5v-48q0 -11 -3 -18.5t-12 -20.5l-232 -297q-5 -7 -5 -10q0 -7 12 -7h222q20 0 20 -17v-75q0 -9 -5.5 -14.5t-16.5 -5.5h-439q-14 0 -19 5zM954 741.5q5 1.5 15 1.5h97q9 0 9 -4q0 -3 -8 -13l-109 -121q-12 -12 -26 -12h-85q-22 0 -34 14l-110 119
q-7 9 -7 12q0 5 9 5h91h5q7 0 11 -1.5t8 -7.5l49 -54q10 -13 16 -13q3 0 7 3.5t9 9.5l43 54q5 6 10 7.5z" />
    <glyph glyph-name="uni01C7" unicode="&#x1c7;" horiz-adv-x="1093" 
d="M65.5 736.5q4.5 5.5 12.5 5.5h168q17 0 17 -19v-563q0 -7 2.5 -10t8.5 -3h310q21 0 21 -17v-110q0 -9 -6 -14.5t-17 -5.5h-497q-14 0 -19 5.5t-5 17.5v698q0 10 4.5 15.5zM982.5 39.5q-54.5 -49.5 -168.5 -49.5q-52 0 -122 14q-16 3 -22 11.5t-5 26.5l9 103q2 23 22 20
q6 -1 23 -5t37 -4q40 0 59.5 22t19.5 74v469q0 21 18 21h167q17 0 17 -19v-520q0 -114 -54.5 -163.5z" />
    <glyph glyph-name="uni01C8" unicode="&#x1c8;" horiz-adv-x="910" 
d="M65.5 736.5q4.5 5.5 12.5 5.5h168q17 0 17 -19v-563q0 -7 2.5 -10t8.5 -3h310q21 0 21 -17v-110q0 -9 -6 -14.5t-17 -5.5h-497q-14 0 -19 5.5t-5 17.5v698q0 10 4.5 15.5zM862 611q0 -14 -6.5 -20.5t-22.5 -6.5h-125q-14 0 -19.5 6t-5.5 18v112q0 10 5.5 16t13.5 6h143
q17 0 17 -20v-111zM813.5 -123q-48.5 -47 -148.5 -47q-42 0 -55 4.5t-13 18.5v91q0 8 4.5 15t13.5 9l38 5q15 3 23 14.5t8 37.5v484q0 21 18 21h143q17 0 17 -19v-493q0 -94 -48.5 -141z" />
    <glyph glyph-name="uni01C9" unicode="&#x1c9;" horiz-adv-x="550" 
d="M227 27q0 -15 -7 -21t-23 -6h-125q-14 0 -19.5 5.5t-5.5 17.5l4 698q0 21 18 21h141q8 0 12.5 -5t4.5 -14v-696zM502 611q0 -14 -6.5 -20.5t-22.5 -6.5h-125q-14 0 -19.5 6t-5.5 18v112q0 10 5.5 16t13.5 6h143q17 0 17 -20v-111zM453.5 -123q-48.5 -47 -148.5 -47
q-42 0 -55 4.5t-13 18.5v91q0 8 4.5 15t13.5 9l38 5q15 3 23 14.5t8 37.5v484q0 21 18 21h143q17 0 17 -19v-493q0 -94 -48.5 -141z" />
    <glyph glyph-name="uni01CA" unicode="&#x1ca;" horiz-adv-x="1218" 
d="M685 742q15 0 15 -16v-709q0 -8 -6 -12.5t-15 -4.5h-121q-8 0 -13.5 2.5t-12.5 11.5l-296 408q-4 6 -7 5.5t-3 -6.5v-401v-3q0 -9 -5 -13t-17 -4h-121q-22 0 -22 19v702q0 11 4.5 16t15.5 5h143q12 0 17.5 -3t13.5 -13l266 -375q6 -8 11 -8t5 12v368q0 19 20 19h128z
M1107.5 39.5q-54.5 -49.5 -168.5 -49.5q-52 0 -122 14q-16 3 -22 11.5t-5 26.5l9 103q2 23 22 20q6 -1 23 -5t37 -4q40 0 59.5 22t19.5 74v469q0 21 18 21h167q17 0 17 -19v-520q0 -114 -54.5 -163.5z" />
    <glyph glyph-name="uni01CB" unicode="&#x1cb;" horiz-adv-x="1035" 
d="M685 742q15 0 15 -16v-709q0 -8 -6 -12.5t-15 -4.5h-121q-8 0 -13.5 2.5t-12.5 11.5l-296 408q-4 6 -7 5.5t-3 -6.5v-401v-3q0 -9 -5 -13t-17 -4h-121q-22 0 -22 19v702q0 11 4.5 16t15.5 5h143q12 0 17.5 -3t13.5 -13l266 -375q6 -8 11 -8t5 12v368q0 19 20 19h128z
M987 611q0 -14 -6.5 -20.5t-22.5 -6.5h-125q-14 0 -19.5 6t-5.5 18v112q0 10 5.5 16t13.5 6h143q17 0 17 -20v-111zM938.5 -123q-48.5 -47 -148.5 -47q-42 0 -55 4.5t-13 18.5v91q0 8 4.5 15t13.5 9l38 5q15 3 23 14.5t8 37.5v484q0 21 18 21h143q17 0 17 -19v-493
q0 -94 -48.5 -141z" />
    <glyph glyph-name="uni01CC" unicode="&#x1cc;" horiz-adv-x="875" 
d="M53.5 5q-5.5 5 -5.5 18v486q0 21 17 21h142q17 0 17 -18v-48q0 -8 5 -8q3 0 7 4q78 80 164 80q71 0 114.5 -43.5t43.5 -116.5v-353q0 -27 -28 -27h-129q-12 0 -16.5 5t-4.5 18v332q0 27 -17 42.5t-46 15.5q-27 0 -48.5 -13.5t-42.5 -42.5v-331q0 -14 -7 -20t-23 -6h-124
q-13 0 -18.5 5zM827 611q0 -14 -6.5 -20.5t-22.5 -6.5h-125q-14 0 -19.5 6t-5.5 18v112q0 10 5.5 16t13.5 6h143q17 0 17 -20v-111zM778.5 -123q-48.5 -47 -148.5 -47q-42 0 -55 4.5t-13 18.5v91q0 8 4.5 15t13.5 9l38 5q15 3 23 14.5t8 37.5v484q0 21 18 21h143
q17 0 17 -19v-493q0 -94 -48.5 -141z" />
    <glyph glyph-name="uni01EA" unicode="&#x1ea;" horiz-adv-x="777" 
d="M423 -30q-18 -15 -18 -34q0 -16 7.5 -23t24.5 -7q27 0 57 15q6 3 10 3q7 0 7 -13v-47q0 -11 -9 -17q-15 -8 -43.5 -14t-61.5 -6q-55 0 -86 22t-31 64q0 24 13.5 43t47.5 36q-94 10 -162.5 59t-105 130t-36.5 188q0 116 43.5 202.5t123 133.5t185.5 47q105 0 184.5 -47
t123 -133.5t43.5 -202.5q0 -144 -66.5 -241t-184.5 -126q-48 -17 -66 -32zM282 185q33 -55 108 -55q73 0 105.5 55t32.5 181q0 130 -33.5 188.5t-105.5 58.5q-73 0 -106.5 -58.5t-33.5 -188.5q0 -126 33 -181z" />
    <glyph glyph-name="uni01EB" unicode="&#x1eb;" 
d="M320.5 -29.5q-18.5 -15.5 -18.5 -34.5q0 -16 7.5 -23t24.5 -7q27 0 57 15q6 3 10 3q7 0 7 -13v-47q0 -11 -9 -17q-15 -8 -43.5 -14t-61.5 -6q-55 0 -86 22t-31 64q0 25 14.5 44.5t51.5 37.5q-99 17 -158 89.5t-59 177.5q0 81 35.5 144.5t98 98.5t140.5 35q81 0 143 -35.5
t96.5 -99t34.5 -143.5q0 -95 -50.5 -164.5t-135.5 -95.5q-49 -16 -67.5 -31.5zM229.5 145.5q23.5 -39.5 70.5 -39.5q48 0 71 39t23 121t-23.5 122t-70.5 40t-70.5 -40t-23.5 -122q0 -81 23.5 -120.5z" />
    <glyph glyph-name="uni01F1" unicode="&#x1f1;" horiz-adv-x="1423" 
d="M192 742q109 0 138 -1q197 -7 295.5 -103.5t98.5 -264.5q0 -112 -44.5 -196t-133.5 -130.5t-218 -46.5h-241q-14 0 -20 6t-6 21v692q0 13 5 18t19 5h107zM263 587v-432q0 -8 2.5 -11t10.5 -3h13q112 0 167.5 54.5t55.5 179.5q0 112 -44.5 164t-134.5 59l-61 3
q-9 0 -9 -14zM760 4.5q-5 4.5 -5 18.5v40q0 14 3 21t16 26l323 469q4 5 4 10t-12 5h-284q-12 0 -16 5t-4 17v107q0 19 16 19h571q17 0 17 -18v-46q0 -10 -3 -17t-12 -20l-335 -479q-2 -4 -2 -6q0 -7 13 -7h314q20 0 20 -17v-112q0 -9 -5.5 -14.5t-16.5 -5.5h-583
q-14 0 -19 4.5z" />
    <glyph glyph-name="uni01F2" unicode="&#x1f2;" horiz-adv-x="1267" 
d="M192 742q109 0 138 -1q197 -7 295.5 -103.5t98.5 -264.5q0 -112 -44.5 -196t-133.5 -130.5t-218 -46.5h-241q-14 0 -20 6t-6 21v692q0 13 5 18t19 5h107zM263 587v-432q0 -8 2.5 -11t10.5 -3h13q112 0 167.5 54.5t55.5 179.5q0 112 -44.5 164t-134.5 59l-61 3
q-9 0 -9 -14zM761 5q-5 5 -5 18v42q0 14 3.5 22t16.5 24l227 294q4 4 4 9q0 6 -13 6h-196q-11 0 -15.5 4.5t-4.5 16.5v71q0 8 4.5 13t12.5 5h427q8 0 12.5 -4.5t4.5 -12.5v-48q0 -11 -3 -18.5t-12 -20.5l-232 -297q-5 -7 -5 -10q0 -7 12 -7h222q20 0 20 -17v-75
q0 -9 -5.5 -14.5t-16.5 -5.5h-439q-14 0 -19 5z" />
    <glyph glyph-name="uni01F3" unicode="&#x1f3;" horiz-adv-x="1145" 
d="M390 21v24q0 4 -2 6t-4 2q-3 0 -9 -4q-30 -29 -63 -44t-80 -15q-92 0 -148 70t-56 202q0 82 29 145t78 98t107 35q38 0 68 -12t59 -40q6 -6 12 -6q7 0 7 14v227q0 19 16 19h143q18 0 18 -21v-698q0 -12 -5.5 -17.5t-19.5 -5.5h-127q-23 0 -23 21zM348.5 417.5
q-18.5 10.5 -44.5 10.5q-45 0 -70.5 -39.5t-25.5 -125.5q0 -87 24.5 -125.5t70.5 -38.5q35 0 59.5 22t24.5 54v210q-20 22 -38.5 32.5zM639 5q-5 5 -5 18v42q0 14 3.5 22t16.5 24l227 294q4 4 4 9q0 6 -13 6h-196q-11 0 -15.5 4.5t-4.5 16.5v71q0 8 4.5 13t12.5 5h427
q8 0 12.5 -4.5t4.5 -12.5v-48q0 -11 -3 -18.5t-12 -20.5l-232 -297q-5 -7 -5 -10q0 -7 12 -7h222q20 0 20 -17v-75q0 -9 -5.5 -14.5t-16.5 -5.5h-439q-14 0 -19 5z" />
    <glyph glyph-name="uni01F4" unicode="&#x1f4;" horiz-adv-x="757" 
d="M199.5 37.5q-77.5 47.5 -120 133t-42.5 197.5q0 115 44.5 202t124.5 134.5t184 47.5q83 0 149 -30.5t107 -80t53 -104.5l2 -16q0 -9 -3.5 -12t-11.5 -4l-152 -23q-10 0 -13 3.5t-6 14.5q-8 49 -41 81t-88 32q-68 0 -103 -56t-35 -183q0 -133 37 -188.5t108 -55.5
q50 0 81 24.5t44 66.5l2 19q2 6 2 8q0 8 -11 8h-107q-10 0 -14 4t-4 16v86q0 15 19 15l274 -2q16 0 24.5 -7.5t8.5 -19.5v-332q0 -7 -4.5 -11.5t-11.5 -4.5h-35q-19 0 -29 18l-35 64q-2 4 -4.5 3.5t-5.5 -4.5q-38 -41 -84 -66t-124 -25q-102 0 -179.5 47.5zM526 878
q2 -8 2 -10q0 -15 -20 -19l-232 -59q-8 -2 -10 -2q-11 0 -17 14l-13 39q-2 3 -2 9q0 9 9 13l237 100q2 1 6 1t8 -3t5 -9z" />
    <glyph glyph-name="uni01F5" unicode="&#x1f5;" horiz-adv-x="643" 
d="M618.5 552q5.5 -6 5.5 -18v-79q0 -15 -6.5 -21.5t-18.5 -3.5q-18 5 -35 5q-8 0 -11 -1q-27 -1 -20 -23q8 -22 8 -38q0 -46 -29 -83t-85.5 -59t-135.5 -22q-52 0 -76 -8t-24 -22q0 -12 12 -16.5t40 -6.5l148 -9q104 -7 155 -45.5t51 -101.5q0 -52 -33.5 -91.5t-99.5 -61.5
t-161 -22q-152 0 -227 31t-75 95q0 31 25.5 51.5t71.5 35.5q6 2 6 5t-6 6q-62 29 -62 78q0 56 103 98q6 3 7.5 5.5t-5.5 6.5q-49 21 -74.5 55.5t-25.5 79.5q0 76 67.5 121t193.5 45q54 0 96 -12t68 -33q6 -5 14 -5q9 0 15 7q19 25 52.5 44t56.5 19q9 0 14.5 -6zM356.5 315
q22.5 22 22.5 55q0 37 -22.5 60t-67.5 23q-42 0 -65.5 -23.5t-23.5 -59.5q0 -33 24 -55t65 -22q45 0 67.5 22zM220 19q-31 2 -52.5 -11.5t-21.5 -33.5q0 -33 38 -50t128 -17q63 0 96.5 16t33.5 44q0 19 -19 31.5t-54 13.5zM448 666q2 -8 2 -10q0 -15 -20 -19l-232 -59
q-8 -2 -10 -2q-11 0 -17 14l-13 39q-2 3 -2 9q0 9 9 13l237 100q2 1 6 1t8 -3t5 -9z" />
    <glyph glyph-name="Aringacute" unicode="&#x1fa;" horiz-adv-x="700" 
d="M708 20q0 -9 -4 -14.5t-11 -5.5h-173q-15 0 -20 16l-42 130q-3 6 -5.5 8.5t-8.5 2.5h-214q-11 0 -14 -11l-44 -132q-5 -14 -22 -14h-134q-8 0 -12.5 5t-4.5 14q0 7 3 14l236 688q4 11 9 15.5t15 5.5q-16 26 -16 57q0 34 21 59.5t53 35.5l10 41q4 16 13 22.5t23 6.5h42
q16 0 16 -16q0 -5 -3 -11l-20 -47q29 -12 46 -37t17 -56q0 -30 -16 -56q19 -5 25 -24l233 -686q2 -8 2 -11zM318.5 830.5q-14.5 -13.5 -14.5 -34.5q0 -20 15 -35.5t35 -15.5q21 0 35 15t14 36t-14 34.5t-35 13.5t-35.5 -13.5zM409 319q0 6 -1 9l-66 201q-1 6 -6 6
q-3 0 -6 -6l-66 -201q-2 -4 -2 -10q0 -9 11 -9h126q10 0 10 10z" />
    <glyph glyph-name="aringacute" unicode="&#x1fb;" horiz-adv-x="568" 
d="M184 -10q-74 0 -118 41t-44 105q0 57 36 100.5t103.5 67.5t159.5 25l20 1q16 0 16 14v19q0 33 -18.5 51t-53.5 18q-28 0 -51.5 -12.5t-38.5 -40.5q-3 -6 -6 -8.5t-9 -2.5t-10 1l-116 24q-10 2 -10 12q0 6 4 17q46 118 245 118q125 0 179 -43.5t54 -122.5v-349
q0 -15 -4 -20t-17 -5h-121q-11 0 -16 8t-8 23l-1 15q-1 9 -7 9t-17 -9q-66 -56 -151 -56zM353.5 243q-3.5 4 -11.5 4l-16 -1q-27 -1 -57.5 -10.5t-52 -29t-21.5 -46.5q0 -26 18.5 -41t49.5 -15q37 0 66 23q28 24 28 44v59q0 9 -3.5 13zM441 872q2 -8 2 -10q0 -15 -20 -19
l-232 -59q-8 -2 -10 -2q-11 0 -17 14l-13 39q-2 3 -2 9q0 9 9 13l237 100q2 1 6 1t8 -3t5 -9zM384.5 591.5q-33.5 -33.5 -80.5 -33.5q-48 0 -81.5 34t-33.5 83q0 46 34 78.5t81 32.5t80.5 -33t33.5 -80q0 -48 -33.5 -81.5zM337.5 707q-14.5 14 -34.5 14q-21 0 -36 -14
t-15 -35q0 -20 15.5 -35t35.5 -15t34.5 15t14.5 35q0 21 -14.5 35z" />
    <glyph glyph-name="AEacute" unicode="&#x1fc;" horiz-adv-x="1105" 
d="M1064 143q5 -4 5 -13v-110q0 -20 -22 -20h-516q-13 0 -19 5.5t-6 17.5v121q0 13 -12 13h-208q-11 0 -16 -11l-69 -132q-7 -14 -24 -14h-134q-15 0 -15 15q0 8 6 18l362 688q6 12 12.5 16.5t18.5 4.5h616q16 0 16 -19l-1 -104q0 -24 -23 -24h-305q-22 0 -22 -18v-113
q0 -9 5 -14t12 -5h192q20 0 20 -18v-111q0 -6 -4 -10.5t-13 -4.5h-196q-7 0 -11.5 -4t-4.5 -10v-127q0 -7 2.5 -10t9.5 -3h329q10 0 15 -4zM506 328v227q0 10 -3.5 15.5t-9.5 5.5q-13 0 -23 -20l-120 -228q-4 -7 -4 -12q0 -7 10 -7h133q17 0 17 19zM861 878q2 -8 2 -10
q0 -15 -20 -19l-232 -59q-8 -2 -10 -2q-11 0 -17 14l-13 39q-2 3 -2 9q0 9 9 13l237 100q2 1 6 1t8 -3t5 -9z" />
    <glyph glyph-name="aeacute" unicode="&#x1fd;" horiz-adv-x="917" 
d="M538 214q0 -48 33 -76.5t83 -28.5q32 0 59.5 14.5t59.5 46.5q4 4 8 4q6 0 11 -2l82 -34q8 -3 8 -11q0 -6 -5 -11q-48 -70 -104.5 -98t-141.5 -28q-64 0 -117.5 23.5t-90.5 62.5q-4 6 -10 0q-44 -44 -95.5 -65t-123.5 -21q-82 0 -127 41t-45 111q0 81 71.5 130t209.5 56
l36 2q18 0 18 14v19q0 33 -18 51t-54 18q-28 0 -51.5 -12.5t-38.5 -40.5q-3 -6 -6 -8.5t-8 -2.5q-6 0 -11 1l-116 24q-4 1 -6 6t-2 11q0 9 2 12q31 61 85 89.5t157 28.5q131 -1 184 -51q66 51 154 51q77 0 137.5 -33.5t94.5 -97.5t34 -152q0 -14 -3 -19t-15 -6h-322
q-16 0 -16 -18zM567.5 406q-27.5 -28 -26.5 -79l163 -1q10 0 13.5 3t3.5 12q0 20 -10 41.5t-29.5 36.5t-46.5 15q-40 0 -67.5 -28zM339 240l-25 -2q-45 -3 -82 -25.5t-37 -58.5q0 -27 18.5 -42t51.5 -15q38 1 65 19t27 46v61q0 17 -18 17zM601 666q2 -8 2 -10q0 -15 -20 -19
l-232 -59q-8 -2 -10 -2q-11 0 -17 14l-13 39q-2 3 -2 9q0 9 9 13l237 100q2 1 6 1t8 -3t5 -9z" />
    <glyph glyph-name="Oslashacute" unicode="&#x1fe;" horiz-adv-x="775" 
d="M769 679q0 -6 -6 -12l-77 -77q53 -94 53 -221q0 -115 -43 -200.5t-122 -132t-185 -46.5q-137 0 -229 75l-59 -59q-11 -11 -20 -11q-10 0 -20 10l-36 37q-11 13 -11 20q0 5 7 14l70 70q-54 93 -54 223q0 116 43.5 202.5t123 133.5t185.5 47q136 0 229 -80l67 66q9 9 18 9
q6 0 10 -4l50 -51q6 -6 6 -13zM255 306l240 245q-32 62 -106 62t-107 -58.5t-33 -188.5q0 -33 6 -60zM521 428l-239 -243q32 -55 107 -55q74 0 105.5 54.5t31.5 181.5q0 40 -5 62zM533 878q2 -8 2 -10q0 -15 -20 -19l-232 -59q-8 -2 -10 -2q-11 0 -17 14l-13 39q-2 3 -2 9
q0 9 9 13l237 100q2 1 6 1t8 -3t5 -9z" />
    <glyph glyph-name="oslashacute" unicode="&#x1ff;" 
d="M580 479q0 -6 -6 -12l-46 -43q46 -69 46 -162q0 -78 -35 -140t-97.5 -97t-142.5 -35q-102 0 -174 56l-37 -35q-11 -11 -20 -11q-10 0 -19 11l-18 19q-11 13 -11 20q0 6 8 14l43 40q-45 68 -45 158q0 81 35.5 144.5t98 98.5t140.5 35q101 0 174 -57l40 38q9 9 18 9
q6 0 11 -5l31 -33q6 -6 6 -13zM207 232l164 155q-22 41 -71 41q-47 0 -70.5 -40t-23.5 -122q0 -23 1 -34zM393 297l-163 -153q23 -38 70 -38q48 0 71 39t23 121q0 21 -1 31zM445 666q2 -8 2 -10q0 -15 -20 -19l-232 -59q-8 -2 -10 -2q-11 0 -17 14l-13 39q-2 3 -2 9
q0 9 9 13l237 100q2 1 6 1t8 -3t5 -9z" />
    <glyph glyph-name="uni0200" unicode="&#x200;" horiz-adv-x="785" 
d="M32.5 5q-4.5 5 -4.5 14q0 7 3 14l246 688q4 12 10 16.5t18 4.5h174q24 0 34 -25l243 -686q1 -3 1 -10q0 -9 -3.5 -15t-10.5 -6h-173q-16 0 -21 16l-44 130q-3 6 -5.5 8.5t-9.5 2.5h-227q-11 0 -14 -11l-47 -132q-5 -14 -22 -14h-135q-8 0 -12.5 5zM445 309q10 0 10 10
q0 6 -1 9l-72 201q-1 6 -6 6q-4 0 -6 -6l-73 -201q-2 -4 -2 -10q0 -9 12 -9h138zM213 964q6 0 11 -5l137 -123q4 -3 4 -8q0 -8 -7 -15l-30 -32q-6 -7 -12 -7q-3 0 -17 7l-140 86q-12 7 -12 16q0 8 8 18l47 57q4 6 11 6zM421 964q6 0 11 -5l137 -123q4 -3 4 -9q0 -7 -7 -14
l-29 -32q-6 -7 -12 -7q-4 0 -18 7l-140 86q-12 7 -12 16q0 8 8 18l47 57q5 6 11 6z" />
    <glyph glyph-name="uni0201" unicode="&#x201;" horiz-adv-x="568" 
d="M184 -10q-74 0 -118 41t-44 105q0 57 36 100.5t103.5 67.5t159.5 25l20 1q16 0 16 14v19q0 33 -18.5 51t-53.5 18q-28 0 -51.5 -12.5t-38.5 -40.5q-3 -6 -6 -8.5t-9 -2.5t-10 1l-116 24q-10 2 -10 12q0 6 4 17q46 118 245 118q125 0 179 -43.5t54 -122.5v-349
q0 -15 -4 -20t-17 -5h-121q-11 0 -16 8t-8 23l-1 15q-1 9 -7 9t-17 -9q-66 -56 -151 -56zM353.5 243q-3.5 4 -11.5 4l-16 -1q-27 -1 -57.5 -10.5t-52 -29t-21.5 -46.5q0 -26 18.5 -41t49.5 -15q37 0 66 23q28 24 28 44v59q0 9 -3.5 13zM117 752q6 0 11 -5l137 -123
q4 -3 4 -8q0 -8 -7 -15l-30 -32q-6 -7 -12 -7q-3 0 -17 7l-140 86q-12 7 -12 16q0 8 8 18l47 57q4 6 11 6zM325 752q6 0 11 -5l137 -123q4 -3 4 -9q0 -7 -7 -14l-29 -32q-6 -7 -12 -7q-4 0 -18 7l-140 86q-12 7 -12 16q0 8 8 18l47 57q5 6 11 6z" />
    <glyph glyph-name="uni0202" unicode="&#x202;" horiz-adv-x="785" 
d="M32.5 5q-4.5 5 -4.5 14q0 7 3 14l246 688q4 12 10 16.5t18 4.5h174q24 0 34 -25l243 -686q1 -3 1 -10q0 -9 -3.5 -15t-10.5 -6h-173q-16 0 -21 16l-44 130q-3 6 -5.5 8.5t-9.5 2.5h-227q-11 0 -14 -11l-47 -132q-5 -14 -22 -14h-135q-8 0 -12.5 5zM445 309q10 0 10 10
q0 6 -1 9l-72 201q-1 6 -6 6q-4 0 -6 -6l-73 -201q-2 -4 -2 -10q0 -9 12 -9h138zM491 814q-6 0 -10 2t-8 10q-12 20 -36 33.5t-48 13.5q-26 0 -49 -13t-36 -33q-5 -8 -9.5 -10.5t-12.5 -2.5h-71q-7 0 -9.5 4.5t-0.5 10.5q19 62 70 94t118 32t117.5 -32.5t69.5 -91.5
q1 -3 1 -8q0 -9 -13 -9h-73z" />
    <glyph glyph-name="uni0203" unicode="&#x203;" horiz-adv-x="568" 
d="M184 -10q-74 0 -118 41t-44 105q0 57 36 100.5t103.5 67.5t159.5 25l20 1q16 0 16 14v19q0 33 -18.5 51t-53.5 18q-28 0 -51.5 -12.5t-38.5 -40.5q-3 -6 -6 -8.5t-9 -2.5t-10 1l-116 24q-10 2 -10 12q0 6 4 17q46 118 245 118q125 0 179 -43.5t54 -122.5v-349
q0 -15 -4 -20t-17 -5h-121q-11 0 -16 8t-8 23l-1 15q-1 9 -7 9t-17 -9q-66 -56 -151 -56zM353.5 243q-3.5 4 -11.5 4l-16 -1q-27 -1 -57.5 -10.5t-52 -29t-21.5 -46.5q0 -26 18.5 -41t49.5 -15q37 0 66 23q28 24 28 44v59q0 9 -3.5 13zM395 602q-6 0 -10 2t-8 10
q-12 20 -36 33.5t-48 13.5q-26 0 -49 -13t-36 -33q-5 -8 -9.5 -10.5t-12.5 -2.5h-71q-7 0 -9.5 4.5t-0.5 10.5q19 62 70 94t118 32t117.5 -32.5t69.5 -91.5q1 -3 1 -8q0 -9 -13 -9h-73z" />
    <glyph glyph-name="uni0204" unicode="&#x204;" horiz-adv-x="663" 
d="M78 742h523q16 0 16 -19v-104q0 -11 -6 -17.5t-18 -6.5h-309q-21 0 -21 -18v-113q0 -9 4.5 -14t11.5 -5h195q19 0 19 -18v-111q0 -15 -16 -15h-199q-15 0 -15 -14v-127q0 -7 2.5 -10t8.5 -3h333q10 0 15 -4t5 -13v-110q0 -20 -21 -20h-521q-13 0 -18.5 5.5t-5.5 17.5v698
q0 21 17 21zM161 964q6 0 11 -5l137 -123q4 -3 4 -8q0 -8 -7 -15l-30 -32q-6 -7 -12 -7q-3 0 -17 7l-140 86q-12 7 -12 16q0 8 8 18l47 57q4 6 11 6zM369 964q6 0 11 -5l137 -123q4 -3 4 -9q0 -7 -7 -14l-29 -32q-6 -7 -12 -7q-4 0 -18 7l-140 86q-12 7 -12 16q0 8 8 18
l47 57q5 6 11 6z" />
    <glyph glyph-name="uni0205" unicode="&#x205;" horiz-adv-x="588" 
d="M242 137.5q33 -28.5 84 -28.5q31 0 58.5 14t59.5 47q4 4 9 4t10 -2l82 -34q9 -4 9 -11q0 -4 -5 -11q-50 -72 -106 -99t-141 -27q-78 0 -141 34t-99 94.5t-36 138.5q0 83 37 147.5t99.5 100t136.5 35.5q78 0 138 -33.5t94 -97.5t34 -152q0 -14 -2.5 -19t-14.5 -6h-325
q-14 0 -14 -16q0 -50 33 -78.5zM375 326q10 0 13.5 2.5t3.5 11.5q0 34 -22.5 64t-62.5 30q-42 0 -69 -29t-26 -78zM124 752q6 0 11 -5l137 -123q4 -3 4 -8q0 -8 -7 -15l-30 -32q-6 -7 -12 -7q-3 0 -17 7l-140 86q-12 7 -12 16q0 8 8 18l47 57q4 6 11 6zM332 752q6 0 11 -5
l137 -123q4 -3 4 -9q0 -7 -7 -14l-29 -32q-6 -7 -12 -7q-4 0 -18 7l-140 86q-12 7 -12 16q0 8 8 18l47 57q5 6 11 6z" />
    <glyph glyph-name="uni0206" unicode="&#x206;" horiz-adv-x="663" 
d="M78 742h523q16 0 16 -19v-104q0 -11 -6 -17.5t-18 -6.5h-309q-21 0 -21 -18v-113q0 -9 4.5 -14t11.5 -5h195q19 0 19 -18v-111q0 -15 -16 -15h-199q-15 0 -15 -14v-127q0 -7 2.5 -10t8.5 -3h333q10 0 15 -4t5 -13v-110q0 -20 -21 -20h-521q-13 0 -18.5 5.5t-5.5 17.5v698
q0 21 17 21zM439 814q-6 0 -10 2t-8 10q-12 20 -36 33.5t-48 13.5q-26 0 -49 -13t-36 -33q-5 -8 -9.5 -10.5t-12.5 -2.5h-71q-7 0 -9.5 4.5t-0.5 10.5q19 62 70 94t118 32t117.5 -32.5t69.5 -91.5q1 -3 1 -8q0 -9 -13 -9h-73z" />
    <glyph glyph-name="uni0207" unicode="&#x207;" horiz-adv-x="588" 
d="M242 137.5q33 -28.5 84 -28.5q31 0 58.5 14t59.5 47q4 4 9 4t10 -2l82 -34q9 -4 9 -11q0 -4 -5 -11q-50 -72 -106 -99t-141 -27q-78 0 -141 34t-99 94.5t-36 138.5q0 83 37 147.5t99.5 100t136.5 35.5q78 0 138 -33.5t94 -97.5t34 -152q0 -14 -2.5 -19t-14.5 -6h-325
q-14 0 -14 -16q0 -50 33 -78.5zM375 326q10 0 13.5 2.5t3.5 11.5q0 34 -22.5 64t-62.5 30q-42 0 -69 -29t-26 -78zM402 602q-6 0 -10 2t-8 10q-12 20 -36 33.5t-48 13.5q-26 0 -49 -13t-36 -33q-5 -8 -9.5 -10.5t-12.5 -2.5h-71q-7 0 -9.5 4.5t-0.5 10.5q19 62 70 94t118 32
t117.5 -32.5t69.5 -91.5q1 -3 1 -8q0 -9 -13 -9h-73z" />
    <glyph glyph-name="uni0208" unicode="&#x208;" horiz-adv-x="323" 
d="M246 742q17 0 17 -19v-696q0 -15 -7 -21t-23 -6h-148q-14 0 -19 5.5t-5 17.5v698q0 10 4.5 15.5t12.5 5.5h168zM-14 964q6 0 11 -5l137 -123q4 -3 4 -8q0 -8 -7 -15l-30 -32q-6 -7 -12 -7q-3 0 -17 7l-140 86q-12 7 -12 16q0 8 8 18l47 57q4 6 11 6zM194 964q6 0 11 -5
l137 -123q4 -3 4 -9q0 -7 -7 -14l-29 -32q-6 -7 -12 -7q-4 0 -18 7l-140 86q-12 7 -12 16q0 8 8 18l47 57q5 6 11 6z" />
    <glyph glyph-name="uni0209" unicode="&#x209;" horiz-adv-x="274" 
d="M226 27q0 -15 -7 -21t-23 -6h-124q-14 0 -19 5.5t-5 17.5v486q0 21 18 21h143q17 0 17 -19v-484zM-36 752q6 0 11 -5l137 -123q4 -3 4 -8q0 -8 -7 -15l-30 -32q-6 -7 -12 -7q-3 0 -17 7l-140 86q-12 7 -12 16q0 8 8 18l47 57q4 6 11 6zM172 752q6 0 11 -5l137 -123
q4 -3 4 -9q0 -7 -7 -14l-29 -32q-6 -7 -12 -7q-4 0 -18 7l-140 86q-12 7 -12 16q0 8 8 18l47 57q5 6 11 6z" />
    <glyph glyph-name="uni020A" unicode="&#x20a;" horiz-adv-x="323" 
d="M246 742q17 0 17 -19v-696q0 -15 -7 -21t-23 -6h-148q-14 0 -19 5.5t-5 17.5v698q0 10 4.5 15.5t12.5 5.5h168zM264 814q-6 0 -10 2t-8 10q-12 20 -36 33.5t-48 13.5q-26 0 -49 -13t-36 -33q-5 -8 -9.5 -10.5t-12.5 -2.5h-71q-7 0 -9.5 4.5t-0.5 10.5q19 62 70 94t118 32
t117.5 -32.5t69.5 -91.5q1 -3 1 -8q0 -9 -13 -9h-73z" />
    <glyph glyph-name="uni020B" unicode="&#x20b;" horiz-adv-x="274" 
d="M226 27q0 -15 -7 -21t-23 -6h-124q-14 0 -19 5.5t-5 17.5v486q0 21 18 21h143q17 0 17 -19v-484zM242 602q-6 0 -10 2t-8 10q-12 20 -36 33.5t-48 13.5q-26 0 -49 -13t-36 -33q-5 -8 -9.5 -10.5t-12.5 -2.5h-71q-7 0 -9.5 4.5t-0.5 10.5q19 62 70 94t118 32t117.5 -32.5
t69.5 -91.5q1 -3 1 -8q0 -9 -13 -9h-73z" />
    <glyph glyph-name="uni020C" unicode="&#x20c;" horiz-adv-x="777" 
d="M202.5 36q-79.5 46 -122.5 131.5t-43 201.5t43.5 202.5t123 133.5t185.5 47q105 0 184.5 -47t123 -133.5t43.5 -202.5q0 -115 -43 -200.5t-122.5 -132t-185.5 -46.5q-107 0 -186.5 46zM495.5 185q32.5 55 32.5 181q0 130 -33.5 188.5t-105.5 58.5q-73 0 -106.5 -58.5
t-33.5 -188.5q0 -126 33 -181t108 -55q73 0 105.5 55zM213 964q6 0 11 -5l137 -123q4 -3 4 -8q0 -8 -7 -15l-30 -32q-6 -7 -12 -7q-3 0 -17 7l-140 86q-12 7 -12 16q0 8 8 18l47 57q4 6 11 6zM421 964q6 0 11 -5l137 -123q4 -3 4 -9q0 -7 -7 -14l-29 -32q-6 -7 -12 -7
q-4 0 -18 7l-140 86q-12 7 -12 16q0 8 8 18l47 57q5 6 11 6z" />
    <glyph glyph-name="uni020D" unicode="&#x20d;" 
d="M157 24.5q-62 34.5 -96.5 96.5t-34.5 141q0 81 35.5 144.5t98 98.5t140.5 35q81 0 143 -35.5t96.5 -99t34.5 -143.5q0 -78 -35 -140t-97.5 -97t-142.5 -35t-142 34.5zM371 145q23 39 23 121t-23.5 122t-70.5 40t-70.5 -40t-23.5 -122q0 -81 23.5 -120.5t70.5 -39.5
q48 0 71 39zM124 752q6 0 11 -5l137 -123q4 -3 4 -8q0 -8 -7 -15l-30 -32q-6 -7 -12 -7q-3 0 -17 7l-140 86q-12 7 -12 16q0 8 8 18l47 57q4 6 11 6zM332 752q6 0 11 -5l137 -123q4 -3 4 -9q0 -7 -7 -14l-29 -32q-6 -7 -12 -7q-4 0 -18 7l-140 86q-12 7 -12 16q0 8 8 18
l47 57q5 6 11 6z" />
    <glyph glyph-name="uni020E" unicode="&#x20e;" horiz-adv-x="777" 
d="M202.5 36q-79.5 46 -122.5 131.5t-43 201.5t43.5 202.5t123 133.5t185.5 47q105 0 184.5 -47t123 -133.5t43.5 -202.5q0 -115 -43 -200.5t-122.5 -132t-185.5 -46.5q-107 0 -186.5 46zM495.5 185q32.5 55 32.5 181q0 130 -33.5 188.5t-105.5 58.5q-73 0 -106.5 -58.5
t-33.5 -188.5q0 -126 33 -181t108 -55q73 0 105.5 55zM491 814q-6 0 -10 2t-8 10q-12 20 -36 33.5t-48 13.5q-26 0 -49 -13t-36 -33q-5 -8 -9.5 -10.5t-12.5 -2.5h-71q-7 0 -9.5 4.5t-0.5 10.5q19 62 70 94t118 32t117.5 -32.5t69.5 -91.5q1 -3 1 -8q0 -9 -13 -9h-73z" />
    <glyph glyph-name="uni020F" unicode="&#x20f;" 
d="M157 24.5q-62 34.5 -96.5 96.5t-34.5 141q0 81 35.5 144.5t98 98.5t140.5 35q81 0 143 -35.5t96.5 -99t34.5 -143.5q0 -78 -35 -140t-97.5 -97t-142.5 -35t-142 34.5zM371 145q23 39 23 121t-23.5 122t-70.5 40t-70.5 -40t-23.5 -122q0 -81 23.5 -120.5t70.5 -39.5
q48 0 71 39zM402 602q-6 0 -10 2t-8 10q-12 20 -36 33.5t-48 13.5q-26 0 -49 -13t-36 -33q-5 -8 -9.5 -10.5t-12.5 -2.5h-71q-7 0 -9.5 4.5t-0.5 10.5q19 62 70 94t118 32t117.5 -32.5t69.5 -91.5q1 -3 1 -8q0 -9 -13 -9h-73z" />
    <glyph glyph-name="uni0210" unicode="&#x210;" horiz-adv-x="731" 
d="M689 20q0 -9 -5 -14.5t-14 -5.5h-171q-19 0 -25 19l-100 269q-3 8 -9.5 11.5t-20.5 3.5h-69q-6 0 -9 -3.5t-3 -7.5v-265q0 -15 -7 -21t-23 -6h-149q-13 0 -18 5.5t-5 17.5v698q0 21 17 21h324q140 0 217 -54.5t77 -153.5q0 -71 -37.5 -124t-96.5 -74q-5 -2 -5 -10
q0 -5 1 -8l129 -288q2 -8 2 -10zM462 459q25 22 25 62q0 42 -27.5 65t-70.5 23h-105q-12 0 -16.5 -4t-4.5 -14v-134q0 -11 3 -15.5t12 -4.5h111q48 0 73 22zM179 964q6 0 11 -5l137 -123q4 -3 4 -8q0 -8 -7 -15l-30 -32q-6 -7 -12 -7q-3 0 -17 7l-140 86q-12 7 -12 16
q0 8 8 18l47 57q4 6 11 6zM387 964q6 0 11 -5l137 -123q4 -3 4 -9q0 -7 -7 -14l-29 -32q-6 -7 -12 -7q-4 0 -18 7l-140 86q-12 7 -12 16q0 8 8 18l47 57q5 6 11 6z" />
    <glyph glyph-name="uni0211" unicode="&#x211;" horiz-adv-x="441" 
d="M53 5.5q-5 5.5 -5 17.5v486q0 21 17 21h138q7 0 11.5 -5t4.5 -13v-58q0 -9 7 -9q5 0 9 6q27 38 69 63.5t78 25.5q37 0 37 -19v-134q0 -18 -18 -15q-40 10 -78 10q-36 0 -66.5 -24t-30.5 -53v-279q0 -14 -7 -20t-23 -6h-124q-14 0 -19 5.5zM52 752q6 0 11 -5l137 -123
q4 -3 4 -8q0 -8 -7 -15l-30 -32q-6 -7 -12 -7q-3 0 -17 7l-140 86q-12 7 -12 16q0 8 8 18l47 57q4 6 11 6zM260 752q6 0 11 -5l137 -123q4 -3 4 -9q0 -7 -7 -14l-29 -32q-6 -7 -12 -7q-4 0 -18 7l-140 86q-12 7 -12 16q0 8 8 18l47 57q5 6 11 6z" />
    <glyph glyph-name="uni0212" unicode="&#x212;" horiz-adv-x="731" 
d="M689 20q0 -9 -5 -14.5t-14 -5.5h-171q-19 0 -25 19l-100 269q-3 8 -9.5 11.5t-20.5 3.5h-69q-6 0 -9 -3.5t-3 -7.5v-265q0 -15 -7 -21t-23 -6h-149q-13 0 -18 5.5t-5 17.5v698q0 21 17 21h324q140 0 217 -54.5t77 -153.5q0 -71 -37.5 -124t-96.5 -74q-5 -2 -5 -10
q0 -5 1 -8l129 -288q2 -8 2 -10zM462 459q25 22 25 62q0 42 -27.5 65t-70.5 23h-105q-12 0 -16.5 -4t-4.5 -14v-134q0 -11 3 -15.5t12 -4.5h111q48 0 73 22zM457 814q-6 0 -10 2t-8 10q-12 20 -36 33.5t-48 13.5q-26 0 -49 -13t-36 -33q-5 -8 -9.5 -10.5t-12.5 -2.5h-71
q-7 0 -9.5 4.5t-0.5 10.5q19 62 70 94t118 32t117.5 -32.5t69.5 -91.5q1 -3 1 -8q0 -9 -13 -9h-73z" />
    <glyph glyph-name="uni0213" unicode="&#x213;" horiz-adv-x="441" 
d="M53 5.5q-5 5.5 -5 17.5v486q0 21 17 21h138q7 0 11.5 -5t4.5 -13v-58q0 -9 7 -9q5 0 9 6q27 38 69 63.5t78 25.5q37 0 37 -19v-134q0 -18 -18 -15q-40 10 -78 10q-36 0 -66.5 -24t-30.5 -53v-279q0 -14 -7 -20t-23 -6h-124q-14 0 -19 5.5zM330 602q-6 0 -10 2t-8 10
q-12 20 -36 33.5t-48 13.5q-26 0 -49 -13t-36 -33q-5 -8 -9.5 -10.5t-12.5 -2.5h-71q-7 0 -9.5 4.5t-0.5 10.5q19 62 70 94t118 32t117.5 -32.5t69.5 -91.5q1 -3 1 -8q0 -9 -13 -9h-73z" />
    <glyph glyph-name="uni0214" unicode="&#x214;" horiz-adv-x="724" 
d="M592 58q-80 -68 -230 -68q-167 0 -238.5 77.5t-71.5 236.5v417q0 21 18 21h167q17 0 17 -19v-443q0 -77 31.5 -112t91.5 -35q128 0 128 150v438q0 21 18 21h133q16 0 16 -19v-439q0 -158 -80 -226zM201 964q6 0 11 -5l137 -123q4 -3 4 -8q0 -8 -7 -15l-30 -32
q-6 -7 -12 -7q-3 0 -17 7l-140 86q-12 7 -12 16q0 8 8 18l47 57q4 6 11 6zM409 964q6 0 11 -5l137 -123q4 -3 4 -9q0 -7 -7 -14l-29 -32q-6 -7 -12 -7q-4 0 -18 7l-140 86q-12 7 -12 16q0 8 8 18l47 57q5 6 11 6z" />
    <glyph glyph-name="uni0215" unicode="&#x215;" horiz-adv-x="597" 
d="M328.5 129.5q23.5 13.5 42.5 36.5v338q0 14 7 20t23 6h126q13 0 18.5 -5.5t5.5 -18.5l-4 -486q0 -20 -17 -20h-139q-17 0 -17 18v47q0 6 -3.5 7.5t-7.5 -3.5q-38 -41 -79 -60t-90 -19q-68 0 -110 44t-42 120v349q0 27 28 27h129q12 0 16.5 -5t4.5 -19v-330
q0 -28 16.5 -44t43.5 -16q25 0 48.5 13.5zM119 752q6 0 11 -5l137 -123q4 -3 4 -8q0 -8 -7 -15l-30 -32q-6 -7 -12 -7q-3 0 -17 7l-140 86q-12 7 -12 16q0 8 8 18l47 57q4 6 11 6zM327 752q6 0 11 -5l137 -123q4 -3 4 -9q0 -7 -7 -14l-29 -32q-6 -7 -12 -7q-4 0 -18 7
l-140 86q-12 7 -12 16q0 8 8 18l47 57q5 6 11 6z" />
    <glyph glyph-name="uni0216" unicode="&#x216;" horiz-adv-x="724" 
d="M592 58q-80 -68 -230 -68q-167 0 -238.5 77.5t-71.5 236.5v417q0 21 18 21h167q17 0 17 -19v-443q0 -77 31.5 -112t91.5 -35q128 0 128 150v438q0 21 18 21h133q16 0 16 -19v-439q0 -158 -80 -226zM479 814q-6 0 -10 2t-8 10q-12 20 -36 33.5t-48 13.5q-26 0 -49 -13
t-36 -33q-5 -8 -9.5 -10.5t-12.5 -2.5h-71q-7 0 -9.5 4.5t-0.5 10.5q19 62 70 94t118 32t117.5 -32.5t69.5 -91.5q1 -3 1 -8q0 -9 -13 -9h-73z" />
    <glyph glyph-name="uni0217" unicode="&#x217;" horiz-adv-x="597" 
d="M328.5 129.5q23.5 13.5 42.5 36.5v338q0 14 7 20t23 6h126q13 0 18.5 -5.5t5.5 -18.5l-4 -486q0 -20 -17 -20h-139q-17 0 -17 18v47q0 6 -3.5 7.5t-7.5 -3.5q-38 -41 -79 -60t-90 -19q-68 0 -110 44t-42 120v349q0 27 28 27h129q12 0 16.5 -5t4.5 -19v-330
q0 -28 16.5 -44t43.5 -16q25 0 48.5 13.5zM397 602q-6 0 -10 2t-8 10q-12 20 -36 33.5t-48 13.5q-26 0 -49 -13t-36 -33q-5 -8 -9.5 -10.5t-12.5 -2.5h-71q-7 0 -9.5 4.5t-0.5 10.5q19 62 70 94t118 32t117.5 -32.5t69.5 -91.5q1 -3 1 -8q0 -9 -13 -9h-73z" />
    <glyph glyph-name="Scommaaccent" unicode="&#x218;" horiz-adv-x="690" 
d="M439.5 597.5q-30.5 15.5 -83.5 15.5q-56 0 -84.5 -18.5t-28.5 -46.5q0 -19 16 -36t56 -27l162 -44q90 -24 135 -80t45 -134q0 -72 -37.5 -125.5t-107.5 -82.5t-164 -29q-106 0 -192.5 35.5t-122.5 95.5q-5 10 -5 15q0 8 11 16l90 62q11 7 19 7q10 0 16 -8
q36 -46 72.5 -65t96.5 -19q61 0 96.5 18t35.5 52q0 46 -73 66l-152 40q-88 23 -138 81.5t-50 134.5q0 65 37 117.5t104.5 83t156.5 30.5q86 0 160 -29t110 -77q7 -12 7 -17t-7 -11l-98 -71q-4 -4 -9 -4q-6 0 -18 12q-25 27 -55.5 42.5zM298 -238.5q-4 6.5 0 12.5l32 46
q5 6 5 13q0 13 -13 13h-9q-12 0 -16.5 4.5t-4.5 15.5v62q0 18 16 18h88q15 0 15 -14v-86q0 -3 -1.5 -6.5t-2.5 -5.5l-50 -66q-6 -8 -12 -10.5t-19 -2.5h-17q-7 0 -11 6.5z" />
    <glyph glyph-name="scommaaccent" unicode="&#x219;" horiz-adv-x="536" 
d="M269 435q-32 0 -53.5 -12t-21.5 -33q0 -11 9.5 -19.5t37.5 -15.5l110 -25q84 -19 122.5 -62t38.5 -103q0 -82 -67.5 -128.5t-178.5 -46.5q-89 0 -153.5 30.5t-90.5 78.5q-5 8 -5 15q0 8 7 12l78 40q8 4 15 4q8 0 13 -6q24 -30 52.5 -46.5t80.5 -16.5q40 0 65.5 12
t25.5 34q0 14 -12.5 24t-43.5 16l-102 20q-158 31 -158 157q0 51 27.5 91t80.5 62.5t125 22.5q75 0 133 -27.5t82 -67.5q7 -10 7 -17t-7 -10l-82 -40q-6 -3 -10 -3q-9 0 -17 10q-40 50 -108 50zM211 -238.5q-4 6.5 0 12.5l32 46q5 6 5 13q0 13 -13 13h-9q-12 0 -16.5 4.5
t-4.5 15.5v62q0 18 16 18h88q15 0 15 -14v-86q0 -3 -1.5 -6.5t-2.5 -5.5l-50 -66q-6 -8 -12 -10.5t-19 -2.5h-17q-7 0 -11 6.5z" />
    <glyph glyph-name="uni021A" unicode="&#x21a;" horiz-adv-x="693" 
d="M31 721q0 9 5.5 15t16.5 6h587q11 0 16.5 -6t5.5 -15v-106q0 -17 -20 -17h-182q-11 0 -11 -10v-568q0 -20 -18 -20h-168q-17 0 -17 19v565q0 8 -2 11t-8 3h-184q-21 0 -21 17v106zM295 -238.5q-4 6.5 0 12.5l32 46q5 6 5 13q0 13 -13 13h-9q-12 0 -16.5 4.5t-4.5 15.5v62
q0 18 16 18h88q15 0 15 -14v-86q0 -3 -1.5 -6.5t-2.5 -5.5l-50 -66q-6 -8 -12 -10.5t-19 -2.5h-17q-7 0 -11 6.5z" />
    <glyph glyph-name="uni021B" unicode="&#x21b;" horiz-adv-x="448" 
d="M299 409q-12 0 -12 -12v-216q0 -30 16.5 -44t52.5 -14h48q7 0 11.5 -5t4.5 -13l-1 -72q0 -21 -26 -26q-45 -7 -127 -7q-72 0 -114.5 34t-42.5 97v261q0 9 -3 13t-11 4h-54q-22 0 -22 20v84q0 17 20 17h64q9 0 11 11l15 150q1 10 4.5 14.5t12.5 4.5h128q18 0 18 -20v-149
q0 -10 10 -10h99q9 0 14.5 -4.5t5.5 -12.5v-85q0 -20 -23 -20h-99zM209 -238.5q-4 6.5 0 12.5l32 46q5 6 5 13q0 13 -13 13h-9q-12 0 -16.5 4.5t-4.5 15.5v62q0 18 16 18h88q15 0 15 -14v-86q0 -3 -1.5 -6.5t-2.5 -5.5l-50 -66q-6 -8 -12 -10.5t-19 -2.5h-17q-7 0 -11 6.5z
" />
    <glyph glyph-name="uni0237" unicode="&#x237;" horiz-adv-x="275" 
d="M178.5 -123q-48.5 -47 -148.5 -47q-42 0 -55 4.5t-13 18.5v91q0 8 4.5 15t13.5 9l38 5q15 3 23 14.5t8 37.5v484q0 21 18 21h143q17 0 17 -19v-493q0 -94 -48.5 -141z" />
    <glyph glyph-name="uni0259" unicode="&#x259;" horiz-adv-x="588" 
d="M346 392.5q-33 28.5 -84 28.5q-31 0 -58.5 -14t-59.5 -47q-4 -4 -9 -4t-10 2l-82 34q-9 4 -9 11q0 4 5 11q50 72 106 99t141 27q78 0 141 -34t99 -94.5t36 -138.5q0 -83 -37 -147.5t-99.5 -100t-136.5 -35.5q-78 0 -138 33.5t-94 97.5t-34 152q0 14 2.5 19t14.5 6h325
q14 0 14 16q0 50 -33 78.5zM213 204q-10 0 -13.5 -2.5t-3.5 -11.5q0 -34 22.5 -64t62.5 -30q42 0 69 29t26 78z" />
    <glyph glyph-name="uni02BC" unicode="&#x2bc;" horiz-adv-x="185" 
d="M39.5 454q-2.5 5 -0.5 10l31 109q2 8 2 11q0 7 -9 8l-11 2q-9 1 -12.5 4.5t-3.5 11.5v117q0 15 12 15h92q5 0 8.5 -3.5t3.5 -8.5v-136q0 -3 -3 -9l-38 -121q-2 -8 -8 -11.5t-19 -3.5h-36q-6 0 -8.5 5z" />
    <glyph glyph-name="circumflex" unicode="&#x2c6;" horiz-adv-x="401" 
d="M215 664q-5 6 -9 10t-7 4q-5 0 -16 -14l-49 -54q-5 -6 -9 -7t-15 -1h-91q-9 0 -9 5q0 3 7 12l110 118q6 8 13.5 11t20.5 3h85q16 0 26 -12l109 -120q8 -10 8 -13q0 -4 -9 -4h-97q-10 0 -15 1.5t-10 6.5z" />
    <glyph glyph-name="caron" unicode="&#x2c7;" horiz-adv-x="401" 
d="M268 741.5q5 1.5 15 1.5h97q9 0 9 -4q0 -3 -8 -13l-109 -121q-12 -12 -26 -12h-85q-22 0 -34 14l-110 119q-7 9 -7 12q0 5 9 5h91h5q7 0 11 -1.5t8 -7.5l49 -54q10 -13 16 -13q3 0 7 3.5t9 9.5l43 54q5 6 10 7.5z" />
    <glyph glyph-name="breve" unicode="&#x2d8;" horiz-adv-x="403" 
d="M388.5 738q2.5 -4 0.5 -13q-19 -59 -69.5 -91.5t-117.5 -32.5t-118 32t-70 94l-1 5q0 10 11 10h71q8 0 12.5 -2.5t9.5 -10.5q13 -20 36 -33t49 -13q24 0 48 13.5t36 33.5q4 8 8 10t10 2h73q9 0 11.5 -4z" />
    <glyph glyph-name="dotaccent" unicode="&#x2d9;" horiz-adv-x="199" 
d="M189 610q0 -14 -7 -20t-23 -6h-125q-14 0 -19 5.5t-5 17.5v114q0 21 18 21h145q16 0 16 -19v-113z" />
    <glyph glyph-name="ring" unicode="&#x2da;" horiz-adv-x="249" 
d="M205.5 600.5q-33.5 -33.5 -80.5 -33.5q-48 0 -81.5 34t-33.5 83q0 46 34 78.5t81 32.5t80.5 -33t33.5 -80q0 -48 -33.5 -81.5zM158.5 716q-14.5 14 -34.5 14q-21 0 -36 -14t-15 -35q0 -20 15.5 -35t35.5 -15t34.5 15t14.5 35q0 21 -14.5 35z" />
    <glyph glyph-name="ogonek" unicode="&#x2db;" horiz-adv-x="251" 
d="M30.5 -35.5q20.5 22.5 75.5 42.5l122 -2q-53 -18 -73 -33.5t-20 -35.5q0 -16 7.5 -23t24.5 -7q27 0 57 15q6 3 10 3q7 0 7 -13v-47q0 -11 -9 -17q-15 -8 -43.5 -14t-61.5 -6q-55 0 -86 22t-31 64q0 29 20.5 51.5z" />
    <glyph glyph-name="tilde" unicode="&#x2dc;" horiz-adv-x="436" 
d="M351 626q-25 -8 -54 -8q-19 0 -40 4.5t-40 10.5q-45 15 -75 15q-20 0 -35 -5.5t-34 -18.5q-7 -5 -11 -5q-7 0 -10 12l-16 49q-2 8 -2 10q0 8 9 18q23 19 43.5 29t50.5 10q34 0 90 -18q47 -15 70 -15q34 0 73 26q5 4 11 4q8 0 11 -12l14 -59l1 -6q0 -11 -14 -21
q-17 -12 -42 -20z" />
    <glyph glyph-name="hungarumlaut" unicode="&#x2dd;" horiz-adv-x="451" 
d="M222 689q8 -12 8 -18q0 -8 -12 -16l-140 -86q-12 -7 -17 -7q-6 0 -12 7l-30 32q-7 7 -7 15q0 5 4 8l137 123q7 5 11 5q6 0 11 -6zM431 689q7 -10 7 -18q0 -9 -11 -16l-141 -86q-12 -7 -17 -7q-6 0 -12 7l-30 32q-7 9 -7 14q0 6 5 9l137 123q5 5 11 5q5 0 11 -6z" />
    <glyph glyph-name="gravecomb" unicode="&#x300;" horiz-adv-x="0" 
d="M-267 751q5 3 11 0l237 -100q10 -5 10 -14l-2 -8l-14 -39q-6 -14 -16 -14q-3 0 -11 2l-232 59q-19 4 -19 19q0 6 2 10l26 74q3 8 8 11z" />
    <glyph glyph-name="acutecomb" unicode="&#x301;" horiz-adv-x="0" 
d="M-11 666q2 -8 2 -10q0 -15 -20 -19l-232 -59q-8 -2 -10 -2q-11 0 -17 14l-13 39q-2 3 -2 9q0 9 9 13l237 100q2 1 6 1t8 -3t5 -9z" />
    <glyph glyph-name="uni0302" unicode="&#x302;" horiz-adv-x="0" 
d="M-186 664q-5 6 -9 10t-7 4q-5 0 -16 -14l-49 -54q-5 -6 -9 -7t-15 -1h-91q-9 0 -9 5q0 3 7 12l110 118q6 8 13.5 11t20.5 3h85q16 0 26 -12l109 -120q8 -10 8 -13q0 -4 -9 -4h-97q-10 0 -15 1.5t-10 6.5z" />
    <glyph glyph-name="tildecomb" unicode="&#x303;" horiz-adv-x="0" 
d="M-85 626q-25 -8 -54 -8q-19 0 -40 4.5t-40 10.5q-45 15 -75 15q-20 0 -35 -5.5t-34 -18.5q-7 -5 -11 -5q-7 0 -10 12l-16 49q-2 8 -2 10q0 8 9 18q23 19 43.5 29t50.5 10q34 0 90 -18q47 -15 70 -15q34 0 73 26q5 4 11 4q8 0 11 -12l14 -59l1 -6q0 -11 -14 -21
q-17 -12 -42 -20z" />
    <glyph glyph-name="uni0304" unicode="&#x304;" horiz-adv-x="0" 
d="M-10 650q0 -12 -6 -17t-20 -5h-343q-12 0 -16 4.5t-4 15.5v73q0 18 14 18h361q14 0 14 -16v-73z" />
    <glyph glyph-name="uni0306" unicode="&#x306;" horiz-adv-x="0" 
d="M-14.5 738q2.5 -4 0.5 -13q-19 -59 -69.5 -91.5t-117.5 -32.5t-118 32t-70 94l-1 5q0 10 11 10h71q8 0 12.5 -2.5t9.5 -10.5q13 -20 36 -33t49 -13q24 0 48 13.5t36 33.5q4 8 8 10t10 2h73q9 0 11.5 -4z" />
    <glyph glyph-name="uni0307" unicode="&#x307;" horiz-adv-x="0" 
d="M-10 610q0 -14 -7 -20t-23 -6h-125q-14 0 -19 5.5t-5 17.5v114q0 21 18 21h145q16 0 16 -19v-113z" />
    <glyph glyph-name="uni0308" unicode="&#x308;" horiz-adv-x="0" 
d="M-233 628q0 -23 -26 -23h-108q-11 0 -15.5 5t-4.5 16v97q0 19 15 19h124q15 0 15 -17v-97zM-10 628q0 -12 -6.5 -17.5t-20.5 -5.5h-107q-12 0 -16.5 5t-4.5 16v97q0 19 15 19h125q15 0 15 -17v-97z" />
    <glyph glyph-name="uni030A" unicode="&#x30a;" horiz-adv-x="0" 
d="M-43.5 600.5q-33.5 -33.5 -80.5 -33.5q-48 0 -81.5 34t-33.5 83q0 46 34 78.5t81 32.5t80.5 -33t33.5 -80q0 -48 -33.5 -81.5zM-90.5 716q-14.5 14 -34.5 14q-21 0 -36 -14t-15 -35q0 -20 15.5 -35t35.5 -15t34.5 15t14.5 35q0 21 -14.5 35z" />
    <glyph glyph-name="uni030B" unicode="&#x30b;" horiz-adv-x="0" 
d="M-229 689q8 -12 8 -18q0 -8 -12 -16l-140 -86q-12 -7 -17 -7q-6 0 -12 7l-30 32q-7 7 -7 15q0 5 4 8l137 123q7 5 11 5q6 0 11 -6zM-20 689q7 -10 7 -18q0 -9 -11 -16l-141 -86q-12 -7 -17 -7q-6 0 -12 7l-30 32q-7 9 -7 14q0 6 5 9l137 123q5 5 11 5q5 0 11 -6z" />
    <glyph glyph-name="uni030C" unicode="&#x30c;" horiz-adv-x="0" 
d="M-133 741.5q5 1.5 15 1.5h97q9 0 9 -4q0 -3 -8 -13l-109 -121q-12 -12 -26 -12h-85q-22 0 -34 14l-110 119q-7 9 -7 12q0 5 9 5h91h5q7 0 11 -1.5t8 -7.5l49 -54q10 -13 16 -13q3 0 7 3.5t9 9.5l43 54q5 6 10 7.5z" />
    <glyph glyph-name="uni030F" unicode="&#x30f;" horiz-adv-x="0" 
d="M-373 752q6 0 11 -5l137 -123q4 -3 4 -8q0 -8 -7 -15l-30 -32q-6 -7 -12 -7q-3 0 -17 7l-140 86q-12 7 -12 16q0 8 8 18l47 57q4 6 11 6zM-165 752q6 0 11 -5l137 -123q4 -3 4 -9q0 -7 -7 -14l-29 -32q-6 -7 -12 -7q-4 0 -18 7l-140 86q-12 7 -12 16q0 8 8 18l47 57
q5 6 11 6z" />
    <glyph glyph-name="uni0311" unicode="&#x311;" horiz-adv-x="0" 
d="M-96 602q-6 0 -10 2t-8 10q-12 20 -36 33.5t-48 13.5q-26 0 -49 -13t-36 -33q-5 -8 -9.5 -10.5t-12.5 -2.5h-71q-7 0 -9.5 4.5t-0.5 10.5q19 62 70 94t118 32t117.5 -32.5t69.5 -91.5q1 -3 1 -8q0 -9 -13 -9h-73z" />
    <glyph glyph-name="dotbelowcomb" unicode="&#x323;" horiz-adv-x="0" 
d="M-10 -144q0 -11 -5.5 -16t-17.5 -5h-94q-10 0 -14 4.5t-4 13.5v88q0 17 12 17h110q13 0 13 -15v-87z" />
    <glyph glyph-name="uni0326" unicode="&#x326;" horiz-adv-x="0" 
d="M-123 -238.5q-4 6.5 0 12.5l32 46q5 6 5 13q0 13 -13 13h-9q-12 0 -16.5 4.5t-4.5 15.5v62q0 18 16 18h88q15 0 15 -14v-86q0 -3 -1.5 -6.5t-2.5 -5.5l-50 -66q-6 -8 -12 -10.5t-19 -2.5h-17q-7 0 -11 6.5z" />
    <glyph glyph-name="uni0327" unicode="&#x327;" horiz-adv-x="0" 
d="M-47 -198.5q-37 -23.5 -91 -23.5q-73 0 -120 24q-9 7 -5 15l16 38q3 8 11 5q42 -23 76 -23q23 0 36 8t13 21q0 20 -20.5 30t-68.5 11q-8 0 -10.5 2t0.5 9l38 87h75l-20 -51l-1 -4q0 -4 7 -4q52 -1 76.5 -25.5t24.5 -56.5q0 -39 -37 -62.5z" />
    <glyph glyph-name="uni0328" unicode="&#x328;" horiz-adv-x="0" 
d="M-220.5 -35.5q20.5 22.5 75.5 42.5l122 -2q-53 -18 -73 -33.5t-20 -35.5q0 -16 7.5 -23t24.5 -7q27 0 57 15q6 3 10 3q7 0 7 -13v-47q0 -11 -9 -17q-15 -8 -43.5 -14t-61.5 -6q-55 0 -86 22t-31 64q0 29 20.5 51.5z" />
    <glyph glyph-name="uni0394" unicode="&#x394;" horiz-adv-x="691" 
d="M18 77q0 31 11 60l209 585q8 20 26 20h164q10 0 16.5 -5t10.5 -18l207 -580q7 -18 9 -29t2 -25v-60q0 -13 -4.5 -19t-15.5 -6h-605q-13 0 -21.5 9t-8.5 26v42zM458 143q13 0 13 11l-2 8l-117 367q-4 15 -10 15q-5 0 -10 -15l-117 -366q-1 -3 -1 -7q0 -13 16 -13h228z" />
    <glyph glyph-name="uni03A9" unicode="&#x3a9;" horiz-adv-x="767" 
d="M278.5 558q-42.5 -55 -42.5 -166q0 -88 28.5 -148.5t72.5 -98.5q21 -18 21 -39v-86q0 -20 -17 -20h-275q-7 0 -12 5t-5 13v115q0 14 17 14h91q9 0 9 6q0 4 -5 9q-49 44 -85.5 108t-36.5 147q0 85 41.5 162t120.5 125t185 48q108 0 185.5 -50t117 -127t39.5 -157
t-37.5 -145.5t-89.5 -112.5q-4 -4 -4 -7q0 -6 8 -6h98q15 0 15 -15v-115q0 -17 -15 -17h-273q-21 0 -21 22v83q0 12 4 19.5t15 18.5q43 36 73 98.5t30 154.5q0 107 -39.5 162t-105.5 55q-65 0 -107.5 -55z" />
    <glyph glyph-name="uni03BC" unicode="&#x3bc;" horiz-adv-x="597" 
d="M328.5 129.5q23.5 13.5 42.5 36.5v338q0 14 7 20t23 6h126q13 0 18.5 -5.5t5.5 -18.5l-4 -486q0 -20 -17 -20h-139q-17 0 -17 18v47q0 6 -3.5 7.5t-7.5 -3.5q-53 -58 -110 -70q-13 -3 -21.5 -6t-11.5 -7v-124q0 -15 -6.5 -21t-23.5 -6h-123q-13 0 -19 5.5t-6 17.5v645
q0 27 28 27h129q12 0 16.5 -5t4.5 -19v-333q0 -25 17 -41t43 -16q25 0 48.5 13.5z" />
    <glyph glyph-name="pi" unicode="&#x3c0;" horiz-adv-x="674" 
d="M588 409q-15 0 -15 -14v-377q0 -18 -17 -18h-136q-17 0 -17 18v378q0 13 -14 13h-110q-10 0 -10 -9q0 -85 -16.5 -203t-39.5 -186q-5 -11 -15 -11h-139q-8 0 -11 4.5t-2 11.5q22 85 37.5 195.5t15.5 187.5q0 10 -9 10h-57q-20 0 -20 18v85q0 18 21 18h608q10 0 14.5 -4.5
t4.5 -15.5v-80q0 -11 -5.5 -16t-13.5 -5h-54z" />
    <glyph glyph-name="uni1E0C" unicode="&#x1e0c;" horiz-adv-x="762" 
d="M192 742q109 0 138 -1q197 -7 295.5 -103.5t98.5 -264.5q0 -112 -44.5 -196t-133.5 -130.5t-218 -46.5h-241q-14 0 -20 6t-6 21v692q0 13 5 18t19 5h107zM263 587v-432q0 -8 2.5 -11t10.5 -3h13q112 0 167.5 54.5t55.5 179.5q0 112 -44.5 164t-134.5 59l-61 3
q-9 0 -9 -14zM424 -144q0 -11 -5.5 -16t-17.5 -5h-94q-10 0 -14 4.5t-4 13.5v88q0 17 12 17h110q13 0 13 -15v-87z" />
    <glyph glyph-name="uni1E0D" unicode="&#x1e0d;" horiz-adv-x="613" 
d="M390 21v24q0 4 -2 6t-4 2q-3 0 -9 -4q-30 -29 -63 -44t-80 -15q-92 0 -148 70t-56 202q0 82 29 145t78 98t107 35q38 0 68 -12t59 -40q6 -6 12 -6q7 0 7 14v227q0 19 16 19h143q18 0 18 -21v-698q0 -12 -5.5 -17.5t-19.5 -5.5h-127q-23 0 -23 21zM348.5 417.5
q-18.5 10.5 -44.5 10.5q-45 0 -70.5 -39.5t-25.5 -125.5q0 -87 24.5 -125.5t70.5 -38.5q35 0 59.5 22t24.5 54v210q-20 22 -38.5 32.5zM374 -144q0 -11 -5.5 -16t-17.5 -5h-94q-10 0 -14 4.5t-4 13.5v88q0 17 12 17h110q13 0 13 -15v-87z" />
    <glyph glyph-name="uni1E24" unicode="&#x1e24;" horiz-adv-x="757" 
d="M277 306q-6 0 -10 -3.5t-4 -9.5v-267q0 -14 -7 -20t-23 -6h-148q-14 0 -19 5.5t-5 17.5v698q0 10 4.5 15.5t12.5 5.5h168q8 0 12.5 -5t4.5 -14v-244q0 -19 16 -19h199q16 0 16 19v244q0 9 4.5 14t12.5 5h168q8 0 12.5 -5.5t4.5 -15.5v-698q0 -12 -5 -17.5t-19 -5.5h-148
q-16 0 -23 6t-7 20v267q0 6 -3.5 9.5t-10.5 3.5h-203zM444 -144q0 -11 -5.5 -16t-17.5 -5h-94q-10 0 -14 4.5t-4 13.5v88q0 17 12 17h110q13 0 13 -15v-87z" />
    <glyph glyph-name="uni1E25" unicode="&#x1e25;" horiz-adv-x="601" 
d="M54 5q-5 5 -5 18v698q0 21 17 21h141q17 0 17 -19v-253q0 -7 4 -7q3 0 8 3q44 40 83 57t82 17q75 0 116 -42.5t41 -120.5v-350q0 -27 -28 -27h-129q-12 0 -16.5 5t-4.5 18v332q0 27 -16.5 42.5t-45.5 15.5q-27 0 -48.5 -13.5t-42.5 -42.5v-331q0 -14 -7 -20t-23 -6h-125
q-13 0 -18 5zM374 -144q0 -11 -5.5 -16t-17.5 -5h-94q-10 0 -14 4.5t-4 13.5v88q0 17 12 17h110q13 0 13 -15v-87z" />
    <glyph glyph-name="uni1E44" unicode="&#x1e44;" horiz-adv-x="760" 
d="M685 742q15 0 15 -16v-709q0 -8 -6 -12.5t-15 -4.5h-121q-8 0 -13.5 2.5t-12.5 11.5l-296 408q-4 6 -7 5.5t-3 -6.5v-401v-3q0 -9 -5 -13t-17 -4h-121q-22 0 -22 19v702q0 11 4.5 16t15.5 5h143q12 0 17.5 -3t13.5 -13l266 -375q6 -8 11 -8t5 12v368q0 19 20 19h128z
M472 822q0 -14 -7 -20t-23 -6h-125q-14 0 -19 5.5t-5 17.5v114q0 21 18 21h145q16 0 16 -19v-113z" />
    <glyph glyph-name="uni1E45" unicode="&#x1e45;" 
d="M53.5 5q-5.5 5 -5.5 18v486q0 21 17 21h142q17 0 17 -18v-48q0 -8 5 -8q3 0 7 4q78 80 164 80q71 0 114.5 -43.5t43.5 -116.5v-353q0 -27 -28 -27h-129q-12 0 -16.5 5t-4.5 18v332q0 27 -17 42.5t-46 15.5q-27 0 -48.5 -13.5t-42.5 -42.5v-331q0 -14 -7 -20t-23 -6h-124
q-13 0 -18.5 5zM393 610q0 -14 -7 -20t-23 -6h-125q-14 0 -19 5.5t-5 17.5v114q0 21 18 21h145q16 0 16 -19v-113z" />
    <glyph glyph-name="uni1E5A" unicode="&#x1e5a;" horiz-adv-x="731" 
d="M689 20q0 -9 -5 -14.5t-14 -5.5h-171q-19 0 -25 19l-100 269q-3 8 -9.5 11.5t-20.5 3.5h-69q-6 0 -9 -3.5t-3 -7.5v-265q0 -15 -7 -21t-23 -6h-149q-13 0 -18 5.5t-5 17.5v698q0 21 17 21h324q140 0 217 -54.5t77 -153.5q0 -71 -37.5 -124t-96.5 -74q-5 -2 -5 -10
q0 -5 1 -8l129 -288q2 -8 2 -10zM462 459q25 22 25 62q0 42 -27.5 65t-70.5 23h-105q-12 0 -16.5 -4t-4.5 -14v-134q0 -11 3 -15.5t12 -4.5h111q48 0 73 22zM432 -144q0 -11 -5.5 -16t-17.5 -5h-94q-10 0 -14 4.5t-4 13.5v88q0 17 12 17h110q13 0 13 -15v-87z" />
    <glyph glyph-name="uni1E5B" unicode="&#x1e5b;" horiz-adv-x="441" 
d="M53 5.5q-5 5.5 -5 17.5v486q0 21 17 21h138q7 0 11.5 -5t4.5 -13v-58q0 -9 7 -9q5 0 9 6q27 38 69 63.5t78 25.5q37 0 37 -19v-134q0 -18 -18 -15q-40 10 -78 10q-36 0 -66.5 -24t-30.5 -53v-279q0 -14 -7 -20t-23 -6h-124q-14 0 -19 5.5zM197 -144q0 -11 -5.5 -16
t-17.5 -5h-94q-10 0 -14 4.5t-4 13.5v88q0 17 12 17h110q13 0 13 -15v-87z" />
    <glyph glyph-name="uni1E62" unicode="&#x1e62;" horiz-adv-x="690" 
d="M439.5 597.5q-30.5 15.5 -83.5 15.5q-56 0 -84.5 -18.5t-28.5 -46.5q0 -19 16 -36t56 -27l162 -44q90 -24 135 -80t45 -134q0 -72 -37.5 -125.5t-107.5 -82.5t-164 -29q-106 0 -192.5 35.5t-122.5 95.5q-5 10 -5 15q0 8 11 16l90 62q11 7 19 7q10 0 16 -8
q36 -46 72.5 -65t96.5 -19q61 0 96.5 18t35.5 52q0 46 -73 66l-152 40q-88 23 -138 81.5t-50 134.5q0 65 37 117.5t104.5 83t156.5 30.5q86 0 160 -29t110 -77q7 -12 7 -17t-7 -11l-98 -71q-4 -4 -9 -4q-6 0 -18 12q-25 27 -55.5 42.5zM419 -144q0 -11 -5.5 -16t-17.5 -5
h-94q-10 0 -14 4.5t-4 13.5v88q0 17 12 17h110q13 0 13 -15v-87z" />
    <glyph glyph-name="uni1E63" unicode="&#x1e63;" horiz-adv-x="536" 
d="M269 435q-32 0 -53.5 -12t-21.5 -33q0 -11 9.5 -19.5t37.5 -15.5l110 -25q84 -19 122.5 -62t38.5 -103q0 -82 -67.5 -128.5t-178.5 -46.5q-89 0 -153.5 30.5t-90.5 78.5q-5 8 -5 15q0 8 7 12l78 40q8 4 15 4q8 0 13 -6q24 -30 52.5 -46.5t80.5 -16.5q40 0 65.5 12
t25.5 34q0 14 -12.5 24t-43.5 16l-102 20q-158 31 -158 157q0 51 27.5 91t80.5 62.5t125 22.5q75 0 133 -27.5t82 -67.5q7 -10 7 -17t-7 -10l-82 -40q-6 -3 -10 -3q-9 0 -17 10q-40 50 -108 50zM332 -144q0 -11 -5.5 -16t-17.5 -5h-94q-10 0 -14 4.5t-4 13.5v88q0 17 12 17
h110q13 0 13 -15v-87z" />
    <glyph glyph-name="uni1E6C" unicode="&#x1e6c;" horiz-adv-x="693" 
d="M31 721q0 9 5.5 15t16.5 6h587q11 0 16.5 -6t5.5 -15v-106q0 -17 -20 -17h-182q-11 0 -11 -10v-568q0 -20 -18 -20h-168q-17 0 -17 19v565q0 8 -2 11t-8 3h-184q-21 0 -21 17v106zM416 -144q0 -11 -5.5 -16t-17.5 -5h-94q-10 0 -14 4.5t-4 13.5v88q0 17 12 17h110
q13 0 13 -15v-87z" />
    <glyph glyph-name="uni1E6D" unicode="&#x1e6d;" horiz-adv-x="448" 
d="M299 409q-12 0 -12 -12v-216q0 -30 16.5 -44t52.5 -14h48q7 0 11.5 -5t4.5 -13l-1 -72q0 -21 -26 -26q-45 -7 -127 -7q-72 0 -114.5 34t-42.5 97v261q0 9 -3 13t-11 4h-54q-22 0 -22 20v84q0 17 20 17h64q9 0 11 11l15 150q1 10 4.5 14.5t12.5 4.5h128q18 0 18 -20v-149
q0 -10 10 -10h99q9 0 14.5 -4.5t5.5 -12.5v-85q0 -20 -23 -20h-99zM305 -144q0 -11 -5.5 -16t-17.5 -5h-94q-10 0 -14 4.5t-4 13.5v88q0 17 12 17h110q13 0 13 -15v-87z" />
    <glyph glyph-name="Wgrave" unicode="&#x1e80;" horiz-adv-x="1097" 
d="M1060.5 735.5q7.5 -6.5 7.5 -17.5q0 -4 -2 -12l-203 -683q-5 -12 -12.5 -17.5t-21.5 -5.5h-123q-14 0 -22 5.5t-12 17.5l-114 393q-3 11 -6 11q-4 0 -8 -13l-115 -391q-6 -23 -33 -23h-128q-26 0 -33 23l-204 683q-1 4 -1 11q0 12 7 18.5t21 6.5h146q13 0 19.5 -4.5
t9.5 -14.5l117 -411q3 -12 7 -12q3 0 5 8l116 415q2 10 9 14.5t21 4.5h124q13 0 19.5 -4.5t9.5 -14.5l121 -419q2 -7 5.5 -8t5.5 6l114 421q3 19 29 19h103q14 0 21.5 -6.5zM437 963q5 3 11 0l237 -100q10 -5 10 -14l-2 -8l-14 -39q-6 -14 -16 -14q-3 0 -11 2l-232 59
q-19 4 -19 19q0 6 2 10l26 74q3 8 8 11z" />
    <glyph glyph-name="wgrave" unicode="&#x1e81;" horiz-adv-x="825" 
d="M803 525q5 -5 5 -13l-2 -8l-167 -487q-3 -9 -8 -13t-14 -4h-94q-21 0 -27 20l-75 241q-3 11 -8 11q-4 0 -7 -11l-78 -244q-3 -9 -8 -13t-15 -4h-97q-20 0 -26 20l-162 484l-2 8q0 8 5 13t14 5h137q8 0 15 -5t9 -13l79 -247q2 -10 7 -10q3 0 8 11l75 246q2 8 8.5 13
t14.5 5h98q7 0 14 -5t9 -13l74 -247q2 -10 7 -10q3 0 8 11l77 246q9 18 24 18h89q8 0 13 -5zM299 751q5 3 11 0l237 -100q10 -5 10 -14l-2 -8l-14 -39q-6 -14 -16 -14q-3 0 -11 2l-232 59q-19 4 -19 19q0 6 2 10l26 74q3 8 8 11z" />
    <glyph glyph-name="Wacute" unicode="&#x1e82;" horiz-adv-x="1097" 
d="M1060.5 735.5q7.5 -6.5 7.5 -17.5q0 -4 -2 -12l-203 -683q-5 -12 -12.5 -17.5t-21.5 -5.5h-123q-14 0 -22 5.5t-12 17.5l-114 393q-3 11 -6 11q-4 0 -8 -13l-115 -391q-6 -23 -33 -23h-128q-26 0 -33 23l-204 683q-1 4 -1 11q0 12 7 18.5t21 6.5h146q13 0 19.5 -4.5
t9.5 -14.5l117 -411q3 -12 7 -12q3 0 5 8l116 415q2 10 9 14.5t21 4.5h124q13 0 19.5 -4.5t9.5 -14.5l121 -419q2 -7 5.5 -8t5.5 6l114 421q3 19 29 19h103q14 0 21.5 -6.5zM695 878q2 -8 2 -10q0 -15 -20 -19l-232 -59q-8 -2 -10 -2q-11 0 -17 14l-13 39q-2 3 -2 9
q0 9 9 13l237 100q2 1 6 1t8 -3t5 -9z" />
    <glyph glyph-name="wacute" unicode="&#x1e83;" horiz-adv-x="825" 
d="M803 525q5 -5 5 -13l-2 -8l-167 -487q-3 -9 -8 -13t-14 -4h-94q-21 0 -27 20l-75 241q-3 11 -8 11q-4 0 -7 -11l-78 -244q-3 -9 -8 -13t-15 -4h-97q-20 0 -26 20l-162 484l-2 8q0 8 5 13t14 5h137q8 0 15 -5t9 -13l79 -247q2 -10 7 -10q3 0 8 11l75 246q2 8 8.5 13
t14.5 5h98q7 0 14 -5t9 -13l74 -247q2 -10 7 -10q3 0 8 11l77 246q9 18 24 18h89q8 0 13 -5zM557 666q2 -8 2 -10q0 -15 -20 -19l-232 -59q-8 -2 -10 -2q-11 0 -17 14l-13 39q-2 3 -2 9q0 9 9 13l237 100q2 1 6 1t8 -3t5 -9z" />
    </font>
</defs>
</svg>
